<svg xmlns="http://www.w3.org/2000/svg" viewBox="55 50 570 160"><path d="M562.3 58.1c-15.2 0-28.2 4.4-37.7 12.7-10.2 9-15.8 21.9-15.8 36.5 0 14.8 5.6 27.9 15.7 36.8 9.5 8.4 22.3 12.6 38 12.6 15.2 0 28.3-4.4 37.8-12.8 10.3-9 15.9-22 15.9-36.6s-5.7-27.6-16.1-36.6c-9.5-8.2-22.6-12.6-37.8-12.6m.2 71.5c-13.1 0-26.4-6.9-26.4-22.3 0-13 10.8-22 26.2-22s26.5 9.3 26.5 22c.1 13.2-10.8 22.3-26.3 22.3m-66.7-68.7c0-.7-.5-1.2-1.2-1.2h-5.5c-21 0-41.9 14-50.9 35.7l-.3.8-.3-.8c-9-21.7-29.9-35.7-50.9-35.7h-5.6c-.7 0-1.2.5-1.2 1.2v93.6c0 .7.5 1.2 1.2 1.2h26.8c.7 0 1.2-.5 1.2-1.2V101s15.1 3.3 19.2 33.6c.1.6.5.9 1.1.9h16.9c.6 0 1-.4 1.1-.9 4.1-30.3 19.2-33.6 19.2-33.6v53.5c0 .7.5 1.2 1.2 1.2h26.8c.7 0 1.2-.5 1.2-1.2V60.9zm-249 71.4h-38.5c-.7 0-1.2-.5-1.2-1.2V62c0-.7-.5-1.2-1.2-1.2h-28.1c-.7 0-1.2.5-1.2 1.2v92.4c0 .7.5 1.2 1.2 1.2h63c.5 0 .8-.2 1-.6l.1-.5 5.6-21.3v-.1c.1-.5-.2-.8-.7-.8M59.3 155.7h26.8c.7 0 1.2-.5 1.2-1.2v-9.7c0-.7.5-1.2 1.2-1.2H131c.7 0 1.2.5 1.2 1.2v9.7c0 .6.5 1.1 1.2 1.1h26.8c.7 0 1.2-.5 1.2-1.2v-33.2c0-40.5-23.1-63.3-51.5-63.3s-51.5 22.8-51.5 63.3v33.2c-.3.8.2 1.3.9 1.3m28-35.2v-8c0-14.8 10-26.7 22.4-26.7s22.4 12 22.4 26.7v8c0 .7-.5 1.2-1.2 1.2H88.4c-.6 0-1.1-.4-1.1-1.2zm172.6 35.2h26.8c.7 0 1.2-.5 1.2-1.2v-9.7c0-.7.5-1.2 1.2-1.2h42.5c.7 0 1.2.5 1.2 1.2v9.7c0 .6.5 1.1 1.2 1.1h26.8c.7 0 1.2-.5 1.2-1.2v-33.2c0-40.5-23.1-63.3-51.5-63.3S259 80.7 259 121.2v33.2c-.3.8.2 1.3.9 1.3m27.9-35.2v-8c0-14.8 10.1-26.7 22.4-26.7 12.4 0 22.4 12 22.4 26.7v8c0 .7-.5 1.2-1.2 1.2H289c-.7 0-1.1-.4-1.2-1.2zm-204 59.1h11.6c10.8 0 17 6.1 17 14.6v.1c0 8.6-6.3 14.9-17.2 14.9H83.7v-29.6h.1zm11.7 22.3c5 0 8.3-2.7 8.3-7.5v-.1c0-4.7-3.3-7.5-8.3-7.5h-3.4v15.1h3.4zm20.8-22.4h14.2c4.6 0 7.8 1.2 9.8 3.2 1.8 1.7 2.7 4 2.7 6.9v.1c0 4.5-2.5 7.5-6.2 9.1l7.2 10.3h-9.6l-6.1-9h-3.7v9h-8.3v-29.6zm13.9 14.3c2.8 0 4.5-1.4 4.5-3.5v-.1c0-2.3-1.7-3.5-4.5-3.5h-5.5v7.1h5.5z"/><path d="M156.7 179.3h8l12.8 29.8h-9l-2.2-5.3h-11.6l-2.2 5.3h-8.8l13-29.8zm7.3 18.2l-3.4-8.4-3.4 8.4h6.8zm17-17.9h24.1v7.1h-15.8v5.1h14.3v6.8h-14.3v10.6H181v-29.6zm35 7.1h-9v-7.1h26.4v7.1h-9v22.5H216v-22.5zm21.1-7.1h8.4v11h10.7v-11h8.3v29.6h-8.3v-11.3h-10.7v11.3h-8.4v-29.6zm32.1 14.8c0-8.6 7-15.5 16.3-15.5s16.2 6.8 16.2 15.3v.1c0 8.5-7 15.4-16.3 15.4-9.3.1-16.2-6.7-16.2-15.3m23.9 0c0-4.4-3.1-8.1-7.8-8.1-4.6 0-7.6 3.6-7.6 7.9v.1c0 4.3 3.1 8 7.7 8 4.7.1 7.7-3.6 7.7-7.9m12 1.8v-16.6h8.5V196c0 4.3 2.2 6.3 5.6 6.3s5.6-1.9 5.6-6.1v-16.7h8.5V196c0 9.6-5.6 13.8-14.1 13.8-8.7-.1-14.1-4.3-14.1-13.6m30.6 8.6l4.7-5.5c3 2.3 6.3 3.6 9.8 3.6 2.2 0 3.4-.8 3.4-2v-.1c0-1.2-1-1.9-5.1-2.8-6.4-1.4-11.4-3.2-11.4-9.3v-.1c0-5.5 4.4-9.5 11.7-9.5 5.1 0 9.1 1.3 12.4 3.9l-4.2 5.8c-2.8-1.9-5.8-2.9-8.4-2.9-2 0-3 .8-3 1.9v.1c0 1.4 1 2 5.2 2.9 6.9 1.5 11.2 3.7 11.2 9.2v.1c0 6-4.9 9.6-12.2 9.6-5.3 0-10.4-1.7-14.1-4.9m30.3-25.2h24.2v6.9h-16v4.5h14.5v6.5h-14.5v4.7h16.2v7H366v-29.6zm40.1 14.8c0-8.7 6.8-15.5 15.9-15.5 6.2 0 10.1 2.5 12.8 6.2l-6.3 4.8c-1.7-2.1-3.7-3.5-6.6-3.5-4.2 0-7.2 3.5-7.2 7.8v.1c0 4.4 3 7.9 7.2 7.9 3.1 0 5-1.4 6.8-3.6l6.3 4.4c-2.8 3.9-6.7 6.7-13.4 6.7-8.6.1-15.5-6.4-15.5-15.3m32.9-14.9h8.4v29.6H439v-29.6zm16 .1h7.8l12.4 15.6v-15.6h8.3v29.6h-7.4l-12.8-16.3v16.3H455v-29.6zm35.2 0h24.2v6.9h-15.9v4.5h14.4v6.5h-14.4v4.7h16.2v7h-24.5v-29.6zm30 0h8.8l7.2 11.4 7.2-11.4h8.9v29.6h-8.4v-17l-7.7 11.6h-.1l-7.7-11.5v16.9h-8.2v-29.6zm47-.3h8l12.8 29.8h-9l-2.2-5.3h-11.6l-2.2 5.3h-8.8l13-29.8zm7.3 18.2l-3.4-8.4-3.4 8.4h6.8z"/></svg>
