<?xml version="1.0" encoding="UTF-8"?>
<svg width="55px" height="27px" viewBox="0 0 55 27" version="1.1" xmlns="http://www.w3.org/2000/svg" xmlns:xlink="http://www.w3.org/1999/xlink">
    <!-- Generator: Sketch 63.1 (92452) - https://sketch.com -->
    <title>Group 17 Copy</title>
    <desc>Created with Sketch.</desc>
    <g id="Home-Page-+-Profile" stroke="none" stroke-width="1" fill="none" fill-rule="evenodd">
        <g id="NEW---user-profile---details2" transform="translate(-669.000000, -821.000000)">
            <g id="Group-17-Copy" transform="translate(669.000000, 816.000000)">
                <g id="groups-white-24dp">
                    <rect id="Rectangle" x="0.639534884" y="0" width="42.2093023" height="42.2093023"></rect>
                    <path d="M21.744186,22.4636628 C24.6109012,22.4636628 27.1434593,23.1703488 29.2011628,24.0944767 C31.1005814,24.9642442 32.2965116,26.9212209 32.2965116,29.0412791 L32.2965116,31.9767442 L11.1918605,31.9767442 L11.1918605,29.0593992 C11.1918605,26.9212209 12.3877907,24.9642442 14.2872093,24.1125969 C16.3449128,23.1703488 18.8774709,22.4636628 21.744186,22.4636628 Z M7.6744186,22.9166667 C9.60901163,22.9166667 11.1918605,21.2858527 11.1918605,19.2926357 C11.1918605,17.2994186 9.60901163,15.6686047 7.6744186,15.6686047 C5.73982558,15.6686047 4.15697674,17.2994186 4.15697674,19.2926357 C4.15697674,21.2858527 5.73982558,22.9166667 7.6744186,22.9166667 Z M9.66177326,24.9098837 C9.01104651,24.8011628 8.36031977,24.7286822 7.6744186,24.7286822 C5.93328488,24.7286822 4.28008721,25.1092054 2.78517442,25.7796512 C1.48372093,26.3594961 0.639534884,27.6641473 0.639534884,29.1318798 L0.639534884,31.9767442 L8.55377907,31.9767442 L8.55377907,29.0593992 C8.55377907,27.5554264 8.95828488,26.1420543 9.66177326,24.9098837 Z M35.8139535,22.9166667 C37.7485465,22.9166667 39.3313953,21.2858527 39.3313953,19.2926357 C39.3313953,17.2994186 37.7485465,15.6686047 35.8139535,15.6686047 C33.8793605,15.6686047 32.2965116,17.2994186 32.2965116,19.2926357 C32.2965116,21.2858527 33.8793605,22.9166667 35.8139535,22.9166667 Z M42.8488372,29.1318798 C42.8488372,27.6641473 42.0046512,26.3594961 40.7031977,25.7796512 C39.2082849,25.1092054 37.5550872,24.7286822 35.8139535,24.7286822 C35.1280523,24.7286822 34.4773256,24.8011628 33.8265988,24.9098837 C34.5300872,26.1420543 34.934593,27.5554264 34.934593,29.0593992 L34.934593,31.9767442 L42.8488372,31.9767442 L42.8488372,29.1318798 Z M21.744186,10.2325581 C24.6636628,10.2325581 27.0203488,12.6606589 27.0203488,15.6686047 C27.0203488,18.6765504 24.6636628,21.1046512 21.744186,21.1046512 C18.8247093,21.1046512 16.4680233,18.6765504 16.4680233,15.6686047 C16.4680233,12.6606589 18.8247093,10.2325581 21.744186,10.2325581 Z" id="Shape" fill="#FFFFFF" fill-rule="nonzero"></path>
                </g>
                <path d="M42.8488372,10.872093 L54.3604651,10.872093 M48.6046512,5.11627907 L48.6046512,16.627907" id="Combined-Shape" stroke="#FFFFFF" stroke-width="2"></path>
            </g>
        </g>
    </g>
</svg>