<?xml version="1.0" encoding="utf-8"?>
<!-- Generator: Adobe Illustrator 24.3.0, SVG Export Plug-In . SVG Version: 6.00 Build 0)  -->
<svg version="1.1" id="Layer_1" xmlns="http://www.w3.org/2000/svg" xmlns:xlink="http://www.w3.org/1999/xlink" x="0px" y="0px"
	 viewBox="0 0 116 116" style="enable-background:new 0 0 116 116;" xml:space="preserve">
<style type="text/css">
	.st0{fill-rule:evenodd;clip-rule:evenodd;fill:#FFFFFF;}
	.st1{fill:none;stroke:#FFFFFF;stroke-width:2;}
</style>
<desc>Created with Sketch.</desc>
<g id="Splitpages">
	<g id="Group-2" transform="translate(7.000000, 7.000000)">
		<g id="Fill-1-Copy-2">
			<g>
				<path id="path-1_1_" class="st0" d="M103.2,44h-1.7c-1.8-10.3-6.7-19.8-14.3-27.4C77.4,6.9,64.5,1.5,50.7,1.5S24,6.9,14.3,16.6
					C6.7,24.2,1.8,33.7,0,44h-1.2C-4.4,44-7,46.6-7,49.8v21.9c0,6,4.8,10.8,10.8,10.8h8.2V44H5.6c1.8-8.8,6.1-17,12.6-23.5
					C26.9,11.8,38.4,7,50.7,7s23.9,4.8,32.6,13.5C89.8,27,94.1,35.2,95.9,44h-5.8v38.5h8.2c6,0,10.8-4.8,10.8-10.8V49.8
					C109,46.6,106.4,44,103.2,44"/>
			</g>
		</g>
		<circle id="Oval-Copy-5" class="st1" cx="51" cy="51.5" r="49"/>
	</g>
</g>
</svg>
