<svg xmlns="http://www.w3.org/2000/svg" viewBox="0 0 1000 200"><path d="M980.2 147.2V34.7h19.8v112.6h-19.8v-.1zm-42.6 0V34.7h19.8v112.6h-19.8v-.1zm-16.7-40.6c0 27.1-13.6 41.7-38.6 41.7s-38.6-14.5-38.6-41.7S857.4 65 882.4 65s38.5 14.5 38.5 41.6zm-18.8 0c0-21.9-7.4-26-18.8-26s-18.8 4.1-18.8 26 7.4 26 18.8 26c10.5 0 18.8-4.1 18.8-26zM835.5 65v16.7c-10.5 0-22.9 0-22.9 5.2v60.5h-19.8v-72c1-12.5 42.7-10.4 42.7-10.4zM716.7 179.5c14.7-36.4 13.6-33.3 14.7-36.4L702.1 66H723l18.8 56.2L759.5 66h20.9l-31.2 83.3-11.4 30.2h-21.1zm-26-81.2v49h-19.8V97.2c0-7.4-2.1-14.5-19.8-14.5-4.6.2-9.2.8-13.6 2.1v62.6h-19.8V34.7h19.8v32.4c5.2-2.3 10.9-3.3 16.7-3.1 23.9 1 36.5 13.4 36.5 34.3zm-109.3 33.3c7.2-.3 14.2-1.6 20.9-4.2v16.7c-7.7 3.1-15.7 4.4-24 4.1-25 0-38.6-14.5-38.6-41.7s13.6-42.6 38.6-42.6c8.2.3 16.2 1.6 24 4.2v16.7c-6.7-2.6-13.7-3.9-20.9-4.1-13.6 0-21.9 4.1-21.9 25 0 21.7 8.3 25.9 21.9 25.9zm-54.3-35.4v51h-18.8v-51c0-7.4 0-14.5-16.7-14.5-5.2 0-15.7 1-15.7 4.1v61.4h-18.8V79.5c0-13.6 16.7-15.7 37.4-15.7 21.2 1.2 32.6 9.5 32.6 32.4zM438.6 66v44.8c0 24-8.3 38.6-36.4 38.6-28.1 0-35.5-14.5-35.5-38.6V66h18.8v46.9c0 13.6 5.2 17.6 16.7 17.6 11.4 0 16.7-4.1 16.7-17.6V66h19.7zm-87.5-1v16.7c-10.5 0-22.9 0-22.9 5.2v60.5h-19.8v-72c1.1-12.5 42.7-10.4 42.7-10.4zm-81.3 66.6c6.9-.2 13.6-1.6 19.8-4.2v16.7c-7.7 3.1-15.7 4.4-24 4.1-25 0-38.6-14.5-38.6-41.7s13.6-42.6 38.6-42.6c8.2.3 16.2 1.6 24 4.2v16.7c-6.4-2.5-13.1-3.9-19.8-4.1-13.6 0-21.9 4.1-21.9 25-1 21.7 8.5 25.9 21.9 25.9zM23 106.6c0-45.6 36.9-82.4 82.5-82.4 43 .2 78.6 33.2 82 76V95c0-51.8-42-93.8-93.8-93.8S0 43.4 0 95.2s42 93.6 93.8 93.6h6.2c-43.1-2.9-76.8-38.9-77-82.2z"/><path d="M150 110.7c-16.7 0-30.1-13.4-30.2-29.9 0-12.7 7.8-24 19.8-28.4-9.3-4.9-19.6-7.5-30.2-7.4-36.4 0-65.8 29.5-65.8 65.7s29.4 65.7 65.7 65.7S175 147 175 110.7c.2-4.2-.2-8.3-1-12.6-5 8.4-14.4 13.1-24 12.6z"/></svg>
