<svg xmlns="http://www.w3.org/2000/svg" viewBox="0 0 1000 540"><path d="M454.8 367.8h1c9 1 17.9 3 24.9 6 6 3 10 6 13 13 5 9 5 22.9 1 32.9-3 7-11 14-17.9 16.9-7 3-14 5-21.9 6-14 2-29.9-1-41.9-8-8-4-16.9-10-20.9-17.9-3-6-3-14 1-18.9 7-9 20.9-11 31.9-11 8 0 22.9 3 30.9 6 2 1 10 4 11 5s2 2 1 4c-2 5-15 8-18.9 9-10 2-15-2-26.9-7-3-1-7-2-10-3-5 0-12 1-13 7 0 3 3 6 6 7 6 3 11 4 16.9 4 17.9 0 37.9-3 52.8-13 2-1 4-4 4-6 0-5-9-9-9-9-10-4-27.9-6-37.9-7s-25.9-2-28.9-3c-4-1-8-1-11-3s-7-5-8-9c-2-7 0-15 4-19.9 10-14 32.9-19.9 49.8-21.9s43.9-2 59.8 7c3 1 4 3 3 5-1 5-5 8-10 10s-15 2-18.9 2c-19.9 1-43.9 1-61.8 6-1 0-4 1-5 2-3 3 5 4 7 4h1l41.9 4.8m-117.6-87.7s3-5 6-8c5-7 14-15.9 19.9-21.9l4-4s-4 0-6 1c-5 1-13 6-15.9 9-6 5-13 14-10 20.9 2 2 2 3 2 3m33.9 9c10-1 18.9-3 26.9-8s19.9-14 18.9-23.9c0-3-3-6-5-7-4-2-6-1-10 0-3 1-5 2-8 3-10 6-22.9 16.9-29.9 26.9-2 2-3 5-5 6-1 1-2 2-1 2 .1 2 10.1 1 13.1 1m-24 17.9c-1 1-2 4-3 5s-2 2-2 3c-3 2-5 2-7 0-3-3-5-8-6-12v-6c-1-3-3-6-5-8-2-3-3-9-3-12-1-11 5-20.9 13-29.9 8-8 17.9-15 28.9-19.9 10-4 25.9-7 36.9-3 4 1 9 4 11 8l2 2c1 0 2 0 3 1 4 1 9 3 11 5 4 4 7 7 8 12 2 10-4 21.9-11 28.9-12 12-22.9 19.9-37.9 25.9-7 3-16.9 5-23.9 4-2 0-5-1-7-1-1 0-5-1-6-1l-2-2m13 23s1 0 2 1c5 2 7 7 9 12 3 12 4 38.9 5 49.8 0 8 1 15.9 1 23.9 0 7 1 15.9-1 21.9-1 2-2 5-4 6-2 2-8 2-11 1-8-2-10-6-11-14-3-17.9-1-52.8 0-67.8 1-5 2-20.9 5-26.9 0-2.9 2-6.9 5-6.9m-230.3 29.9s-11 1-18.9 2c-10 1-28.9 4-38.9 8-3 1-10 4-10 7-1 3 2 6 4 9 1 2 9 9 11 11 9 8 27.9 18.9 40.9 24.9 5 2 12 5 12 5s-1-21.9 0-43.9l-.1-23m206.4 8.9c1 6-1 16.9-1 18.9 0 3-3 11-3 12-2 5-4 9-6 13-4 7-13 16.9-17.9 21.9-18.9 16.9-49.8 25.9-74.8 29.9-17.9 2-37.9 2-55.8-2-6-1-15.9-3-15.9-3v6c0 1-1 4-2 5-1 3-4 4-7 5-4 1-8 1-12-1-6-2-8-8-9-14-1-5-2-14-2-14l-8-4c-11-6-21.9-12-30.9-18.9-3-2-14-11-15.9-14-7-7-13-13-17.9-21.9-4-7-5-12-2-18.9 4-10 17.9-16.9 26.9-20.9 7-3 28.9-10 37.9-11 4-1 11-2 11-2s1-10 0-13c0-3 3-25.9 3-30.9 0-3 2-13 4-15 1-2 4-2 6 0 10 6 13 28.9 14 39.9 0 7 1 16.9 1 16.9h18.9c7 0 15 1 21.9 2 9 2 27.9 6 37.9 11 9 4 16.9 12 18.9 19.9 2 7 2 12-2 18.9-4 7-12 13-19.9 13-2 0-11-1-14-3 1-3 1-5 1-6 0 0 5-3 7-4 1-1 2-1 3-2 2-2 4-4 4-6 0-3-4-5-7-6-14-6-42.9-10-56.8-11-5 0-13-1-13-1l2 76.7s6 1 11 2c3 0 15 2 17.9 2 24.9 1 51.8-2 74.8-12 10-5 18.9-11 25.9-17.9 9-10 14-24.9 13-39.9-1-15.9-13-35.9-21.9-47.8-23.9-30.9-65.8-56.8-102.7-71.8S105 226 65.2 224c-10 0-32.9 0-43.9 3-2 0-3 1-5 1-1 0-3 1-4 1l-1 1s1 0 1 1c1 1 6 1 9 1 2 0 5 2 6 3 1 2 1 3 0 4-3 3-12 3-15.9 2-4-1-10-2-11-6-1-5 1-9 3-13 5-8 11-12 20.9-15 14-4 30.9-6 43.9-7 29.9-1 57.8 4 85.7 13 15.9 5 37.9 13 53.8 20.9 11 5 28.9 15 38.9 21.9 3 2 21.9 15.9 23.9 17.9 6 5 14 12 18.9 17.9 11 11 24.9 26.9 30.9 40.9 2 3 3 6 5 10 1 1 4 9 4 11s1 5 1 5c4.9 1.4 5.9 7.4 5.9 10.3M708 351.9c-14 3-49.8 5-49.8 5l-5 14s17.9-2 30.9 0c0 0 4 0 5 5v10s0 3-5 4-38.9 2-38.9 2l-6 18.9s-2 4 3 3c4-1 39.9-8 44.9-7s11 8 9 14c-2 8-37.9 29.9-59.8 28.9 0 0-11 1-20.9-15-9-15 3-42.9 3-42.9s-6-13-2-16.9c0 0 2-2 10-3l9-17.9s-10 1-15.9-7c-6-7-6-10-2-12 5-2 45.9-10 74.8-9 0 0 10-1 18.9 15.9-1.3 1 3.7 8-3.2 10m-107.7 69.8c-4 9-13 17.9-24.9 12-12-6-30.9-44.9-30.9-44.9s-7-14-9-14c0 0-2-3-3 13-1 15.9 0 45.9-6 50.8s-13 3-16.9-3c-3-6-5-18.9-3-41.9s8-47.8 15-55.8 12-2 15 0c0 0 9 8 24.9 32.9l3 5s14 22.9 15 22.9c0 0 1 1 2 0 1 0 1-8 1-8s-3-24.9-15.9-67.8c0 0-2-5-1-10s6-3 6-3 19.9 10 28.9 41.9c9.8 32 2.8 60.9-.2 69.9m210.3-19c-9 15.9-33.9 47.8-67.8 39.9-11 26.9-19.9 53.8-25.9 93.7 0 0-1 8-8 5-6-2-16.9-12-18.9-26.9-2-19.9 6-52.8 23.9-90.7-5-8-9-20.9-6-37.9 0 0 4-31.9 36.9-60.8 0 0 4-3 6-2s1 11-1 15.9c-2 5-15.9 29.9-15.9 29.9s-9 16.9-6 29.9c16.9-25.9 54.8-77.7 78.7-61.8 8 6 12 17.9 12 30.9s-3 25-8 34.9m-7-40.8s-1-10-11 1c-9 10-23.9 27.9-36.9 51.8 13-1 25.9-9 29.9-12 5.1-5.9 20-20.9 18-40.8m190.4-3h-60.8c-1-20.9-4-40.9-8-61.8 0-2-2-4-4-4h-14c-1 0-2 1-3 2s-1 2-1 3c4 19.9 7 39.9 8 60.8h-58.8c-3 0-5 2-5 5v13c0 3 2 5 5 5h59.8v9c0 17.9-1 33.9-3 50.8 0 1 0 3 1 4s2 2 3 2h13c3 0 5-2 5-4 2-16.9 3-32.9 3-50.8v-9H995c3 0 5-2 5-5v-13c-1-4-3-7-6-7M176.7 188.4c-1 1-1 3-1 4 1 1 2 3 3 3l11 4h2c2 0 4-1 5-3 35.9-51.8 84.7-95.7 140.5-125.6C395 39.9 460.8 23 526.5 23c79.7 0 157.5 23.9 223.3 67.8 64.8 43.9 114.6 104.7 144.5 175.4 1 2 3 4 5 4h13c2 0 3-1 4-2s1-3 0-4c-30.9-76.7-83.7-142.5-152.5-189.4C695 27 612.3 1 526.5 1 386 1 254.4 70.8 176.7 188.4"/></svg>
