<svg xmlns="http://www.w3.org/2000/svg" viewBox="0 0 1000 132.8"><path d="M126.3 132.4c-4.2-.4-8.4-1.2-12.5-2.4-15.2-4.6-26.3-16.5-30.5-32.9-2-7.7-1.9-5.8-2.1-51.2l-.1-42.3h17.4V44c0 26.5.1 41.6.4 44 1.5 13.5 9.6 22.8 24 27.3 7.1 2.2 12.7 2.3 19.6.3 12.4-3.6 19.8-11.3 22.3-23.4.7-3.7.8-4.8.8-46.2V3.6h18.5v41.5c0 45 0 45.2-2 52.7-4.5 16.6-16 28.4-31.8 32.6-7.3 1.9-16.7 2.7-24 2zm440.7 0c-7.2-.7-14.4-2.8-19.4-5.7-3.4-2-8.2-6.5-10.3-9.5-1.9-2.8-4.1-7.6-4.9-10.6-1.1-4.3-1.5-10.7-1-15.5.8-8 3-13.5 7.4-18.2 5.5-5.9 11.5-9.3 21.4-12.2 5.9-1.7 10.6-2.5 25.2-4.3 19.4-2.4 21.5-2.7 23.8-3.6 2.7-1 4.9-3.3 6.1-6.1.8-1.9.9-2.8.9-7.4 0-4.4-.1-5.6-.9-8-2.6-8.3-8.6-13-19-14.6-15-2.3-27.7.4-34.9 7.4-4.1 4-6.9 11.4-6.9 18.2v1.9h-18.1v-.8c0-3.5 1.5-11.2 3-15.6 3.5-10.3 12.2-19.1 22.6-23.2 8.9-3.4 20.7-5 31.7-4.1 14.8 1.2 22.7 4.2 29.8 11.3 5.3 5.3 7.8 9.8 9.7 17.5.5 2.2.6 7 .8 41 .2 38.1.2 38.5 1 40 1.8 3.5 6.4 4.4 11.4 2.3l1.4-.6v16.2l-3.1.5c-3.8.6-12 .6-14.7 0-4.5-1-8.3-3.9-10.2-7.8-1.1-2.2-2-6.1-2-8.5 0-.9-.2-1.5-.3-1.5s-1.3 1.4-2.5 2.9c-6.8 8.5-13.2 13.3-21.7 16.1-7.5 2.5-17 3.4-26.3 2.5zm16.4-15.7c14-2.4 24.3-9.7 29.6-21 2.7-5.8 3-7.9 3.2-20.2.1-6 .1-10.8 0-10.8s-.9.3-1.8.7c-3.5 1.5-12.5 3.3-27 5.2-23.7 3.2-35 8.8-37.6 18.7-.7 2.5-.7 8.1 0 10.8 2.2 8.4 9.8 14.9 19.5 16.8 2.8.5 10.3.4 14.1-.2zm101.4 13.5c-11.1-1.3-17.2-6-19.4-14.7-1.2-4.8-1.3-7.6-1.3-51.7V19.5h-21.5V3.9H707v15.6h-25.2v41.4c0 39.3.1 44.6 1.1 48.2.9 3.4 3.4 5.3 7.8 6 2.2.3 12.8-.1 15.2-.6l1-.2v15.9l-6.7.2c-7.9.2-12.1.2-15.4-.2zM.1 84.2c.2-49.5 0-47.1 2.3-54.7C7.8 11.8 22.5 1.9 45.7.2c7-.5 16.8.1 22.4 1.3l.8.2v16.9l-3.4-.5c-2-.3-6.6-.5-11.2-.6-6.8 0-8.3.1-11.6.8-11.6 2.5-18.8 8-22.3 16.9-1.7 4.5-2.2 8.2-2.1 17.4l.1 8.1 21 .1 21 .1v16.7H18.6v51.8H0l.1-45.2zm198.1-17.5V3.9h18.1l.1 8.2.1 8.2 1.3-2c1.8-2.8 6.7-7.6 10.2-9.9 5.5-3.7 12.3-6.4 18.9-7.5 3.4-.6 13.5-.5 18 .1 17.8 2.4 29.5 11.8 33.5 27.1 2.2 8.5 2.2 6.5 2.3 56l.1 45.5H283l-.1-42.7c-.2-46-.1-45.6-2.1-52.3-2.6-8.7-8.4-14.6-16.7-17.2-5.8-1.8-14.9-1.8-21.3 0-11.8 3.3-20.6 12.5-24.3 25.4-2 7.1-2 6.8-2 48.4v38.4h-18.1l-.2-62.9zm115.9 0V3.9h18.1v125.5h-18.1V66.7zm33.3 0V3.9h16.7l.1 8.6.1 8.6 2.1-2.7C373 9.5 380.7 4.1 390 1.9c11.8-2.8 23.7-1.8 33.2 2.9 6.6 3.3 11.1 7.6 14.2 13.6.8 1.6 1.6 2.9 1.6 2.9.1 0 .9-1.2 1.8-2.6 6.1-9.1 15.7-15.2 28.2-17.6 4-.8 13.3-.9 17.8-.2 10.1 1.6 17.2 5 22.7 11 6 6.6 9.2 15.4 10 27.8.2 3 .4 24.4.4 47.6v42.1h-18.1V85.7c0-27.9-.1-44.9-.4-46.9-1.2-10-5.2-16.8-11.5-19.8-3.5-1.6-6.1-2.3-11-2.8-15.2-1.6-26.7 4.6-32.1 17.4-1.5 3.7-2.2 6.1-3.2 11.2-.8 4.1-.8 5-.9 44.5l-.1 40.3h-18.1l-.1-46.4-.1-46.4-.8-3.1c-1.7-6.6-5.2-11.7-9.5-14.3-4.7-2.8-10.7-3.9-17.3-3.2-8.7.9-14.3 3.4-19.8 8.7-5.5 5.5-8.9 12.8-10.8 23.5-.5 3-.6 8.4-.8 42.3l-.2 38.8h-17.7V66.7zm374.1 0V3.9h17.8v125.5h-17.8V66.7zm88.1 62.3c-7.4-1.1-13.9-3.1-20.2-6.2-31.7-15.8-44.9-53.8-29.8-85.9C772.5 9.7 802.9-5 832.5 1.6c24.8 5.6 43.8 25 49.3 50.4 1 4.7 1.4 15.5.7 20.8-.9 7.2-3.1 14.3-6.4 20.9-3.5 7.1-7.1 11.9-13.4 18-9.5 9.1-20.2 14.5-33.7 17-4.2.7-15 .9-19.4.3zm15.9-25.3c3.8-.8 9-3.3 11.5-5.7 2.4-2.3 4.6-5.7 5.6-8.7.4-1.3.8-2.4.8-2.6 0-.2-11.2-.3-24.9-.3h-24.9l.2 1.4c.4 2.2 2.7 6.6 4.8 8.8 3.2 3.5 7.4 5.8 12.7 7 3.1.8 10.7.8 14.2.1zm71.9-37V3.9h17.8l.1 8.2.1 8.2 1.9-2.6c6.3-8.5 16.1-14.4 27.5-16.7 4.7-.9 15.4-.8 21.2.2 17.6 3.1 28.2 12.4 31.8 27.9 2 8.5 2 7.4 2.1 55.6l.1 44.7h-18.2V87.8c0-44.5-.1-46.3-1.9-52.8-2.8-10-9.4-16.2-19.5-18.4-3.5-.8-11.8-.9-15.3-.2-14.3 2.7-24.4 12.8-28.3 28.3-1.6 6.3-1.7 9.1-1.7 47.9v36.8h-17.8l.1-62.7z"/></svg>