<svg xmlns="http://www.w3.org/2000/svg" viewBox="0 0 16 16"><path d="M1.932 2.787C5.651-1.541 12.547-.687 15.124 4.369H8.929c-1.116 0-1.837-.025-2.617.386a3.69 3.69 0 00-1.851 2.43L1.932 2.787z"/><path d="M5.339 8a2.662 2.662 0 002.659 2.66A2.662 2.662 0 0010.657 8a2.662 2.662 0 00-2.659-2.66A2.661 2.661 0 005.339 8z"/><path d="M9.029 11.482c-1.492.443-3.239-.048-4.195-1.7-.73-1.26-2.66-4.621-3.536-6.15C-1.774 8.34.873 14.755 6.449 15.85l2.58-4.368z"/><path d="M10.467 5.339a3.642 3.642 0 01.672 4.479c-.634 1.094-2.659 4.511-3.64 6.165 5.745.354 9.933-5.276 8.041-10.645l-5.073.001z"/></svg>