<svg data-name="svg2" xmlns="http://www.w3.org/2000/svg" viewBox="0 0 80.282 32.457"><g data-name="Layer_1"><g data-name="111644264"><g data-name="g11"><path data-name="134052944" d="M60.303 23.074a6.255 6.255 0 10-6.253-6.254 6.256 6.256 0 006.253 6.254z"/><g data-name="g14"><path data-name="134045216" d="M13.886 20.803v11.445h8.486V1.517h-8.486v11.571h-5.4V1.517H0v30.731h8.486V20.803h5.4z"/><path data-name="121531200" d="M44.666 16.82A15.64 15.64 0 0159.424 1.202h1.756A15.64 15.64 0 1144.666 16.82zm15.637 7.819a7.82 7.82 0 10-7.818-7.82 7.82 7.82 0 007.818 7.82z"/><path data-name="134053168" d="M37.16 1.517c2.315 0 8.87 1.288 8.87 7.842 0 5.271-2.536 6.844-4.498 7.202-1.417.259 4.239 0 4.239 6.554 0 9.392-8.226 9.133-8.226 9.133H24.169V1.517h12.99zM31.756 9v4.629h4.501a2.216 2.216 0 001.805-2.43A1.929 1.929 0 0036.196 9zm0 11.316v4.63h4.501a2.221 2.221 0 001.806-2.433 1.928 1.928 0 00-1.867-2.197z"/></g></g><path data-name="128645496" d="M76.211 5.358h-.8v-3.75h1.403c.966 0 1.53.273 1.53 1.13a.878.878 0 01-.895.983l.963 1.637h-.955l-.868-1.58h-.378zm.71-2.212c.362 0 .566-.077.566-.486 0-.39-.408-.42-.712-.42h-.564v.906zm-.127 3.82a3.374 3.374 0 01-3.508-3.477 3.498 3.498 0 016.996 0 3.362 3.362 0 01-3.488 3.477zm0-6.156a2.517 2.517 0 00-2.501 2.678 2.507 2.507 0 002.502 2.668v.011a2.542 2.542 0 002.496-2.679A2.535 2.535 0 0076.794.81z"/></g></g></svg>