<svg xmlns="http://www.w3.org/2000/svg" viewBox="0 0 1000 173.6"><path d="M123.6 172.7H77.2v-65.4h-30v65.4H0V2.8h47.3v63.6h30V2.8h46.3v169.9c-.9 0 0 0 0 0zm210.8.9c47.3 0 85.4-39.1 85.4-87.2 0-49.1-38.2-86.3-85.4-86.3-48.2 0-71.8 34.5-78.2 49.1 0-20.9-20.9-46.3-45.4-46.3h-79.1v169.9h73.6c30 0 50.9-25.4 50.9-48.2 7.3 13.6 30.1 49 78.2 49zm-134.5-69.1c7.3 0 12.7 6.4 12.7 14.5s-5.5 14.5-12.7 14.5h-23.6v-29.1c0 .1 23.6.1 23.6.1zm0-63.6c7.3 0 12.7 6.4 12.7 14.5S207.1 69 199.9 69h-23.6V40.9h23.6zm30.9 45.5c5.5 0 14.5-6.4 18.2-10-.9 4.5-.9 19.1 0 23.6-3.6-6.4-12.7-12.7-18.2-13.6zm60.9 0c0-23.6 19.1-42.7 43.6-42.7 23.6 0 42.7 20 42.7 43.6S359 130 335.3 130c-24.5-.9-43.6-20-43.6-43.6zm42.7 33.6c18.2 0 33.6-15.4 33.6-33.6s-15.4-33.6-33.6-33.6c-19.1 0-33.6 14.5-33.6 33.6s14.5 33.6 33.6 33.6zm331.7-57.3c-.9-40.9-30-62.7-65.4-62.7-19.1 0-37.3 6.4-49.1 19.1C539.8 6.4 521.6 0 502.5 0c-35.4 0-64.5 21.8-65.4 62.7v93.6c0 8.2 7.3 15.4 15.4 15.4H467c1.8 0 2.7-.9 2.7-2.7V63.6c.9-20 15.4-30.9 32.7-30.9 18.2 0 31.8 10.9 32.7 30.9v93.6c0 9.1 7.3 15.4 15.4 15.4H565c1.8 0 2.7-.9 2.7-2.7V62.7c.9-20 14.5-30.9 32.7-30.9 18.2 0 31.8 10.9 32.7 30.9v93.6c0 8.2 7.3 15.4 15.4 15.4H663c1.8 0 2.7-.9 2.7-2.7V62.7zM997.8 2.8h-25.4c-7.3 0-13.6 3.6-17.3 9.1l-27.3 40.9c-3.6 5.5-11.8 5.5-15.4 0l-27.3-40.9c-3.6-5.5-10-9.1-17.3-9.1h-25.4c-1.8 0-2.7 1.8-1.8 2.7l49.1 72.7c3.6 5.5 3.6 11.8 0 17.3l-49.1 72.7c-.9.9 0 2.7 1.8 2.7h25.4c7.3 0 13.6-3.6 17.3-9.1l27.3-40.9c3.6-5.5 11.8-5.5 15.4 0l27.3 40.9c3.6 5.5 10 9.1 17.3 9.1h25.4c1.8 0 2.7-1.8 1.8-2.7l-49.1-72.7c-3.6-5.5-3.6-11.8 0-17.3l49.1-72.7c1-.9 0-2.7-1.8-2.7zm-168.1 0h-14.5c-7.3 0-13.6 5.5-15.4 11.8C787 5.5 770.6 0 752.5 0c-42.7 0-78.2 30-78.2 86.3s34.5 86.3 78.2 86.3c17.3 0 33.6-5.5 47.3-14.5.9 8.2 7.3 14.5 15.4 14.5h14.5c1.8 0 2.7-.9 2.7-2.7V5.5c0-1.8-.9-2.7-2.7-2.7zm-77.2 138.1c-25.4 0-46.3-19.1-46.3-54.5s20.9-54.5 46.3-54.5 46.3 19.1 46.3 54.5-20 54.5-46.3 54.5z"/></svg>