<svg width="1000" height="179.41" viewBox="31.8 202.1 858 154" xmlns="http://www.w3.org/2000/svg"><path d="M635.4 343.8c-35.3 0-61.6-29.1-61.6-64.9 0-35.7 26.3-62.5 61.6-62.5s61.6 26.7 61.6 62.4c0 35.8-26.3 65-61.6 65zm0-135.8c-40.2 0-71.7 30.3-71.7 70.7 0 41 30.8 73.1 71.7 73.1s71.7-32.1 71.7-73.1-30.8-70.7-71.7-70.7zm244.1 2.6l-39 122.6-37.6-121.4-.4-1.2h-7l-37.2 122.6-39.1-121.5-.3-1.1h-10.3l44.1 138.7h10.9l35.5-116.7 35.5 116.7h10.7l44.3-138.7zM534.8 333.2l-90.1-122.5h-13.2v138.7h9.7V222.7L534 349.4h10.5V210.7h-9.7zm-393.4 22.2h-40.9v-58.5H73.9v58.5h-42l-.1-150.7H74v56h26.6v-56h40.9v150.7zm187.5.6c42.2 0 76.5-35.1 76.5-77.3 0-43.1-34.3-76.6-76.5-76.6-42.1 0-63.7 31-69 43.5 0-18.8-18.5-41-40.2-41h-69.8v150.6H215c26.3 0 44.9-22.7 45-42.2 6 12.3 26.8 43 68.9 43m-119.3-61.2c6 0 10.8 5.9 10.8 12.7s-4.7 12.7-10.8 12.7h-20.7v-25.5zm.1-56.6c6 0 10.8 5.9 10.8 12.7s-4.7 12.7-10.8 12.7H189v-25.5h20.7zm27.5 40.6c4.7-.6 12.7-6 15.4-9.5-1 4.3-1.1 16.7.1 21-3.1-4.8-10.7-10.9-15.5-11.5m53.4 0c0-21.2 17.2-38.3 38.3-38.3 21.2 0 38.3 17.2 38.3 38.3 0 21.2-17.2 38.3-38.3 38.3-21.1.1-38.3-17.1-38.3-38.3m38.3 30.2c16.6 0 30.1-13.5 30.1-30.1s-13.5-30.1-30.1-30.1-30.1 13.5-30.1 30.1 13.5 30.1 30.1 30.1"/></svg>