<?xml version="1.0" encoding="UTF-8" ?>
<!DOCTYPE svg PUBLIC "-//W3C//DTD SVG 1.1//EN" "http://www.w3.org/Graphics/SVG/1.1/DTD/svg11.dtd">
<svg viewBox="0 0 772 173" version="1.1" xmlns="http://www.w3.org/2000/svg">
<g id="#010101fd">
<path fill="#010101" opacity="1.00" d=" M 34.57 0.00 L 37.09 0.00 C 36.98 16.89 36.92 33.79 36.89 50.68 C 44.02 46.52 51.04 41.19 59.58 40.59 C 76.79 37.94 96.33 41.06 108.68 54.31 C 115.58 62.21 119.60 72.54 119.72 83.05 C 120.47 112.34 119.94 141.66 119.91 170.96 C 107.97 171.17 96.03 171.13 84.10 170.92 C 83.48 144.30 84.65 117.67 83.79 91.06 C 83.62 83.50 79.82 75.67 73.03 71.99 C 64.51 68.27 54.15 68.27 46.01 73.01 C 40.94 75.65 36.40 80.93 37.16 87.02 C 36.36 114.98 37.54 142.96 36.91 170.93 C 24.61 171.05 12.30 171.11 0.00 171.01 L 0.00 12.59 C 11.46 8.23 23.13 4.44 34.57 0.00 Z" />
<path fill="#010101" opacity="1.00" d=" M 284.36 18.34 C 296.35 13.66 308.40 8.98 320.85 5.69 C 320.95 17.74 321.05 29.78 321.09 41.83 C 330.05 42.03 339.01 41.98 347.97 42.18 C 348.06 51.73 348.05 61.28 348.04 70.83 C 339.06 71.03 330.08 70.98 321.11 71.20 C 321.18 92.98 320.09 114.81 321.56 136.55 C 322.00 140.61 326.71 142.09 330.06 143.00 C 338.05 143.72 345.94 141.63 353.15 138.34 C 351.83 148.90 349.75 159.34 347.67 169.77 C 343.69 170.94 339.69 172.08 335.64 173.00 L 315.42 173.00 C 301.22 170.81 287.74 160.50 285.28 145.83 C 282.33 121.14 284.90 96.17 283.89 71.36 C 278.60 71.13 273.32 70.91 268.04 70.68 C 267.96 61.24 267.95 51.80 268.00 42.36 C 273.25 42.13 278.52 41.91 283.78 41.68 C 284.09 33.90 284.01 26.12 284.36 18.34 Z" />
<path fill="#010101" opacity="1.00" d=" M 482.63 17.76 C 494.25 13.43 505.99 9.41 517.85 5.76 C 517.94 17.79 518.05 29.82 518.10 41.85 C 527.38 42.10 536.67 41.94 545.97 42.18 C 546.06 51.72 546.05 61.26 546.04 70.80 C 536.79 71.07 527.53 71.02 518.30 71.41 C 517.88 92.13 517.32 112.89 518.48 133.59 C 518.59 138.94 523.83 143.11 529.00 143.06 C 536.75 143.60 544.03 140.99 551.07 138.16 C 549.20 148.49 548.19 159.03 545.04 169.08 C 541.80 171.61 537.43 171.96 533.62 173.00 L 513.48 173.00 C 507.15 171.33 500.67 169.56 495.29 165.69 C 488.00 159.88 482.69 151.33 482.52 141.79 C 480.93 118.44 482.88 95.00 481.62 71.63 C 476.42 71.28 471.23 70.94 466.05 70.62 C 465.97 61.20 465.94 51.78 465.99 42.36 C 471.23 42.14 476.47 41.91 481.73 41.68 C 482.18 33.71 482.11 25.72 482.63 17.76 Z" />
<path fill="#010101" opacity="1.00" d=" M 135.52 94.47 C 138.82 64.78 165.88 39.55 196.01 39.99 C 215.38 38.51 235.59 45.75 248.21 60.79 C 270.53 86.14 269.96 128.35 247.27 153.28 C 237.14 164.08 223.05 170.55 208.58 173.00 L 190.55 173.00 C 182.44 171.24 174.18 169.33 166.99 165.00 C 154.65 158.80 145.48 147.49 140.08 134.95 C 134.21 122.41 134.51 107.97 135.52 94.47 M 197.42 70.55 C 179.99 70.42 170.36 89.62 170.95 105.00 C 170.25 118.91 175.56 136.05 190.10 140.92 C 200.21 143.63 212.72 142.40 219.69 133.70 C 229.14 121.81 229.82 105.05 226.11 90.90 C 222.64 78.61 210.67 68.45 197.42 70.55 Z" />
<path fill="#010101" opacity="1.00" d=" M 400.07 41.11 C 420.51 38.55 441.92 41.52 460.18 51.31 C 456.89 61.02 453.53 70.71 449.55 80.16 C 443.65 77.81 437.89 75.11 431.83 73.21 C 421.77 70.01 410.97 70.55 400.63 71.63 C 397.03 72.20 393.09 74.92 393.12 78.90 C 393.83 82.81 397.90 84.60 401.22 85.87 C 414.08 90.12 427.77 91.11 440.64 95.36 C 452.18 99.70 463.25 108.42 466.12 120.95 C 468.02 132.61 467.12 145.78 459.15 155.16 C 448.53 167.24 431.80 170.75 416.57 173.00 L 392.59 173.00 C 379.59 170.71 366.37 168.21 354.66 161.82 C 358.03 152.57 362.32 143.71 367.13 135.13 C 378.10 138.87 389.19 143.52 401.00 143.13 C 409.30 142.82 418.62 143.99 425.79 138.78 C 428.70 136.29 432.34 131.99 430.08 127.97 C 427.20 123.20 421.40 121.34 416.38 119.62 C 400.00 115.54 382.47 113.38 368.02 103.96 C 362.54 99.69 357.34 93.90 356.22 86.83 C 355.75 78.48 355.16 69.32 360.03 62.02 C 368.20 48.05 384.95 42.85 400.07 41.11 Z" />
<path fill="#010101" opacity="1.00" d=" M 565.97 55.13 C 577.40 46.90 590.75 40.68 604.99 39.98 C 620.66 39.45 637.75 40.62 651.01 49.98 C 663.24 57.53 670.65 71.78 670.76 86.05 C 671.45 114.32 670.91 142.62 670.93 170.91 C 658.88 171.27 646.83 171.11 634.79 170.75 C 634.46 169.23 633.79 166.19 633.46 164.67 C 626.51 168.26 619.30 171.46 611.60 173.00 L 593.52 173.00 C 586.06 171.23 578.52 169.20 572.11 164.84 C 557.69 156.55 549.02 139.56 550.90 123.00 C 550.81 111.27 555.98 99.51 565.67 92.67 C 585.36 78.51 612.20 78.49 634.60 85.48 C 632.47 79.23 628.60 73.07 621.89 71.10 C 608.43 66.30 594.36 71.86 582.22 77.71 C 576.54 70.38 570.87 63.01 565.97 55.13 M 593.21 113.23 C 585.35 118.67 585.31 131.33 593.22 136.75 C 605.42 145.10 622.88 143.36 634.09 133.99 C 633.86 127.67 633.98 121.34 634.14 115.03 C 622.83 105.87 605.37 105.45 593.21 113.23 Z" />
<path fill="#010101" opacity="1.00" d=" M 729.23 46.72 C 741.84 38.41 759.15 37.15 772.00 45.58 L 772.00 46.40 C 768.08 55.08 764.66 63.97 760.73 72.64 C 753.74 71.07 746.57 67.76 739.38 70.28 C 732.34 71.70 727.23 78.86 728.19 86.04 C 727.38 114.32 728.49 142.62 727.93 170.91 C 715.64 171.17 703.36 171.19 691.09 170.94 C 690.88 127.99 690.95 85.04 691.07 42.09 C 698.39 41.89 705.72 41.74 713.07 41.82 C 718.36 42.85 726.79 39.91 729.23 46.72 Z" />
</g>
</svg>
