<svg xmlns="http://www.w3.org/2000/svg" viewBox="0 0 1000.4 329.5"><path d="M612.8 329.5h79.5V0h-79.5v329.5zm-140-93.7c0 11.8-9.5 21.3-21.3 21.3h-46.2c-11.8 0-21.3-9.5-21.3-21.3v-133h-79.5v139.6c0 57 36.5 87.1 90.5 87.1h77.8v-.4c49.7 0 79.5-35.4 79.5-86.7V102.8h-79.5v133zm448.1-133v133c0 11.8-9.5 21.3-21.3 21.3h-46.2c-11.8 0-21.3-9.5-21.3-21.3v-133h-79.5v139.6c0 57 36.5 87.1 90.5 87.1h77.8v-.4c49.7 0 79.5-35.4 79.5-86.7V102.8h-79.5zm-763.6 0h-51c-17.9 0-26.9 4.8-26.9 4.8V0H0v329.5h79.5v-133c0-11.8 9.5-21.3 21.3-21.3H147c11.8 0 21.3 9.5 21.3 21.3v133h79.5V186.3c-.1-60.3-40.3-83.5-90.5-83.5z"/></svg>