<svg data-name="Layer 1" xmlns="http://www.w3.org/2000/svg" viewBox="0 0 2083.686 559.637"><path d="M87.34 547.728V246.593a12.836 12.836 0 013.045 5.28q48.414 138.985 96.652 278.03c1.712 4.952 4.006 5.31 8.297 4.799 20-2.386 40.027-4.53 60.046-6.75 9.858-1.094 19.719-2.164 29.43-3.228V.48h-87.554v313.309a7.334 7.334 0 01-2.194-3.445Q140.022 157.817 85.08 5.253c-1.402-3.896-3.12-5.29-7.36-5.25C53.56.232 29.395.109 5.23.128c-1.748 0-3.496.177-5.23.27v559.217zM1772.203.28c.705 1.912 1.14 3.144 1.612 4.362Q1822.867 131.177 1872 257.68a13.03 13.03 0 01-.287 10.863q-47.39 109.45-94.528 219.009l-14.49 33.599 92.152 9.616 64.657-149.757c1.246 2.906 2.065 4.664 2.764 6.469q29.745 76.763 59.382 153.568c1.517 3.946 3.587 5.528 7.79 6.043 21.473 2.632 42.903 5.619 64.346 8.495 9.687 1.3 19.37 2.63 29.84 4.052-.75-2.267-1.188-3.811-1.766-5.301q-55.127-142.109-110.344-284.182a12.51 12.51 0 01.195-10.403q54.616-126.165 109.013-252.424c.949-2.199 1.822-4.43 2.962-7.213h-5.917c-28.327 0-56.654.105-84.98-.113-4.231-.033-5.998 1.462-7.582 5.164q-28.472 66.517-57.257 132.901c-1.156 2.679-2.459 5.294-4.101 8.81L1866.997.28zM457.623 205.065V86.926h155.261V.47H369.676v515.46l243.202-18.064v-85.948l-155.257 10.578v-131.26h117.755a18.079 18.079 0 00.509-2.454c.026-26.83-.006-53.662.103-80.492.013-3.216-1.32-3.909-4.188-3.876q-35.477.411-70.956.635c-14.295.088-28.59.017-43.222.017zM1085.39 86.86h156.498V.47H997.845v485.354h87.54v-199.21h118.395V200.08h-118.39zm-144.643.284V.475H669.97v86.688h91.583v404.196l87.808-2.736V87.143zM1298.895.192c-.1 2.014-.235 3.487-.235 4.959q-.015 240.219-.103 480.438c-.003 4.286 1.51 5.263 5.405 5.417 37.927 1.491 75.856 2.979 113.768 4.794 29.598 1.417 59.174 3.29 88.76 4.973 9.928.565 19.854 1.167 30.074 1.77V415.96c-47.872-2.608-95.403-5.222-142.938-7.762-7.342-.392-7.353-.234-7.353-7.4V.192zm397.993.197h-87.13v507.434l87.13 7.191z"/><path d="M87.34 547.728L0 559.614V.398C1.734.304 3.482.128 5.23.127 29.394.109 53.56.232 77.721.004c4.239-.04 5.958 1.353 7.36 5.25q54.863 152.59 109.982 305.09a7.334 7.334 0 002.193 3.445V.479h87.555v524.245c-9.712 1.065-19.572 2.135-29.43 3.228-20.02 2.22-40.047 4.364-60.047 6.75-4.29.512-6.584.153-8.296-4.8q-48.079-139.1-96.653-278.029a12.836 12.836 0 00-3.044-5.28zM1772.203.28h94.794l56.851 146.597c1.643-3.517 2.945-6.133 4.102-8.81q28.686-66.427 57.257-132.903c1.584-3.7 3.35-5.196 7.582-5.163 28.326.218 56.653.113 84.98.113h5.917c-1.14 2.783-2.013 5.014-2.962 7.213q-54.463 126.231-109.013 252.424a12.51 12.51 0 00-.195 10.403q55.271 142.052 110.344 284.182c.578 1.49 1.015 3.034 1.766 5.301-10.47-1.423-20.153-2.753-29.84-4.052-21.443-2.876-42.872-5.863-64.346-8.495-4.203-.515-6.273-2.097-7.79-6.043q-29.536-76.844-59.382-153.568c-.7-1.805-1.518-3.563-2.764-6.47l-64.657 149.758-92.152-9.617c5.038-11.682 9.765-22.64 14.49-33.599q47.223-109.521 94.528-219.008a13.03 13.03 0 00.287-10.863q-49.205-126.475-98.185-253.038c-.472-1.218-.907-2.45-1.612-4.362zM457.622 205.064c14.632 0 28.927.072 43.221-.016q35.48-.217 70.957-.635c2.868-.033 4.2.66 4.188 3.876-.11 26.83-.077 53.661-.103 80.492a18.079 18.079 0 01-.509 2.453H457.621v131.26l155.257-10.577v85.949l-243.202 18.063V.47h243.208v86.457H457.622zM1085.391 86.86v113.22h118.388v86.534h-118.395v199.21h-87.54V.471h244.045v86.39zm-144.643.284h-91.387v401.479l-87.808 2.736V87.163H669.97V.475h270.778zM1298.895.192h87.378v400.606c0 7.165.011 7.008 7.353 7.4 47.535 2.54 95.066 5.154 142.938 7.762v86.583c-10.22-.603-20.146-1.205-30.075-1.77-29.585-1.683-59.16-3.557-88.759-4.974-37.912-1.815-75.84-3.302-113.767-4.794-3.896-.153-5.409-1.13-5.406-5.416q.167-240.22.103-480.439c0-1.472.136-2.944.235-4.958zm397.993.197v514.625l-87.13-7.19V.388z"/></svg>