<?xml version="1.0" encoding="utf-8"?>
<!-- Generator: Adobe Illustrator 16.0.0, SVG Export Plug-In . SVG Version: 6.00 Build 0)  -->
<!DOCTYPE svg PUBLIC "-//W3C//DTD SVG 1.1//EN" "http://www.w3.org/Graphics/SVG/1.1/DTD/svg11.dtd">
<svg version="1.1" id="Layer_1" xmlns="http://www.w3.org/2000/svg" xmlns:xlink="http://www.w3.org/1999/xlink" x="0px" y="0px"
	 width="1000px" height="246.047px" viewBox="81 19.977 1000 246.047" enable-background="new 81 19.977 1000 246.047"
	 xml:space="preserve">
<title>Artboard</title>
<desc>Created with Sketch.</desc>
<g>
	<path id="Shape" d="M719.175,59.144c-46.313,0-83.856,37.544-83.856,83.856s37.544,83.856,83.856,83.856
		c46.313,0,83.856-37.544,83.856-83.856S765.488,59.144,719.175,59.144L719.175,59.144z M719.175,181.514
		c-21.271,0-38.513-17.244-38.513-38.514c0-21.271,17.242-38.513,38.513-38.513s38.514,17.242,38.514,38.513
		c0,10.214-4.057,20.011-11.28,27.233C739.186,177.455,729.39,181.514,719.175,181.514L719.175,181.514z M584.759,105.525v51.928
		c0,15.925,7.1,23.021,23.022,23.021h16.044v43.206h-23.35c-19.418,0-35.4-5.696-46.217-16.472
		c-10.816-10.775-16.517-26.652-16.517-45.945v-55.738h-28.934V62.319h28.934V38.973l47.018-18.996v42.343h39.066v43.206H584.759z
		 M490.394,62.345v88.279c0.091,27.297-14.418,52.559-38.043,66.232c-23.624,13.676-52.756,13.676-76.381,0
		c-23.625-13.674-38.134-38.936-38.043-66.232V82.966l46.7-18.868v87.882c0,16.312,13.223,29.534,29.533,29.534
		c16.312,0,29.534-13.223,29.534-29.534V81.213L490.394,62.345z M317.709,19.979v203.701H270.69V38.976L317.709,19.979z
		 M174.211,59.16c-19.645,0-36.306,6.64-48.699,19.303l-6.495-15.709L81,78.113v187.91h47.01v-55.492
		c12.229,11.034,28.063,16.315,46.201,16.315c21.252,0.102,41.546-8.833,55.824-24.575c14.281-15.593,22.146-36.586,22.146-59.109
		C252.181,96.058,217.933,59.16,174.211,59.16z M167.021,181.514c-21.607,0-39.126-17.243-39.126-38.514s17.52-38.513,39.126-38.513
		c21.607,0,39.128,17.243,39.128,38.513S188.633,181.514,167.021,181.514z"/>
	<path id="Path" fill="#FF2CD2" d="M923.798,143c0-65.889,6.194-82.48,6.194-82.48l-19.569,0.397
		C864.11,61.864,826.566,96.688,826.566,143s37.544,81.137,83.856,82.082l19.569,0.398C929.992,225.48,923.798,208.888,923.798,143"
		/>
	<path id="Path_1_" fill="#5E00FF" d="M923.798,143c0-52.739,28.58-82.938,28.58-82.938l-22.387,0.458
		C883.679,61.465,846.14,96.687,846.14,143s37.544,81.536,83.855,82.48l22.388,0.457c0,0-28.581-30.198-28.581-82.938"/>
	<path id="Path_2_" fill="#FFDE2B" d="M923.798,143c0-59.541,50.962-83.395,50.962-83.395l-22.382,0.456
		c-46.313,0.946-83.857,36.625-83.857,82.938s37.544,81.992,83.856,82.938l22.383,0.465C974.76,226.402,923.797,202.54,923.798,143"
		/>
	<path id="Path_3_" fill="#FF6700" d="M923.798,143c0-38.797,25.25-79.094,70.185-83.791l-19.218,0.396
		c-46.313,0.946-83.855,37.082-83.855,83.395s37.543,82.45,83.855,83.402l19.283,0.392C949.133,222.119,923.798,181.796,923.798,143
		"/>
	<path id="Shape_1_" d="M997.144,59.144c-46.313,0-83.856,37.544-83.856,83.856s37.544,83.856,83.856,83.856S1081,189.313,1081,143
		S1043.456,59.144,997.144,59.144L997.144,59.144z M1030.258,183.958h-15.63l-22.382-54.131h-22.444v27.929
		c0,6.016,2.902,9.749,9.741,9.749h9.927v16.453h-12.199c-16.551,0-25.414-9.363-25.414-25.01v-29.119h-12.378v-15.738h12.378
		v-11.186l17.949-7.251v18.437h35.331l17.31,45.214l17.476-45.645h19.405L1030.258,183.958z"/>
</g>
</svg>
