<svg xmlns="http://www.w3.org/2000/svg" viewBox="0 130 1000 310"><path d="M495.4 436.7v-.5c.5-.6 1.4-1 2.1-.9 3.6-.1 7.1-.1 10.7 0 .7 0 1.6.2 2.1.9v.5h-14.9zm15-.5c-5-.1-10-.1-15 0-6.9-.4-13.7-.6-20.6-1.1-18.2-1.4-36.4-4.1-54.1-8.2-61.4-14.2-115.2-42.9-162.2-84.5-4.4-3.9-8.5-7.9-12.7-11.9-1-.9-1.9-2.1-2.4-3.4-.7-1.7-.4-3.6.9-5s3.2-1.9 5-1.1c1.1.5 2.2 1 3.2 1.6 44.9 27.7 93.8 48 145.2 60 17.2 4 34.6 7.1 52.1 9.4 25.1 3.1 50.5 4.2 75.7 3.4 13.6-.4 27.1-1.6 40.6-3.4 31.5-4 62.6-11.1 92.7-21.1 15.9-5.2 31.4-11.2 46.5-18.2 2.2-1.2 5-1.6 7.5-1 4.1 1 6.6 5.2 5.6 9.4-.1.5-.4 1.1-.6 1.6-1 1.9-2.4 3.5-4.1 4.7-14.4 11.2-29.9 21.1-46.2 29.4-30.9 15.6-63.9 26.7-97.8 33.1-19.7 3.5-39.4 5.6-59.3 6.3zm-185-253.3c3.1-1.9 6.4-3.9 9.7-5.6 8.7-4.5 18.5-6.7 28.4-6.2 7.1.4 13.6 2.4 18.6 7.6 4.7 4.9 6.5 10.9 7 17.4.1 1.4.1 2.7.1 4.2V265c0 5.6-.7 6.4-6.4 6.4h-15.2c-1 0-2 0-3-.1-1.5-.1-2.7-1.4-3-2.9-.2-1.4-.2-2.7-.2-4.1v-57.9c.1-2.4-.1-4.6-.7-6.9-1-3.9-4.5-6.6-8.5-6.9-7.4-.5-14.7 1-21.5 4.1-1 .2-1.6 1.2-1.5 2.2v65.7c0 1.2 0 2.4-.2 3.6 0 1.7-1.4 3-3.1 3-1.9.1-3.7.1-5.7.1H307c-4.6 0-5.6-1.1-5.6-5.7v-58.9c0-2.1-.1-4.4-.6-6.5-.9-4.2-4.5-7.2-8.7-7.5-7.5-.5-15.1 1-21.9 4.2-1 .2-1.6 1.4-1.4 2.4v66.6c0 4.6-1 5.6-5.6 5.6h-16.7c-4.4 0-5.5-1.2-5.5-5.5v-86.7c0-1 .1-2 .4-3 .5-1.5 2-2.4 3.5-2.4h15.6c2.2 0 3.6 1.4 4.4 3.5.6 1.7 1 3.4 1.6 5.2 1.2 0 2-.9 2.9-1.4 6.9-4.2 14.1-7.9 22.2-9.4 6.2-1.2 12.5-1.2 18.7 0 5.9 1.2 11.1 4.7 14.5 9.7.2.4.5.6.7.9-.4.3-.2.3-.1.5zm259 62.3c.7-2.5 1.5-4.9 2.2-7.4 5.7-19.4 11.5-38.6 17.2-58l.7-2.2c.6-2.2 2.7-3.6 5-3.6h19c4.7 0 5.7 1.4 4.1 5.9l-7.5 19.9c-8.4 21.7-16.7 43.6-25.1 65.4-.2.7-.6 1.5-.9 2.2-.9 2.6-3.5 4.4-6.2 4.1-5.5-.1-11-.1-16.5 0-3.9.1-6.1-1.6-7.5-5.1-3.1-8.2-6.4-16.6-9.5-24.9-7.5-19.6-15.1-39.2-22.6-59-.7-1.5-1.2-3.2-1.6-4.9-.4-2.5.5-3.7 3-3.7 7.1-.1 14.2 0 21.2 0 3 0 4.4 2 5.1 4.6 1.4 4.7 2.7 9.6 4.2 14.4 5.1 17.4 10.1 34.9 15.2 52.2.1.1.3.1.5.1zm-443.7-57.5c.9-.2 1.6-.7 2.1-1.5 2.2-2.2 4.6-4.4 7.1-6.4 6.5-5 14.6-7.5 22.7-6.9 3.2.1 4.4 1.1 4.6 4.2.2 4.2.1 8.6.1 12.9.1 1.7 0 3.4-.2 5.1-.5 2.2-1.4 3.1-3.6 3.4-1.7.1-3.4 0-5.1-.1-8.4-.7-16.5.9-24.4 3.5-1.7.6-1.7 1.9-1.7 3.2v60c0 1.1 0 2.1-.1 3.2-.1 1.6-1.4 2.9-3 2.9-.9.1-1.9.1-2.7.1h-16.2c-.9 0-1.9 0-2.7-.1-1.6-.1-2.9-1.5-3-3.1-.1-1-.1-2-.1-3v-85c0-5.7.6-6.4 6.4-6.4h12c3.2 0 4.7 1.1 5.6 4.2s1.4 6.4 2.2 9.8zm584.5 126.7c8.2.2 16.4.7 24.4 2.9 2.2.6 4.4 1.4 6.5 2.4 2.9 1.1 4.7 3.9 5.1 6.9.5 3.5.6 7.1.4 10.7-1.6 21.4-8.2 42-19.2 60.4-4 6.6-8.9 12.6-14.5 17.9-1.1 1.1-2.5 2-4 2.5-2.4.6-3.9-.6-4-3 .1-1.2.4-2.5.9-3.7 4.4-11.7 8.6-23.4 12-35.5 2-6.6 3.4-13.4 4.2-20.2.2-2.5.4-5 .1-7.5-.1-4.2-2.9-7.9-7-9.1-3.9-1.2-7.9-2-12-2.2-11.5-.5-23 0-34.4 1.5l-15.1 1.9c-1.6.1-3.1 0-4-1.5s-.5-3 .4-4.5c1-1.4 2.2-2.6 3.7-3.5 9.2-6.6 19.6-10.6 30.6-13.2 8.6-2.1 17.2-3 25.9-3.2zm-52.3-91.7v45c-.2 2.5-1.4 3.6-3.9 3.7-6.7.1-13.4.1-20.1 0-2.5 0-3.6-1.2-3.9-3.6-.1-.7-.1-1.6-.1-2.4V179c.1-3.9 1.1-5 5-5h18c3.9 0 5 1.1 5 5v43.7zm-483.5-.3v-44.3c.1-3 1.2-4.1 4.2-4.2 6.5-.1 13-.1 19.5 0 2.9 0 3.7.9 4 3.7.1 1.1.1 2.1.1 3.2V264c0 1.4-.1 2.7-.2 4.1-.1 1.6-1.4 2.7-3 2.9-.7.1-1.4.1-2.1.1h-17.4c-.6 0-1.1 0-1.7-.1-1.7-.1-3.2-1.5-3.4-3.2-.1-1-.1-2-.1-3 .1-13.9.1-28.1.1-42.4zm14.5-93.3c2-.1 4 .2 5.9.9 6.7 2.2 10.2 8.1 9.6 15.7-.5 6.5-5.4 11.7-11.9 12.7-2.7.5-5.6.5-8.4 0-7.1-1.4-12.4-6.6-11.9-15.6.9-8.8 6.7-13.7 16.7-13.7zm455.1 0c2.5-.2 5 .2 7.4 1.2 4.9 1.9 8.2 6.4 8.5 11.6 1 11.4-6.6 17.1-16.7 16.9-1.4 0-2.7-.2-4.1-.5-7.7-1.9-11.7-7.9-11-16.5.6-6.9 6-12 13.4-12.6.8-.1 1.6-.2 2.5-.1zM95.8 212.2c-.5-6.5-2.2-12.9-4.9-18.7-5.1-10.7-13-18.6-25-21.4-13.7-3-26.1 0-37.4 8.4-.7.7-1.6 1.4-2.6 1.9-.2-.1-.5-.2-.5-.4-.4-1.2-.6-2.5-1-3.7-1-3.1-2.2-4.2-5.6-4.2-3.7 0-7.6.1-11.4 0-2.8-.3-5.4.1-7.4 2.4 0 43.7 0 87.5.1 131.2 1.6 2.6 4.1 3.1 7 3 4.5-.1 9 0 13.5 0 7.9 0 7.9 0 7.9-7.7v-35.6c0-.9-.4-1.9.5-2.6 6.2 4.9 13.9 7.9 21.7 8.6 11 1.1 21-1.6 29.4-9.1 6.1-5.6 10.6-12.9 13-20.9 3.4-10.3 3.6-20.7 2.7-31.2zM66 238.1c-.9 3.9-2.9 7.4-5.7 10-3.2 2.7-7.2 4.4-11.5 4.4-6.4.4-12.6-1-18.2-4-1.4-.6-2.2-2-2.1-3.5v-22.7c0-7.5.1-15 0-22.5-.1-1.7.9-3.2 2.5-3.9 6.9-3.2 14-4.7 21.5-3.2 5.2.7 9.7 4.1 11.9 9 1.9 4 3 8.4 3.2 12.7.6 8 .6 16-1.6 23.7zm933.8-6.4s0-.1 0 0c0-.1 0-.1 0 0zm.1-16.8v.5c-.5-.5-.7-1.2-.5-1.9v-1s0-.1.1-.1h-.1v-1.2h.2c0-.1-.1-.1-.1-.2-.2-2.4-.7-4.7-1.4-7-4.6-16.5-15-27.4-31.9-31.6-7.9-1.9-15.9-2.1-23.9-.9-16.9 2.5-29 11.5-34.9 27.5-5.7 15.2-5.6 32 .1 47.2 5 13.9 15 22.6 29.4 26.2 7.6 1.9 15.6 2.4 23.5 1.2 26.2-3.1 37.1-23 38.9-40.2h-.1v-1.7c-.1-.7-.2-1.4.5-1.9v.2c0-.1.1-.4.2-.5v-14.3c.1-.1 0-.1 0-.3zm-30 23.8c-.7 2.6-1.9 5-3.5 7.2a15.7 15.7 0 01-11.9 6.7c-2.4.2-4.7.2-7.1-.2-5.2-1-9.6-4.5-11.7-9.4-1.9-3.9-3-8.1-3.4-12.4-.6-7.4-.7-14.7 1-22 .6-2.9 1.9-5.7 3.4-8.2 2.7-4.5 7.5-7.4 12.7-7.7 2.4-.2 4.7-.2 7.1.2 5 1 9.1 4.2 11.4 8.9 2.1 4.4 3.4 9.2 3.6 14.1.1 2.2.2 4.5.1 6.7.4 5.6-.2 11-1.7 16.1zM780.8 130h-17.4c-4.7 0-5.6.9-5.6 5.6v40.5c0 .9.4 1.7-.2 2.6-1.1-.1-1.7-.9-2.6-1.4-13-7.6-26.6-9-40.4-2.6-9.6 4.5-15.6 12.6-19.5 22.2-3.7 9.2-4.6 19-4.4 28.9 0 9.2 2.1 18.4 6.2 26.6 4.7 9.1 11.6 16.1 21.6 19.1 13.6 4.2 26.4 2.1 38-6.5.9-.5 1.4-1.4 2.5-1.6.6 1.4 1.1 2.9 1.4 4.4.5 2 2.2 3.4 4.4 3.4h3c4.5 0 8.9.1 13.2 0 3.5 0 4.5-1.1 4.6-4.7V134.7c0-3.9-1-4.7-4.8-4.7zM758 221.9v22.7c.2 1.5-.6 2.9-2 3.5-6 3.4-12.9 4.7-19.6 3.7-5.7-.6-10.7-4.1-13.4-9.2-2-4-3.1-8.2-3.5-12.6-1-7.9-.4-15.9 1.5-23.5.6-2.1 1.4-4.1 2.5-6.1 2.6-4.9 7.6-8 13.1-8.4 6.6-.6 13.2.6 19.2 3.4 1.5.5 2.4 2 2.2 3.6-.2 7.8 0 15.3 0 22.9zm-323.2 8.7c9.4 1.7 19 1.9 28.4.4 5.5-.7 10.7-2.4 15.6-5 5.6-3.2 9.7-7.7 11.5-14 4.4-15.7-2.4-31.6-18.7-37.5-8-2.6-16.5-3.5-24.9-2.4-19.7 2.2-32.6 13.1-38.5 32-4.1 12.9-3.6 26-.2 39 4.4 16.6 15.4 26.5 32 30 9.5 2.1 19.1 1.7 28.6.2 5-.9 10-2.1 14.7-4 2.9-1.1 4.4-2.9 4.2-6.1-.1-3 0-6.1 0-9.2 0-3.7-1.5-4.9-5.1-4s-7.1 1.6-10.7 2.4c-7.7 1.6-15.7 1.6-23.5.2-10.6-2.1-17.5-11.2-16.9-22.5 1.2.1 2.4.2 3.5.5zm-3.1-19.2c.4-3 1.2-5.9 2.4-8.6 3.7-9.1 11.6-12.2 19.6-11.7 2.2.1 4.5.6 6.6 1.5 3.2 1.4 5.4 4.4 5.7 7.9.4 2.1.2 4.4-.4 6.5-1.5 4.5-5.1 6.4-9.5 7.2-2.6.6-5.4.9-8.1.6-4.9 0-9.9-.4-14.7-1.1-1.8-.3-1.8-.3-1.6-2.3zm424.6 20.4c7.2-.5 14.5-1.9 21-5.4 6.6-3.2 11.2-9.4 12.6-16.6.9-4.5.9-9.2-.1-13.7-2.6-11.2-9.7-18.2-20.5-21.9-6-1.9-12.4-2.6-18.6-2.4-21 .5-37 11.1-43.5 32.1-4.4 13.9-3.7 28 .5 41.9 4.4 14.2 14.4 22.9 28.6 26.7 6.1 1.5 12.5 2.1 18.7 1.9 9.1-.1 18.2-1.9 26.9-5.1 3.6-1.4 4.5-2.6 4.5-6.5v-9c-.1-3.6-1.6-4.9-5.2-4-2.7.7-5.4 1.4-8.1 2-8.4 2-17.1 2.4-25.6.9-8.5-1.6-14.2-6.5-16.5-15-.6-2.5-1.1-5-1.4-7.6.6 0 1.2 0 1.7.2 8.3 1.5 16.6 2.1 25 1.5zm-26.1-20c.9-4.9 2-9.6 5-13.6 4.6-6.1 11-7.9 18.2-7.1.6 0 1.1.2 1.7.2 8.7 1.4 10.9 8.4 9.2 15.1-1.2 5-5.4 6.9-10 7.7-2.5.5-5.1.7-7.7.6-5.1-.1-10.1-.5-15.1-1.2-1.1-.1-1.6-.6-1.3-1.7z"/></svg>
