<svg data-name="Layer 1" xmlns="http://www.w3.org/2000/svg" viewBox="0 0 255.807 576.664"><path d="M255.746 289.218q0 113.993-.08 227.985a133.453 133.453 0 01-1.886 22.857c-3.61 20.453-18.734 33.904-39.44 35.547-7.46.593-14.958.993-22.44 1.006q-68.495.119-136.991-.049a106.041 106.041 0 01-16.41-1.344c-22.51-3.6-36.635-19.797-37.537-43.102-.534-13.809-.915-27.633-.92-41.45Q-.041 275.432.187 60.196c.017-10.221.761-20.908 3.785-30.558C9.945 10.574 24.928 1.26 44.239.947 95.88.11 147.532.084 199.181 0a104.388 104.388 0 0122.306 2.346c19.95 4.364 32.911 20.751 33.325 41.932q.79 40.469.921 80.95c.137 54.663.041 109.327.041 163.99zm-127.613-210.8c-41.156.294-76.295 32.35-76.297 76.148-.003 43.077 33.753 76.27 76.174 76.165 43.986-.107 75.721-34.932 76.097-75.798.385-41.928-34.238-76.496-75.974-76.515zM169.85 338.31a30.13 30.13 0 00-30.228 29.57c-.193 16.251 13.854 30.252 30.297 30.197 16.189-.054 30.018-13.912 29.956-30.02a30.105 30.105 0 00-30.025-29.747zm-.23-19.31c16.062.094 29.786-13.436 30.224-29.796.422-15.759-13.064-29.208-28.682-30.055a30.091 30.091 0 00-31.473 29.77c-.4 15.945 13.87 29.988 29.93 30.081zm-82.965-59.692c-15.93-1.26-30.387 13.454-30.227 29.14.173 16.818 13.291 30.526 29.742 30.551 16.177.026 29.988-13.665 30.085-29.821a29.543 29.543 0 00-29.6-29.87zm-.622 79.002a29.505 29.505 0 00-29.548 29.93 29.925 29.925 0 0029.825 29.837 30.248 30.248 0 0029.945-29.852 29.913 29.913 0 00-30.222-29.915z"/><path d="M128.273 121.086c-19.072-.026-34.037 14.807-34.01 33.709a33.627 33.627 0 0067.252.153c.053-18.885-14.625-33.837-33.242-33.862z" fill="#fff"/><path d="M128.273 121.086c18.617.025 33.295 14.977 33.242 33.862a33.627 33.627 0 01-67.252-.153c-.027-18.902 14.938-33.735 34.01-33.71z"/></svg>