<?xml version="1.0" encoding="UTF-8"?>
<svg width="16px" height="18px" viewBox="0 0 16 18" version="1.1" xmlns="http://www.w3.org/2000/svg" xmlns:xlink="http://www.w3.org/1999/xlink">
    <!-- Generator: Sketch 63.1 (92452) - https://sketch.com -->
    <title>Combined Shape</title>
    <desc>Created with Sketch.</desc>
    <g id="Home-Page-+-Profile" stroke="none" stroke-width="1" fill="none" fill-rule="evenodd">
        <g id="New---User-profile---details" transform="translate(-740.000000, -1503.000000)" fill="#FFFFFF" fill-rule="nonzero">
            <path d="M743,1507 L743,1508.5 L741.5,1508.5 L741.5,1519 L754,1519 L754,1508.5 L752.4125,1508.5 L752.4,1507 L754,1507 C754.8325,1507 755.5,1507.675 755.5,1508.5 L755.5,1519 C755.5,1519.825 754.8325,1520.5 754,1520.5 L741.5,1520.5 C740.716471,1520.5 740.0791,1519.90208 740.006827,1519.14392 L740,1519 L740,1508.5 C740,1507.72353 740.59128,1507.07993 741.354903,1507.0069 L741.5,1507 L743,1507 Z M747.67157,1503 L751.383881,1506.71231 L750.323221,1507.77297 L748.419336,1505.86909 L748.419336,1514.29538 L746.923805,1514.29538 L746.923805,1505.86909 L745.01992,1507.77297 L743.95926,1506.71231 L747.67157,1503 Z" id="Combined-Shape"></path>
        </g>
    </g>
</svg>