<?xml version="1.0" encoding="UTF-8"?>
<svg xmlns="http://www.w3.org/2000/svg" xmlns:xlink="http://www.w3.org/1999/xlink" width="2208.48pt" height="358.55pt" viewBox="0 0 2208.48 358.55" version="1.1">
<defs>
<clipPath id="clip1">
  <path d="M 1603 12 L 2208.480469 12 L 2208.480469 335 L 1603 335 Z M 1603 12 "/>
</clipPath>
<clipPath id="clip2">
  <path d="M 266 15 L 978 15 L 978 358.550781 L 266 358.550781 Z M 266 15 "/>
</clipPath>
</defs>
<g id="surface1">
<path style=" stroke:none;fill-rule:evenodd;fill:rgb(79.199219%,12.5%,14.898682%);fill-opacity:1;" d="M 993.3125 4.5 C 995.726563 4.335938 996.484375 5.828125 999.3125 5.25 C 999.300781 8.75 993.207031 7.554688 993.3125 4.5 "/>
<path style=" stroke:none;fill-rule:evenodd;fill:rgb(79.199219%,12.5%,14.898682%);fill-opacity:1;" d="M 1026.320313 6.75 C 1025.980469 9.167969 1025.171875 11.105469 1021.820313 10.503906 C 1021.988281 7.921875 1024.050781 7.234375 1026.320313 6.75 "/>
<path style=" stroke:none;fill-rule:evenodd;fill:rgb(79.199219%,12.5%,14.898682%);fill-opacity:1;" d="M 810.285156 128.269531 C 812.554688 129.402344 809.664063 131.5625 810.285156 133.519531 C 807.855469 133.3125 808.5 128.589844 810.285156 128.269531 "/>
<path style=" stroke:none;fill-rule:evenodd;fill:rgb(79.199219%,12.5%,14.898682%);fill-opacity:1;" d="M 802.785156 147.769531 C 805.46875 149.335938 804.53125 154.523438 808.035156 155.273438 C 804.203125 157.824219 801.972656 152.355469 802.785156 147.769531 "/>
<path style=" stroke:none;fill-rule:evenodd;fill:rgb(79.199219%,12.5%,14.898682%);fill-opacity:1;" d="M 820.039063 147.769531 C 823.15625 148.667969 819.460938 150.339844 819.285156 152.269531 C 816.269531 151.476563 818.5 148.339844 820.039063 147.769531 "/>
<path style=" stroke:none;fill-rule:evenodd;fill:rgb(79.199219%,12.5%,14.898682%);fill-opacity:1;" d="M 809.535156 154.523438 C 813.28125 153.445313 813.207031 158.375 810.285156 158.273438 C 809.65625 157.402344 809.296875 156.261719 809.535156 154.523438 "/>
<path style=" stroke:none;fill-rule:evenodd;fill:rgb(79.199219%,12.5%,14.898682%);fill-opacity:1;" d="M 795.285156 156.773438 C 796.035156 156.773438 796.785156 156.773438 797.535156 156.773438 C 796.070313 161.988281 800.761719 161.046875 799.785156 165.773438 C 795.132813 165.921875 796.820313 159.738281 795.285156 156.773438 "/>
<path style=" stroke:none;fill-rule:evenodd;fill:rgb(79.199219%,12.5%,14.898682%);fill-opacity:1;" d="M 811.035156 170.273438 C 812.605469 169.957031 813.023438 170.789063 814.035156 171.023438 C 814.207031 173.695313 812.957031 174.945313 810.285156 174.773438 C 809.742188 172.484375 811.054688 172.042969 811.035156 170.273438 "/>
<path style=" stroke:none;fill-rule:evenodd;fill:rgb(79.199219%,12.5%,14.898682%);fill-opacity:1;" d="M 786.28125 171.023438 C 788.691406 170.367188 787.839844 172.96875 789.28125 173.273438 C 786.957031 173.949219 786.414063 176.40625 783.28125 176.273438 C 783.425781 173.667969 785.9375 173.425781 786.28125 171.023438 "/>
<path style=" stroke:none;fill-rule:evenodd;fill:rgb(79.199219%,12.5%,14.898682%);fill-opacity:1;" d="M 818.535156 179.273438 C 820.175781 179.386719 820.148438 181.164063 820.039063 183.027344 C 817.808594 183.183594 817.394531 180.351563 818.535156 179.273438 "/>
<path style=" stroke:none;fill-rule:evenodd;fill:rgb(79.199219%,12.5%,14.898682%);fill-opacity:1;" d="M 999.3125 318.042969 C 1001.46875 318.277344 1004.589844 312.914063 1001.558594 312.792969 C 1001.75 315.484375 999.308594 315.542969 999.3125 318.042969 Z M 1138.078125 317.292969 C 1139.171875 315.382813 1142.179688 315.394531 1141.078125 311.292969 C 1138.058594 311.773438 1133.109375 310.320313 1131.328125 312.042969 C 1133.609375 313.761719 1135.679688 315.691406 1138.078125 317.292969 Z M 1030.070313 315.042969 C 1031.800781 314.96875 1034.191406 311.746094 1032.320313 310.542969 C 1031.601563 312.074219 1030.78125 313.511719 1030.070313 315.042969 Z M 1011.308594 298.542969 C 1011.179688 301.175781 1013.851563 301.007813 1014.308594 303.042969 C 1013.308594 303.042969 1012.308594 303.042969 1011.308594 303.042969 C 1011.308594 304.542969 1011.308594 306.042969 1011.308594 307.542969 C 1009.039063 310.609375 1011.691406 306.5 1012.058594 306.042969 C 1015.621094 301.660156 1021.601563 292.738281 1021.070313 291.039063 C 1018.269531 293.628906 1017.289063 301.585938 1011.308594 298.542969 Z M 1090.828125 296.292969 C 1094.679688 295.148438 1093.910156 289.371094 1096.078125 286.539063 C 1093.828125 286.539063 1091.578125 286.539063 1089.320313 286.539063 C 1090.140625 289.480469 1087.589844 295.777344 1090.828125 296.292969 Z M 1038.320313 280.539063 C 1038.738281 277.730469 1043.941406 272.46875 1042.820313 273.039063 C 1040.890625 274.632813 1035.75 276.941406 1038.320313 280.539063 Z M 1051.070313 261.785156 C 1046.101563 267.054688 1052.691406 261.542969 1051.070313 261.785156 Z M 1081.070313 227.28125 C 1080.621094 234.910156 1093.710938 241.984375 1100.578125 242.285156 C 1106.140625 242.527344 1111.921875 238.820313 1117.078125 239.285156 C 1122.351563 239.753906 1120.78125 241.78125 1123.828125 241.535156 C 1131.648438 238.117188 1142.558594 232.945313 1147.828125 224.28125 C 1155.058594 212.40625 1152.328125 192.117188 1152.328125 171.773438 C 1152.328125 158.140625 1155.160156 142.941406 1153.078125 135.019531 C 1151.679688 129.683594 1143.328125 123.941406 1142.578125 119.265625 C 1136.519531 120.089844 1133.339844 114.308594 1128.328125 111.765625 C 1115.910156 105.464844 1096.609375 106.347656 1083.320313 110.265625 C 1083.898438 146.949219 1084.859375 183.238281 1084.820313 220.53125 C 1084.011719 224.726563 1081.308594 223.214844 1081.070313 227.28125 Z M 1003.808594 20.253906 C 1002.800781 20.015625 1002.378906 19.183594 1000.808594 19.503906 C 1000.609375 21.695313 1003.71875 22.382813 1003.808594 20.253906 Z M 994.0625 15.753906 C 995.875 19.609375 996 13.171875 994.0625 15.753906 Z M 1010.558594 16.503906 C 1011.058594 16.503906 1011.558594 16.503906 1012.058594 16.503906 C 1012.058594 15.503906 1012.058594 14.503906 1012.058594 13.503906 C 1011.558594 13.503906 1011.058594 13.503906 1010.558594 13.503906 C 1010.558594 14.503906 1010.558594 15.503906 1010.558594 16.503906 Z M 1033.820313 12.753906 C 1034.449219 11.882813 1034.808594 10.742188 1034.570313 9.003906 C 1033.570313 9.003906 1032.570313 9.003906 1031.570313 9.003906 C 1030.980469 11.59375 1032.269531 12.300781 1033.820313 12.753906 Z M 1039.070313 7.503906 C 1043.589844 8.769531 1043.578125 7.71875 1048.820313 9.753906 C 1048.648438 3.128906 1041.289063 2.691406 1039.070313 7.503906 Z M 1049.570313 5.25 C 1051.488281 6.066406 1050.769531 0.601563 1051.820313 3 C 1054.421875 2.476563 1054.511719 5.628906 1053.320313 6.75 C 1054.660156 8.507813 1059.160156 9.925781 1057.070313 12.753906 C 1059.5 13.679688 1057.640625 10.324219 1060.070313 11.253906 C 1059.980469 12.597656 1060.988281 12.835938 1060.820313 14.253906 C 1076.46875 18.242188 1107.28125 13.203125 1125.328125 17.253906 C 1126.988281 17.664063 1126.398438 15.820313 1127.578125 15.753906 C 1161.808594 25.71875 1196.71875 36.136719 1219.839844 59.257813 C 1227.199219 66.613281 1232.761719 76.304688 1237.851563 86.261719 C 1242.988281 96.339844 1247.941406 108.203125 1249.101563 120.015625 C 1249.488281 124.03125 1248.839844 128.167969 1249.101563 132.019531 C 1249.859375 143.339844 1251.359375 152.753906 1252.101563 165.773438 C 1255.878906 232.332031 1236.410156 286.148438 1191.339844 312.042969 C 1189.398438 310.988281 1187.878906 309.503906 1186.089844 308.292969 C 1182.921875 309.125 1176.320313 306.527344 1175.589844 309.792969 C 1176.78125 313.105469 1183.949219 310.429688 1187.589844 311.292969 C 1187.589844 312.292969 1187.589844 313.292969 1187.589844 314.292969 C 1185.28125 317.800781 1180.519531 318.074219 1177.089844 319.542969 C 1167.21875 323.769531 1156.46875 329.246094 1145.578125 333.046875 C 1145.578125 332.296875 1145.578125 331.546875 1145.578125 330.796875 C 1144.648438 328.960938 1143.398438 333.042969 1141.828125 333.046875 C 1122.101563 330.304688 1101.109375 336.863281 1083.320313 333.796875 C 1080.25 333.265625 1077.941406 330.34375 1075.070313 330.046875 C 1068.859375 329.40625 1061.710938 334.726563 1056.320313 333.796875 C 1052.828125 333.195313 1050.261719 328.773438 1048.070313 327.042969 C 1043.769531 327.769531 1043.378906 332.773438 1039.820313 333.796875 C 1032.421875 335.917969 1021.921875 329.671875 1012.808594 330.046875 C 1007.28125 330.273438 1004.53125 333.652344 999.3125 333.796875 C 998.4375 330.023438 1001.910156 327.878906 1003.808594 325.542969 C 1008.878906 319.347656 1014.730469 312.742188 1019.570313 305.292969 C 1025.648438 306.128906 1024.808594 300.039063 1031.570313 301.542969 C 1031.179688 296.386719 1027.28125 302.316406 1025.570313 300.042969 C 1025.53125 296.757813 1027.441406 295.414063 1028.570313 293.292969 C 1026.660156 294.640625 1025.171875 296.390625 1021.820313 296.292969 C 1020.289063 308.265625 1011.058594 312.535156 1006.808594 321.792969 C 1005.070313 322.035156 1003.929688 321.671875 1003.058594 321.042969 C 1001 322.730469 1000.871094 326.351563 999.3125 328.546875 C 996.59375 328.015625 996.101563 325.257813 991.8125 326.292969 C 992.695313 315.910156 989.816406 309.289063 988.0625 301.542969 C 988.058594 298.789063 990.6875 298.667969 991.8125 297.042969 C 992.308594 285.25 984.222656 271.875 990.3125 261.785156 C 993.484375 261.113281 991.074219 266.023438 994.0625 265.539063 C 995.242188 262.832031 990.605469 259.511719 988.0625 258.035156 C 988.0625 240.75 988.0625 223.203125 988.0625 205.527344 C 988.0625 187.925781 986.21875 169.652344 988.0625 153.769531 C 988.605469 149.09375 991.542969 144.71875 991.8125 140.269531 C 992.554688 127.9375 983.164063 113.957031 989.5625 102.765625 C 988.785156 99.816406 986.296875 97.078125 985.8125 93.761719 C 984.617188 85.597656 988.992188 76.433594 988.8125 66.757813 C 988.609375 56.066406 985.933594 47.089844 985.0625 37.503906 C 991.9375 33.410156 986.785156 24.105469 985.0625 18.003906 C 988.746094 17.816406 991.597656 18.46875 993.3125 20.253906 C 993.027344 19.164063 992.574219 15.621094 993.3125 12.003906 C 992.007813 11.371094 988.53125 15.339844 985.0625 12.753906 C 984.664063 9.605469 986.371094 8.5625 986.5625 6 C 988.5625 6 990.5625 6 992.5625 6 C 994.050781 7.730469 992.371094 6.835938 991.8125 8.253906 C 998.0625 11.761719 1000.730469 8.554688 1003.808594 12.003906 C 1006.039063 8.746094 1007.929688 9.328125 1012.808594 9.753906 C 1012.570313 8.183594 1008.488281 7.464844 1012.808594 7.503906 C 1011.460938 3.960938 1008.859375 7.980469 1006.058594 7.503906 C 1006.230469 4.234375 1000.648438 3.902344 1003.058594 0.75 C 1006.871094 0.691406 1006.878906 4.433594 1009.058594 6 C 1009.679688 4.113281 1012.488281 4.421875 1015.058594 4.5 C 1016.738281 10.828125 1022.839844 12.726563 1027.820313 15.753906 C 1028.980469 13.085938 1025.269531 15.300781 1025.570313 13.503906 C 1027.511719 12.199219 1026.808594 8.242188 1030.070313 8.253906 C 1029.898438 7.171875 1027.828125 7.988281 1027.820313 6.75 C 1028.109375 4.039063 1031.929688 4.867188 1030.820313 0.75 C 1033.910156 1.609375 1037.808594 1.621094 1039.070313 0 C 1041.730469 2.21875 1052.441406 -0.675781 1049.570313 5.25 "/>
<g clip-path="url(#clip1)" clip-rule="nonzero">
<path style=" stroke:none;fill-rule:evenodd;fill:rgb(79.199219%,12.5%,14.898682%);fill-opacity:1;" d="M 2113.96875 119.265625 C 2114.488281 119.855469 2118.148438 120.9375 2118.46875 119.265625 C 2116.429688 119.269531 2114.960938 116.113281 2113.96875 119.265625 Z M 2120.71875 121.515625 C 2123.398438 124.292969 2129.691406 125.894531 2132.71875 123.769531 C 2129.808594 122.675781 2126.730469 121.757813 2124.46875 120.015625 C 2124.359375 119.019531 2127.519531 117.753906 2125.21875 117.015625 C 2123.21875 118.023438 2122.988281 120.789063 2120.71875 121.515625 Z M 2106.46875 117.765625 C 2105.761719 120.644531 2112.328125 114.773438 2107.21875 117.765625 C 2107.148438 117.804688 2106.480469 117.714844 2106.46875 117.765625 Z M 2089.210938 119.265625 C 2090.519531 118.574219 2093.238281 119.292969 2092.96875 117.015625 C 2090.609375 116.660156 2089.898438 117.953125 2089.210938 119.265625 Z M 1996.199219 173.273438 C 2002.96875 172.617188 2008.339844 166.332031 2015.699219 166.523438 C 2017.910156 160.476563 2023.359375 157.683594 2028.460938 154.523438 C 2033.691406 140.347656 2043.25 121.925781 2032.210938 109.515625 C 2021.03125 96.957031 1997.339844 100.753906 1977.449219 102.765625 C 1974.53125 115.851563 1975.289063 132.605469 1975.199219 148.519531 C 1974.878906 150.535156 1977.460938 151.097656 1978.199219 153.019531 C 1978.5 153.8125 1976.738281 153.867188 1976.699219 154.523438 C 1976.699219 154.476563 1978.160156 155.871094 1978.199219 156.023438 C 1979.910156 163.144531 1977.148438 164.707031 1975.949219 170.273438 C 1983.78125 170.074219 1989.691406 173.910156 1996.199219 173.273438 Z M 2131.21875 89.261719 C 2128.101563 93.472656 2132.46875 91.40625 2131.21875 89.261719 Z M 2122.21875 105.015625 C 2125.128906 99.011719 2119.101563 92.742188 2123.71875 89.261719 C 2121.429688 89.808594 2121.511719 87.96875 2119.21875 88.511719 C 2118.46875 94.324219 2119.28125 100.898438 2122.21875 105.015625 Z M 2128.21875 85.511719 C 2130.378906 85.128906 2133.960938 82.296875 2131.96875 80.261719 C 2131.871094 83.160156 2128.929688 83.21875 2128.21875 85.511719 Z M 1821.429688 80.261719 C 1822.679688 80.261719 1823.929688 80.261719 1825.179688 80.261719 C 1825.421875 76.746094 1821.710938 78.253906 1821.429688 80.261719 Z M 1828.179688 76.511719 C 1827.851563 74.792969 1823.851563 72.910156 1822.179688 75.011719 C 1823.988281 75.253906 1826.160156 78.960938 1828.179688 76.511719 Z M 2139.46875 72.011719 C 2137.941406 70.789063 2136.410156 69.574219 2134.21875 69.011719 C 2133.769531 71.75 2137.949219 73.722656 2139.46875 72.011719 Z M 2119.96875 81.761719 C 2123.441406 76.839844 2116.078125 72.988281 2118.46875 64.507813 C 2115.699219 65.492188 2117.03125 70.335938 2116.96875 73.511719 C 2116.859375 78.886719 2117.429688 84.929688 2116.21875 87.761719 C 2120.578125 86.863281 2124.578125 81.636719 2125.21875 79.511719 C 2123.960938 81.253906 2121.789063 84.789063 2119.96875 81.761719 Z M 1828.929688 66.007813 C 1829.628906 63.957031 1831.230469 62.8125 1831.929688 60.757813 C 1829.769531 60.890625 1827.199219 64.472656 1828.929688 66.007813 Z M 1841.679688 57.757813 C 1840.078125 60.078125 1834.570313 65.910156 1835.679688 66.007813 C 1837.308594 64.886719 1837.429688 62.257813 1840.179688 62.257813 C 1838.03125 68.160156 1845.371094 70.882813 1843.929688 80.261719 C 1847.339844 78.96875 1844.871094 74.632813 1844.679688 72.011719 C 1844.300781 66.816406 1843.929688 61.996094 1843.929688 57.007813 C 1842.21875 57.21875 1841.109375 56.828125 1840.929688 55.507813 C 1841.511719 49.421875 1839.429688 44.835938 1836.429688 40.507813 C 1834.808594 47.144531 1840.25 52.109375 1836.429688 56.257813 C 1838.800781 56.136719 1840.960938 56.230469 1841.679688 57.757813 Z M 1813.179688 37.503906 C 1818.128906 36.953125 1817.648438 33.984375 1815.429688 30.753906 C 1815.320313 33.648438 1812.890625 34.222656 1813.179688 37.503906 Z M 1843.179688 27.003906 C 1844.128906 24.480469 1839.378906 23.902344 1838.679688 25.503906 C 1840.25 25.9375 1840.820313 27.363281 1843.179688 27.003906 Z M 1824.429688 22.503906 C 1826.769531 23.90625 1830.390625 24.039063 1832.679688 25.503906 C 1833.230469 27.550781 1831.191406 27.015625 1831.179688 28.503906 C 1834.589844 28.667969 1834.21875 25.042969 1835.679688 23.253906 C 1832.941406 22.078125 1826.308594 19.941406 1824.429688 22.503906 Z M 2208.480469 94.511719 C 2208.480469 94.761719 2208.480469 95.015625 2208.480469 95.265625 C 2183.851563 97.132813 2158.128906 97.917969 2132.71875 99.015625 C 2143.171875 160.46875 2116.039063 201.804688 2080.210938 224.28125 C 2095.519531 251.472656 2110.441406 278.585938 2125.21875 305.292969 C 2130.128906 314.171875 2135.96875 323.601563 2138.71875 333.796875 C 2124.289063 334.511719 2108.128906 333.046875 2092.21875 333.046875 C 2075.378906 333.046875 2056.949219 335.71875 2044.960938 332.296875 C 2026.421875 327.007813 2018.929688 302.816406 2011.949219 285.789063 C 2004.511719 267.636719 1995.339844 249.660156 1972.199219 248.285156 C 1968.441406 251.277344 1968.058594 257.648438 1968.449219 264.789063 C 1966.851563 269.132813 1973.789063 264.941406 1972.199219 269.289063 C 1972.480469 286.570313 1970.871094 301.960938 1971.449219 319.542969 C 1971.328125 321.660156 1973.570313 321.425781 1974.449219 322.542969 C 1976.878906 324.90625 1972.488281 323.105469 1972.199219 324.792969 C 1976.359375 324.628906 1974.980469 330.015625 1975.199219 333.796875 C 1944.089844 334.191406 1911.339844 332.945313 1881.441406 334.546875 C 1882.328125 315.191406 1879.28125 296.140625 1878.441406 276.789063 C 1877.578125 257.378906 1875.289063 237.890625 1876.191406 218.28125 C 1877.960938 179.132813 1877.5 139.613281 1875.441406 99.765625 C 1866.769531 99.355469 1858.511719 99.015625 1849.929688 99.015625 C 1841.058594 99.015625 1826.191406 96.371094 1820.679688 99.015625 C 1814.121094 102.160156 1800.96875 98.421875 1792.171875 99.015625 C 1785.671875 99.453125 1781.398438 100.058594 1774.921875 99.765625 C 1773.140625 99.683594 1771.230469 100.675781 1769.671875 100.515625 C 1765.269531 100.058594 1761.480469 98.242188 1756.921875 98.265625 C 1749.179688 98.300781 1741.199219 102.472656 1733.660156 98.265625 C 1730.128906 98.703125 1728.550781 102.238281 1725.410156 99.015625 C 1719.878906 100.195313 1713.898438 99.480469 1703.660156 100.515625 C 1702.640625 110.53125 1699.078125 121.882813 1700.660156 132.019531 C 1738.621094 134.429688 1780.820313 136.285156 1818.429688 132.769531 C 1816.46875 138.066406 1818.800781 144.289063 1819.179688 150.769531 C 1819.578125 157.773438 1819.539063 165.167969 1819.929688 172.523438 C 1820.671875 186.59375 1824.039063 201.539063 1819.179688 213.03125 C 1814.601563 213.109375 1812.800781 210.402344 1809.429688 209.28125 C 1809.410156 211.261719 1810.121094 213.980469 1807.179688 213.03125 C 1805.019531 211.6875 1801.21875 211.988281 1798.921875 210.78125 C 1797.960938 214.402344 1793.839844 212.503906 1793.671875 209.28125 C 1793.769531 207.621094 1796.851563 208.960938 1798.171875 208.53125 C 1796.039063 204.699219 1791.640625 210.773438 1787.671875 210.03125 C 1785.820313 209.605469 1785.578125 210.246094 1783.921875 210.78125 C 1782.121094 211.355469 1780.089844 213.019531 1778.671875 213.03125 C 1776.328125 213.046875 1776.410156 209.433594 1774.171875 209.28125 C 1771.28125 209.078125 1772.21875 213.746094 1768.921875 213.03125 C 1768.289063 210.355469 1765.050781 210.355469 1764.421875 213.03125 C 1761.640625 212.804688 1761.71875 209.726563 1757.671875 210.78125 C 1753.539063 213.074219 1750.800781 213.054688 1746.421875 210.78125 C 1745.511719 214.875 1737.96875 212.335938 1733.660156 213.03125 C 1730.851563 213.773438 1732.03125 209.34375 1729.910156 211.53125 C 1727.589844 211.453125 1726.328125 212.445313 1724.660156 213.03125 C 1722.261719 213.363281 1723.441406 208.933594 1720.910156 211.53125 C 1713.601563 212.460938 1706.160156 213.273438 1699.910156 215.28125 C 1702.769531 215.757813 1700.949219 220.121094 1700.660156 222.03125 C 1699.601563 229.128906 1697.769531 239.179688 1699.910156 246.785156 C 1705.109375 249.496094 1712.328125 252.089844 1718.660156 252.035156 C 1722.859375 252 1727.039063 249.960938 1731.410156 249.785156 C 1740.421875 249.421875 1754.949219 253.316406 1760.671875 251.285156 C 1760.878906 251.210938 1760.941406 250.007813 1761.421875 249.785156 C 1762.089844 249.472656 1763.660156 249.800781 1764.421875 249.785156 C 1769.039063 249.683594 1773.921875 251.703125 1778.671875 252.035156 C 1791.929688 252.964844 1805.679688 251.34375 1819.929688 252.035156 C 1819.429688 278.789063 1820.929688 307.542969 1819.179688 333.046875 C 1810.648438 332.582031 1801.339844 333.667969 1793.671875 333.046875 C 1790.980469 332.828125 1788.671875 331.472656 1786.171875 331.546875 C 1783.761719 331.617188 1781.230469 333.054688 1778.671875 333.046875 C 1772.679688 333.027344 1766.210938 331.109375 1759.921875 330.796875 C 1749.300781 330.265625 1738.738281 331.273438 1729.160156 330.796875 C 1724.289063 330.554688 1719.46875 328.863281 1714.910156 329.296875 C 1710.160156 329.75 1706.300781 332.777344 1702.160156 333.046875 C 1699.5 333.21875 1696.679688 331.507813 1693.910156 331.546875 C 1692.730469 331.5625 1691.640625 332.875 1690.910156 333.046875 C 1689.289063 333.425781 1687.148438 333.171875 1685.660156 333.046875 C 1677.949219 332.386719 1671.070313 327.449219 1665.410156 324.042969 C 1666.710938 331.710938 1662.730469 332.011719 1657.148438 331.546875 C 1656.148438 331.464844 1656.230469 330.203125 1655.648438 330.046875 C 1654.199219 329.65625 1653.820313 331.570313 1653.398438 331.546875 C 1648.910156 331.292969 1644.351563 330.371094 1642.148438 329.296875 C 1641.039063 330.121094 1638.359375 331.34375 1636.148438 331.546875 C 1635.128906 331.640625 1635.410156 330.117188 1633.898438 330.046875 C 1632.871094 330 1631.628906 331.578125 1630.898438 331.546875 C 1628.859375 331.460938 1626.359375 330.101563 1624.148438 330.046875 C 1621.171875 329.96875 1618.78125 331.84375 1616.648438 331.546875 C 1613.960938 331.167969 1609.019531 329.210938 1609.148438 325.542969 C 1605.75 324.398438 1609.539063 330.445313 1606.148438 329.296875 C 1603.03125 326.796875 1603.351563 324.792969 1603.148438 321.042969 C 1603.089844 319.996094 1604.449219 320.136719 1604.648438 319.542969 C 1604.96875 318.585938 1603.878906 317.40625 1603.898438 317.292969 C 1604.398438 313.042969 1602.921875 308.890625 1603.148438 303.792969 C 1603.308594 300.054688 1604.609375 296.601563 1604.648438 292.542969 C 1604.730469 283.015625 1603.148438 273.265625 1603.148438 263.285156 C 1603.148438 248.976563 1604.648438 234.609375 1604.648438 217.53125 C 1604.648438 211.484375 1605.898438 204.953125 1603.148438 199.527344 C 1604.269531 197.179688 1604.519531 194.925781 1604.648438 192.027344 C 1604.699219 190.878906 1603.191406 190.152344 1603.148438 189.027344 C 1603.109375 188.039063 1604.621094 186.21875 1604.648438 185.277344 C 1604.808594 179.121094 1603.949219 172.226563 1604.648438 165.773438 C 1604.949219 162.925781 1606.820313 159.644531 1606.898438 156.773438 C 1607 152.953125 1604.929688 148.53125 1604.648438 144.769531 C 1603.859375 134.175781 1603.789063 122.03125 1604.648438 112.515625 C 1604.820313 110.578125 1606.101563 108.757813 1606.148438 107.265625 C 1606.210938 105.1875 1605.410156 103.277344 1605.398438 101.265625 C 1605.398438 101.085938 1606.808594 100.140625 1606.898438 99.015625 C 1607.179688 95.148438 1603.640625 92.164063 1605.398438 89.261719 C 1613.398438 89.261719 1621.398438 89.261719 1629.398438 89.261719 C 1628.03125 82.785156 1630.859375 76.121094 1630.898438 70.511719 C 1630.910156 68.835938 1629.710938 68.386719 1629.398438 66.757813 C 1628.648438 62.757813 1630.550781 60.945313 1630.148438 58.507813 C 1628.789063 50.148438 1630.929688 42.347656 1630.898438 34.503906 C 1630.878906 28.289063 1629.449219 21.9375 1630.148438 15.753906 C 1644.800781 13.089844 1659.078125 16.140625 1669.910156 16.503906 C 1671.28125 16.546875 1671.75 15.007813 1672.160156 15.003906 C 1673.378906 14.980469 1672.679688 16.675781 1674.410156 16.503906 C 1674.558594 16.488281 1676.371094 15.054688 1676.660156 15.003906 C 1678.078125 14.753906 1678.769531 15.761719 1680.410156 15.753906 C 1684.988281 15.726563 1689.109375 14.890625 1693.160156 15.003906 C 1696.179688 15.085938 1699.101563 16.34375 1702.160156 16.503906 C 1703.75 16.585938 1703.101563 15.1875 1703.660156 15.003906 C 1705.070313 14.539063 1705.558594 16.535156 1705.910156 16.503906 C 1708.410156 16.253906 1709.371094 14.964844 1711.910156 15.003906 C 1714.140625 15.035156 1715.628906 16.6875 1717.910156 16.503906 C 1720.210938 16.316406 1721.671875 15 1723.910156 15.003906 C 1730.148438 15.011719 1736.660156 16.226563 1743.421875 16.503906 C 1768.460938 17.519531 1790.980469 15.210938 1816.179688 17.253906 C 1810.71875 19.726563 1817.011719 24.371094 1816.929688 30.003906 C 1816.210938 24.484375 1819.160156 23.085938 1820.679688 21.753906 C 1822.078125 20.527344 1817.441406 20.5625 1819.929688 17.253906 C 1828.910156 18.523438 1840.820313 16.863281 1848.429688 19.503906 C 1849.199219 22.148438 1847.710938 24.238281 1847.679688 26.253906 C 1847.601563 31.070313 1848.21875 38.664063 1850.679688 44.257813 C 1844.5 53.464844 1850.519531 68.859375 1846.179688 77.261719 C 1849.699219 79.480469 1847.710938 83.886719 1847.679688 88.511719 C 1863.179688 88.511719 1878.691406 88.511719 1894.191406 88.511719 C 1896.359375 65.679688 1894.789063 39.109375 1896.441406 15.753906 C 1922.109375 13.609375 1955.140625 14.253906 1982.699219 14.253906 C 1992.890625 14.253906 2003.320313 12.886719 2011.949219 13.503906 C 2017.070313 13.867188 2022.28125 17.480469 2026.960938 17.253906 C 2031.328125 17.039063 2035.148438 12.847656 2038.960938 12.753906 C 2038.171875 21.535156 2049.761719 17.949219 2054.710938 21.003906 C 2058.289063 22.078125 2054.128906 15.425781 2057.710938 16.503906 C 2069.558594 17.742188 2083.519531 22.101563 2092.21875 25.503906 C 2095.179688 26.664063 2098.300781 27.355469 2101.21875 28.503906 C 2116.449219 34.519531 2134.238281 48.824219 2137.96875 63.007813 C 2138.621094 65.480469 2139.71875 66.09375 2137.21875 68.261719 C 2144.898438 69.332031 2144.050781 84.0625 2146.96875 91.511719 C 2167.929688 92.058594 2187.550781 93.945313 2208.480469 94.511719 "/>
</g>
<g clip-path="url(#clip2)" clip-rule="nonzero">
<path style=" stroke:none;fill-rule:evenodd;fill:rgb(79.199219%,12.5%,14.898682%);fill-opacity:1;" d="M 828.289063 171.023438 L 828.289063 173.273438 C 827.683594 172.878906 827.070313 172.492188 826.039063 172.523438 C 826.179688 171.917969 826.789063 171.777344 826.789063 171.023438 Z M 829.789063 135.769531 C 829.148438 139.628906 828.019531 143 826.789063 146.269531 C 826.503906 148.554688 829.515625 147.542969 829.789063 149.269531 C 825.957031 151.441406 826.015625 157.5 822.289063 159.773438 C 822.609375 161.449219 825.984375 160.074219 827.539063 160.523438 C 826.074219 162.058594 822.503906 161.488281 820.789063 162.773438 C 820.117188 165.195313 823.234375 163.828125 823.789063 165.023438 C 818.433594 167.230469 822.230469 169.71875 819.285156 173.273438 C 820.796875 174.765625 821.382813 177.179688 823.789063 177.773438 C 824.902344 177.140625 824.875 175.359375 825.289063 174.023438 C 830.441406 178.640625 828.289063 188.984375 828.289063 197.277344 C 828.289063 206.160156 829.609375 216.160156 828.289063 223.53125 C 826.65625 232.632813 816.644531 247.523438 809.535156 252.785156 C 803.195313 257.480469 795.597656 257.285156 784.03125 257.285156 C 770.210938 257.285156 763.371094 257.222656 757.777344 249.035156 C 749.390625 236.753906 746.042969 213.933594 742.777344 195.777344 C 742.644531 193.144531 745.3125 193.308594 745.777344 191.277344 C 744.222656 178.578125 741.503906 167.046875 739.027344 155.273438 C 742.238281 151.984375 743.644531 146.886719 742.777344 139.519531 C 740.214844 137.25 739.835938 143.546875 736.027344 142.519531 C 746.648438 133.371094 742.59375 108.4375 739.027344 94.511719 C 759.679688 89.113281 797.515625 91.828125 825.289063 90.761719 C 825.304688 92.53125 823.996094 92.972656 824.539063 95.265625 C 824.859375 96.941406 828.234375 95.566406 829.789063 96.015625 C 827.671875 97.835938 827.019531 107.269531 830.539063 108.015625 C 826.394531 108.996094 829.882813 112.886719 829.789063 116.265625 C 827.507813 116.988281 826.171875 118.648438 825.289063 120.765625 C 827.152344 123.214844 829.519531 117.503906 830.539063 119.265625 C 834.792969 125.820313 828.5625 129.421875 826.039063 133.519531 C 826.28125 135.273438 829.3125 134.246094 829.789063 135.769531 Z M 561.25 73.511719 C 561.140625 71.871094 559.359375 71.898438 557.5 72.011719 C 556.964844 69.972656 561.039063 72.546875 560.5 70.511719 C 561.105469 73.65625 567.894531 70.617188 569.503906 72.761719 C 569.160156 75.890625 563.769531 70.902344 561.25 73.511719 Z M 542.5 63.757813 C 546.300781 62.710938 544.558594 67.199219 547.75 66.757813 C 546.59375 68.105469 543.300781 65.253906 542.5 63.757813 Z M 490.742188 114.015625 C 490.632813 122.910156 488.4375 129.714844 486.992188 137.269531 L 480.988281 137.269531 L 480.988281 131.269531 C 471.183594 132.960938 463.21875 136.5 453.984375 138.769531 C 453.464844 134.746094 457.699219 135.480469 457.738281 132.019531 C 435.929688 131.964844 415.539063 133.328125 393.976563 133.519531 C 398.222656 131.042969 394.46875 128.996094 392.476563 126.769531 C 399.726563 119.992188 393.382813 105.148438 393.226563 94.511719 C 424.785156 94.960938 458.167969 93.585938 488.492188 95.265625 C 489.136719 100.617188 490.363281 105.394531 490.742188 111.015625 C 491.550781 113.207031 497.433594 110.324219 498.242188 112.515625 C 498.347656 115.621094 493.023438 113.296875 490.742188 114.015625 Z M 975.308594 86.261719 C 969.113281 88.324219 954.707031 90.742188 949.054688 86.261719 L 949.054688 20.253906 L 854.542969 20.253906 C 853.992188 40.054688 854.710938 58.589844 857.542969 75.011719 C 857.179688 77.371094 860.980469 75.570313 861.292969 77.261719 C 857.996094 79.902344 857.1875 84.96875 853.042969 86.261719 C 847.769531 87.90625 838.441406 86.261719 831.289063 86.261719 C 823.96875 86.261719 816.226563 85.949219 809.535156 86.261719 C 783.328125 87.480469 753.808594 89.316406 733.773438 87.011719 C 743.511719 84.996094 754.550781 84.285156 765.28125 83.261719 C 759.820313 75.929688 763.097656 68.59375 765.28125 60.007813 C 765.242188 56.546875 761.007813 57.28125 761.527344 53.257813 C 761.628906 50.359375 764.570313 50.300781 765.28125 48.007813 C 761.570313 38.730469 768.578125 25.121094 764.40625 19.128906 C 764.214844 19.320313 763.996094 19.472656 763.722656 19.550781 C 763.386719 19.640625 763.011719 19.675781 762.625 19.683594 C 757.660156 23.992188 742.425781 21.007813 738.761719 18.164063 C 738.207031 17.730469 738.15625 17.179688 738.375 16.695313 C 732 16.960938 725.617188 17.28125 719.199219 17.351563 C 718.832031 17.355469 718.535156 17.253906 718.308594 17.078125 C 714.625 17.339844 710.96875 17.183594 707.25 17.296875 C 702.355469 17.441406 697.464844 17.8125 692.5625 17.84375 C 683.597656 17.894531 674.628906 17.949219 665.660156 17.875 C 664.175781 24.699219 664.417969 33.859375 664.015625 42.757813 C 663.363281 57.136719 664.355469 71.285156 663.265625 84.011719 C 655.535156 86.035156 642.992188 83.238281 637.761719 87.761719 C 627.484375 86.039063 614.027344 87.492188 602.507813 87.011719 C 602 62.738281 600.058594 35.890625 605.507813 15.753906 C 573.78125 17.03125 536.269531 12.523438 510.242188 19.503906 C 517.882813 40.292969 507.128906 63.40625 511.746094 87.761719 C 484.835938 89.292969 456.6875 86.375 430.734375 84.761719 C 426.410156 84.492188 421.863281 85.640625 417.980469 83.261719 C 414.109375 60.050781 418.515625 40.886719 418.71875 16.671875 C 417.621094 16.683594 416.433594 16.769531 415.339844 16.601563 C 412.910156 16.820313 410.394531 16.628906 407.96875 16.644531 C 407.8125 16.644531 407.695313 16.585938 407.613281 16.496094 C 393.871094 17.121094 380.402344 16.667969 366.609375 16.535156 C 366.53125 16.636719 366.410156 16.707031 366.238281 16.707031 L 355.261719 16.707031 C 355.085938 16.707031 354.960938 16.628906 354.882813 16.519531 L 338.808594 16.519531 C 334.554688 18.257813 330.929688 22.019531 327.21875 22.503906 C 325.726563 44.382813 326.960938 65.019531 326.46875 85.511719 C 323.394531 85.585938 320.320313 85.660156 318.21875 84.761719 C 317.003906 86.300781 314.609375 86.652344 312.96875 87.761719 C 298.765625 86.460938 284.089844 85.632813 270.210938 84.011719 C 270.679688 88.230469 264.46875 88.925781 266.460938 92.261719 C 268.773438 95.167969 273.628906 95.222656 277.710938 95.265625 C 284.589844 95.335938 293.03125 93.277344 300.214844 93.761719 C 300.472656 116.007813 301.144531 137.839844 302.464844 159.023438 C 301.554688 161.609375 297.972656 161.53125 298.714844 165.773438 C 298.179688 167.808594 302.253906 165.238281 301.714844 167.273438 C 299.808594 167.363281 298.804688 168.367188 298.714844 170.273438 C 302.304688 179.148438 301.058594 188.351563 302.464844 196.527344 C 301.757813 198.820313 298.816406 198.878906 298.714844 201.777344 C 300.996094 202.246094 302.550781 203.445313 302.464844 206.277344 C 292.269531 212.945313 307.960938 232.589844 300.214844 242.285156 C 302.742188 244.664063 302.96875 248.890625 302.464844 252.785156 C 301.910156 257.074219 301.933594 258.078125 302.464844 262.535156 C 304.285156 277.757813 300.078125 299.921875 302.464844 312.042969 C 302.800781 313.738281 303.308594 315.195313 304.714844 316.542969 C 301.546875 318.554688 301.367188 330.109375 303.964844 333.046875 C 302.371094 336.207031 301.070313 339.652344 300.214844 343.546875 C 303.027344 346.429688 301.417969 346.511719 300.214844 350.300781 L 306.964844 350.300781 C 310.066406 347.429688 303.050781 345.605469 306.214844 342.796875 C 306.96875 343.390625 305.9375 345.421875 307.714844 346.546875 C 311.398438 343.035156 315.472656 347.269531 317.46875 347.296875 C 317.527344 351.875 313.65625 354.757813 315.21875 358.550781 C 318.921875 358.003906 316.945313 351.777344 320.46875 351.050781 C 323.160156 351.855469 322.921875 355.597656 324.96875 357.050781 C 327.617188 354.871094 329.152344 355.332031 332.46875 354.800781 C 334.273438 358.53125 340.546875 359.558594 344.472656 357.050781 C 344.277344 353.609375 343.671875 353.425781 344.472656 350.300781 C 345.089844 348.417969 347.097656 347.925781 348.222656 346.546875 C 346.367188 345.671875 345.453125 344.585938 347.472656 343.546875 C 347.597656 346.605469 355.8125 343.171875 357.972656 341.296875 C 357.101563 345.421875 359.085938 346.6875 362.472656 346.546875 C 363.566406 344.808594 360.433594 342.777344 364.722656 342.046875 C 368.375 340.898438 367.546875 344.226563 369.976563 344.296875 C 369.9375 342.445313 373.242188 340.957031 371.476563 343.546875 C 372.539063 346.191406 377.835938 341.5 379.726563 344.296875 C 381.5625 343.300781 378.902344 341.507813 380.476563 341.296875 C 390.097656 339.320313 397.914063 331.867188 396.230469 321.042969 C 396.363281 318.929688 399.792969 320.109375 399.230469 317.292969 C 398.605469 315.664063 396.398438 315.625 396.230469 313.542969 L 396.230469 231.78125 C 395.476563 230.285156 392.910156 230.597656 393.226563 228.03125 C 394.554688 224.359375 394.96875 219.773438 396.980469 216.78125 L 459.988281 216.78125 C 467.8125 216.78125 477.355469 215.21875 481.738281 216.78125 C 487.96875 219 488.464844 229.257813 490.742188 234.78125 L 487.742188 234.78125 C 489.828125 240.945313 494.597656 244.429688 496.742188 250.535156 C 492.980469 251.402344 493.0625 245.761719 489.992188 248.285156 C 486.207031 253.304688 487.742188 262.375 487.742188 271.539063 C 487.742188 280.207031 486.230469 291.347656 487.742188 297.792969 C 488.796875 302.296875 493.421875 304.25 493.742188 307.542969 C 492.007813 308.558594 491.257813 310.558594 487.742188 309.792969 C 492.519531 313.515625 490.257813 324.28125 490.742188 332.296875 C 503.085938 331.136719 520.269531 334.820313 528.996094 330.046875 C 530.277344 331.761719 532.367188 331.984375 534.246094 332.296875 C 540.660156 333.359375 567.886719 333.75 572.503906 332.296875 C 581.804688 329.371094 581.203125 314.621094 575.503906 308.292969 C 576.359375 303.746094 578.546875 303.683594 579.253906 299.292969 C 580.847656 289.40625 580.019531 275.125 580.003906 262.535156 C 579.992188 251.996094 580.476563 239.753906 579.253906 231.03125 C 578.617188 226.496094 575.789063 222.171875 575.503906 217.53125 C 574.808594 206.234375 577.214844 193.386719 577.753906 181.527344 C 578.929688 155.636719 581.078125 130.261719 575.503906 110.265625 C 582.046875 107.886719 577.269531 99.855469 577.753906 93.011719 C 597.40625 91.914063 618.125 91.878906 638.511719 91.511719 C 637.1875 105.230469 635.25 118.8125 637.011719 133.519531 C 638.367188 144.839844 644.894531 155.703125 643.761719 164.273438 C 643.0625 169.597656 637.820313 173.007813 637.011719 177.773438 C 646.238281 185.546875 636.089844 215.125 643.011719 225.78125 C 641.0625 225.332031 640.3125 226.082031 640.761719 228.03125 C 641.8125 233.890625 643.921875 239.15625 644.511719 245.285156 C 645.363281 254.082031 642.324219 264.257813 644.511719 272.289063 C 645.40625 275.566406 651.214844 280.792969 654.265625 285.039063 C 657.738281 289.878906 661.191406 294.414063 664.015625 297.792969 C 685.21875 323.167969 718.359375 336.597656 752.527344 345.046875 C 754.519531 345.289063 751.824219 340.847656 754.777344 342.046875 C 761.855469 346.683594 774.554688 345.046875 788.53125 345.046875 C 808.589844 345.046875 824.359375 344.4375 835.039063 339.046875 C 836.148438 339.1875 835.726563 340.859375 835.789063 342.046875 C 857.195313 337.199219 872.921875 326.671875 890.546875 318.042969 C 892.007813 314.046875 888.160156 311.480469 889.046875 310.542969 C 894.621094 309.222656 894.398438 313.691406 898.046875 314.292969 C 898.4375 306.429688 901.171875 300.917969 908.550781 300.042969 C 908.230469 297.113281 904.109375 297.980469 904.800781 294.042969 C 906.40625 295.6875 908.441406 296.898438 912.300781 296.292969 C 916.574219 285.566406 917.757813 271.746094 926.550781 265.539063 C 926.695313 262.394531 922.871094 263.21875 923.550781 259.535156 C 926.636719 246.117188 930.8125 233.792969 933.304688 219.78125 C 926.671875 211.542969 931.761719 183.003906 934.054688 170.273438 C 931.296875 166.53125 929.640625 161.683594 927.300781 157.523438 C 927.328125 154.296875 931.285156 155.007813 930.304688 150.769531 C 929.175781 145.632813 921.386719 147.648438 919.050781 144.769531 C 922.273438 138.929688 930.238281 148.203125 930.304688 145.519531 C 931.761719 139.980469 932.382813 133.597656 934.054688 128.269531 C 931.621094 125.363281 930.074219 120.199219 927.300781 116.265625 C 925.75 114.066406 924.03125 113.644531 923.550781 111.015625 C 922.761719 106.675781 925.0625 101.738281 926.550781 96.765625 C 942.753906 96.3125 957.054688 97.765625 971.558594 99.015625 C 974.515625 96.285156 980.90625 90.804688 975.308594 86.261719 "/>
</g>
<path style=" stroke:none;fill-rule:evenodd;fill:rgb(79.199219%,12.5%,14.898682%);fill-opacity:1;" d="M 550 43.507813 C 549.996094 47.449219 553.152344 44.289063 550 43.507813 "/>
<path style=" stroke:none;fill-rule:evenodd;fill:rgb(79.199219%,12.5%,14.898682%);fill-opacity:1;" d="M 808.035156 166.523438 C 808.917969 162.046875 809.332031 162.054688 808.035156 157.523438 C 810.359375 157.695313 810.375 160.183594 811.035156 162.023438 C 815.535156 161.519531 818.402344 159.390625 820.789063 156.773438 C 820.246094 159.0625 821.554688 159.507813 821.539063 161.273438 C 818.539063 161.273438 817.035156 162.769531 814.035156 162.773438 C 814.035156 164.273438 814.035156 165.773438 814.035156 167.273438 C 815.339844 169.21875 819.160156 168.652344 818.535156 172.523438 C 815.640625 172.667969 814.226563 171.332031 814.035156 168.773438 C 811.382813 166.261719 810.558594 166.378906 808.035156 166.523438 "/>
<path style=" stroke:none;fill-rule:evenodd;fill:rgb(79.199219%,12.5%,14.898682%);fill-opacity:1;" d="M 69.183594 303.792969 C 69.015625 304.378906 68.554688 304.664063 67.683594 304.542969 C 66.835938 309.390625 77.382813 307.910156 75.183594 307.542969 C 71.367188 308.109375 70.292969 305.929688 69.183594 303.792969 Z M 63.179688 305.292969 C 62.816406 304.40625 62.382813 303.59375 61.679688 303.042969 C 61.566406 304.042969 62.859375 307.179688 63.179688 305.292969 Z M 44.429688 301.542969 C 42.242188 301.730469 41.839844 300.128906 40.679688 299.292969 C 38.484375 300.757813 43.054688 303.835938 44.429688 301.542969 Z M 90.183594 301.542969 C 89.566406 299.421875 91.242188 299.597656 90.933594 297.792969 C 88.632813 297.597656 87.5625 296.164063 85.683594 295.542969 C 84.941406 299.785156 88.378906 299.847656 90.183594 301.542969 Z M 48.179688 298.542969 C 48.074219 295.898438 44.816406 296.40625 42.929688 295.542969 C 43.371094 297.847656 46.632813 297.339844 48.179688 298.542969 Z M 81.183594 293.292969 C 80.394531 297.644531 84.433594 293.605469 81.183594 293.292969 Z M 73.683594 292.542969 C 72.820313 290.65625 73.328125 287.394531 70.683594 287.289063 C 70.664063 290.058594 71.019531 292.457031 73.683594 292.542969 Z M 15.175781 285.039063 C 16.445313 282.042969 9.980469 279.113281 6.175781 276.789063 C 6.113281 271.9375 -1.207031 270.886719 0.171875 267.039063 C 5.089844 267.566406 5.589844 272.339844 9.925781 271.539063 C 14.183594 273.566406 11.832031 277.59375 17.425781 278.289063 C 20.289063 272.65625 12.9375 270.789063 9.925781 268.539063 C 10.019531 266.882813 13.105469 268.21875 14.425781 267.789063 C 15.167969 264.347656 11.210938 263.125 13.675781 260.285156 C 11.683594 260.277344 9.390625 260.570313 8.425781 259.535156 C 15.152344 258.457031 21.828125 244.757813 13.675781 242.285156 C 22.050781 238.277344 15.246094 228.171875 13.675781 221.28125 C 22.054688 221.335938 29.375 226.324219 36.929688 229.53125 C 63.816406 240.953125 95.441406 255.890625 138.191406 251.285156 C 146.738281 250.363281 152.925781 246.921875 158.445313 241.535156 C 154.664063 233.675781 145.941406 229.78125 138.941406 226.53125 C 119.871094 217.671875 97.363281 211.757813 75.183594 205.527344 C 70.78125 204.292969 65.515625 204.160156 61.679688 202.527344 C 55.902344 200.066406 48.539063 193.429688 42.179688 188.277344 C 24.605469 174.042969 7.816406 152.691406 5.425781 125.269531 C 4.859375 118.796875 5.425781 111.679688 5.425781 105.015625 C 5.425781 98.417969 4.285156 91.105469 5.425781 84.761719 C 6.753906 77.339844 17.082031 63.085938 21.925781 57.007813 C 43.273438 30.222656 76.363281 12.195313 123.191406 14.253906 C 164.652344 16.074219 203.800781 23.796875 229.703125 44.257813 C 229.703125 71.261719 229.703125 98.265625 229.703125 125.269531 C 221.566406 125.121094 214.132813 119.789063 206.453125 116.265625 C 192.308594 109.777344 177.078125 104.632813 159.195313 100.515625 C 150.511719 98.515625 140.417969 95.148438 132.941406 95.265625 C 122.394531 95.425781 108.0625 101.492188 102.1875 108.015625 C 108.15625 119.925781 123.410156 123.46875 137.441406 127.519531 C 144.269531 129.488281 151.773438 131.835938 159.195313 133.519531 C 166.722656 135.226563 174.890625 135.605469 181.699219 138.019531 C 191.09375 141.347656 201.382813 149.4375 210.203125 156.023438 C 232.4375 172.625 251.640625 190.714844 258.210938 223.53125 C 260.4375 234.664063 261.953125 245.871094 256.710938 254.285156 C 256.371094 256.375 260.796875 253.699219 260.460938 255.785156 C 256.492188 296.683594 220.882813 316.738281 187.699219 332.296875 C 182.628906 334.671875 177.644531 338.265625 173.445313 339.046875 C 165.058594 340.609375 154.125 339.046875 144.191406 339.046875 C 134.203125 339.046875 123.632813 339.890625 114.9375 339.046875 C 107.289063 338.308594 98.464844 335.710938 89.433594 333.796875 C 67.695313 329.191406 37.507813 322.125 22.675781 310.542969 C 18.257813 307.09375 14.328125 302.027344 12.925781 297.042969 C 10.648438 296.472656 8.683594 293.59375 6.925781 291.789063 C 5.367188 290.195313 1.839844 288.863281 3.171875 286.539063 C 8.136719 288.082031 9.101563 293.617188 14.425781 294.792969 C 18.535156 293.90625 11.308594 289.695313 16.675781 289.539063 C 13.203125 287.011719 8.21875 285.992188 5.425781 282.789063 C 8.980469 283.234375 12.8125 283.402344 15.175781 285.039063 "/>
<path style=" stroke:none;fill-rule:evenodd;fill:rgb(79.199219%,12.5%,14.898682%);fill-opacity:1;" d="M 1433.621094 109.515625 C 1420.898438 108.339844 1402.929688 104.8125 1392.371094 110.265625 C 1392.871094 132.070313 1392.730469 161.71875 1393.871094 187.527344 C 1394.351563 198.464844 1395.671875 211.21875 1393.871094 219.78125 C 1393.308594 222.429688 1390.050781 225.355469 1390.121094 228.03125 C 1390.28125 234.875 1401.660156 241.933594 1409.621094 242.285156 C 1415.71875 242.550781 1421.140625 238.488281 1427.621094 239.285156 C 1431.429688 237.976563 1429.371094 242.539063 1432.121094 242.285156 C 1440.710938 236.941406 1453.949219 233.347656 1459.128906 219.78125 C 1465.269531 203.660156 1460.46875 172.289063 1461.378906 152.269531 C 1461.640625 146.550781 1463.039063 139.675781 1462.128906 135.769531 C 1460.46875 128.710938 1452.488281 124.371094 1451.628906 119.265625 C 1447.921875 119.21875 1446.328125 117.0625 1442.621094 117.015625 C 1439.511719 112.382813 1436.46875 107.671875 1433.621094 102.765625 C 1432.738281 102.65625 1431.921875 101.429688 1431.371094 102.765625 C 1433.890625 103.242188 1433.78125 106.363281 1433.621094 109.515625 Z M 1339.859375 60.757813 C 1339.28125 58.84375 1342.800781 57.308594 1340.609375 56.257813 C 1340.070313 57.058594 1337.679688 59.714844 1339.859375 60.757813 Z M 1320.359375 58.507813 C 1322.109375 58.257813 1323.589844 57.738281 1324.109375 56.257813 C 1322.800781 56.949219 1320.078125 56.230469 1320.359375 58.507813 Z M 1334.609375 48.757813 C 1336.699219 49.960938 1336.679688 45.519531 1335.359375 45.757813 C 1335.421875 47.0625 1335.191406 48.089844 1334.609375 48.757813 Z M 1333.109375 32.253906 C 1338.769531 34.738281 1336.769531 30.265625 1333.109375 32.253906 Z M 1345.859375 25.503906 C 1346.070313 23.960938 1348.648438 24.796875 1348.859375 23.253906 C 1347.988281 22.625 1346.851563 22.265625 1345.109375 22.503906 C 1345.238281 23.625 1344.839844 25.269531 1345.859375 25.503906 Z M 1342.109375 21.753906 C 1342.21875 20.867188 1343.449219 20.054688 1342.109375 19.503906 C 1342 20.390625 1340.769531 21.203125 1342.109375 21.753906 Z M 1342.859375 53.257813 C 1346.789063 48.996094 1349.300781 43.710938 1351.859375 38.253906 C 1355.390625 30.722656 1359.558594 24.171875 1363.109375 15.753906 C 1372.78125 15.753906 1384.199219 15.753906 1395.371094 15.753906 C 1406.320313 15.753906 1418.53125 13.914063 1426.871094 15.753906 C 1430.101563 16.464844 1431.339844 19.347656 1434.371094 19.503906 C 1437.53125 20.660156 1434.488281 15.621094 1436.621094 15.753906 C 1466.339844 24.140625 1493.679688 32.390625 1516.878906 49.507813 C 1527.449219 57.296875 1535.988281 67.390625 1543.140625 80.261719 C 1549.921875 92.480469 1556.78125 105.949219 1558.140625 121.515625 C 1558.460938 125.203125 1557.898438 129.1875 1558.140625 132.769531 C 1559.039063 146.390625 1561.300781 159.503906 1561.890625 172.523438 C 1564.769531 235.859375 1543.910156 284.050781 1501.878906 311.292969 C 1499.519531 312.132813 1500.179688 311.363281 1497.378906 311.292969 C 1495.898438 311.8125 1497.570313 315.480469 1495.878906 315.792969 C 1482.671875 321.582031 1468.789063 326.707031 1456.128906 333.046875 C 1453.871094 333.800781 1454.800781 331.375 1454.628906 330.046875 C 1449.148438 335.589844 1433.210938 332.339844 1417.121094 333.046875 C 1402.691406 333.679688 1391.609375 335.90625 1384.121094 330.046875 C 1373.789063 332.042969 1361.800781 337 1357.109375 327.042969 C 1352.621094 328.214844 1352.339844 332.757813 1348.109375 333.796875 C 1340.878906 335.570313 1330.359375 329.699219 1321.859375 330.046875 C 1317.039063 330.242188 1314.039063 332.929688 1309.859375 333.796875 C 1306.738281 334.40625 1309.480469 329.171875 1307.601563 328.546875 C 1306.261719 326.644531 1302.929688 326.726563 1300.851563 325.542969 C 1303.019531 312.917969 1292.878906 302.816406 1300.851563 295.542969 C 1297.601563 282.824219 1295.488281 268.621094 1296.351563 249.035156 C 1296.429688 247.28125 1296.96875 245.402344 1297.101563 243.785156 C 1299.511719 214.382813 1294.03125 177.488281 1297.101563 153.019531 C 1297.710938 148.226563 1300.820313 143.429688 1300.851563 138.769531 C 1300.941406 127.089844 1290.960938 112.875 1298.601563 102.765625 C 1298.300781 99.816406 1294.671875 97.914063 1294.101563 94.511719 C 1292.941406 87.5625 1297.53125 78.644531 1297.851563 69.761719 C 1298.269531 58.113281 1294.75 48.390625 1294.101563 38.253906 C 1295.210938 34.902344 1297.421875 34.867188 1297.851563 31.503906 C 1298.441406 26.949219 1294.160156 22.628906 1294.101563 18.003906 C 1297.898438 18.546875 1299.78125 17.175781 1301.601563 15.753906 C 1305.53125 16.828125 1306.550781 20.808594 1309.859375 22.503906 C 1317.660156 21.363281 1323.238281 16.375 1331.609375 18.003906 C 1331.488281 17.121094 1330.238281 17.371094 1329.359375 17.253906 C 1336.539063 13.933594 1349.730469 16.621094 1359.359375 15.753906 C 1360.589844 18.824219 1356.691406 19.585938 1355.609375 21.753906 C 1353.929688 25.148438 1352.929688 31.722656 1351.109375 36.003906 C 1348.421875 42.351563 1345.011719 46.855469 1342.859375 53.257813 "/>
<path style=" stroke:none;fill-rule:evenodd;fill:rgb(79.199219%,12.5%,14.898682%);fill-opacity:1;" d="M 543.984375 16.214844 L 605.234375 16.214844 L 605.234375 15.761719 L 543.984375 15.761719 L 543.984375 16.214844 "/>
<path style=" stroke:none;fill-rule:evenodd;fill:rgb(79.199219%,12.5%,14.898682%);fill-opacity:1;" d="M 338.925781 16.453125 C 338.867188 16.472656 338.8125 16.492188 338.757813 16.515625 C 338.730469 16.53125 338.699219 16.546875 338.671875 16.566406 C 338.644531 16.585938 338.621094 16.585938 338.59375 16.601563 L 338.59375 17.695313 L 418.710938 17.695313 L 418.710938 16.453125 L 338.925781 16.453125 "/>
<path style=" stroke:none;fill-rule:evenodd;fill:rgb(79.199219%,12.5%,14.898682%);fill-opacity:1;" d="M 764.28125 16.214844 L 663.988281 16.214844 L 663.988281 44.601563 L 764.28125 44.601563 L 764.28125 16.214844 "/>
</g>
</svg>
