<svg xmlns="http://www.w3.org/2000/svg" viewBox="0 0 1000 285.7"><path d="M223 133.5c-1.4 21.6-15.8 51.8-46 89.2-30.2 38.8-56.1 59-77.7 59-12.9 0-24.5-11.5-33.1-36-5.8-21.6-11.5-44.6-18.7-66.2-7.2-24.5-14.4-36-21.6-36-1.4 0-7.2 2.9-17.3 10.1L0 140.7c11.5-10.1 21.6-18.7 33.1-28.8C47.5 99 59 91.8 66.2 91.8c17.3-1.4 27.3 10.1 31.6 36 4.3 27.3 7.2 44.6 8.6 51.8 4.3 23 10.1 34.5 17.3 34.5 4.3 0 11.5-7.2 21.6-21.6 10.1-14.4 14.4-25.9 14.4-33.1 1.4-12.9-4.3-18.7-14.4-18.7-5.8 0-11.5 1.4-17.3 4.3 11.5-36 31.6-53.2 63.3-53.2 23-1.4 33.1 12.9 31.7 41.7m94.9-107.9c0 8.6-4.3 15.8-12.9 24.5-8.6 8.6-20.1 12.9-31.6 12.9-18.7 0-28.8-8.6-27.3-24.5 0-8.6 5.8-17.3 15.8-24.5 10-8.5 20.1-11.4 33-11.4 7.2 0 12.9 2.9 17.3 8.6 4.3 2.9 5.7 8.7 5.7 14.4zM361.1 204c-10.1 17.3-21.6 33.1-38.8 47.5-23 18.7-44.6 28.8-67.6 28.8-10.1 0-18.7-2.9-24.5-10.1-5.8-7.2-8.6-15.8-7.2-25.9 0-11.5 4.3-28.8 10.1-51.8 7.2-23 10.1-36 10.1-37.4 0-8.6-2.9-12.9-8.6-12.9-1.4 0-7.2 2.9-17.3 10.1l-11.5-12.9c10.1-10.1 21.6-18.7 31.6-28.8 14.4-12.9 24.5-18.7 31.6-20.1 11.5-1.4 18.7 2.9 24.5 10.1 5.8 7.2 7.2 17.3 5.8 28.8-4.3 20.1-8.6 46-14.4 77.7 0 14.4 4.3 21.6 15.8 21.6 4.3 0 12.9-4.3 24.5-14.4 10.1-8.6 18.7-15.8 24.5-23l11.4 12.7m313.6 0c-10.1 17.3-21.6 33.1-38.8 47.5-23 18.7-44.6 28.8-67.6 28.8-21.6 0-31.6-11.5-31.6-36 0-10.1 2.9-23 5.8-38.8 4.3-14.4 5.8-27.3 5.8-34.5 0-12.9-2.9-18.7-11.5-18.7s-18.7 10.1-31.6 31.6c-12.9 21.6-20.1 43.2-20.1 63.3 0 14.4 0 25.9 4.3 33.1-23 0-40.3-2.9-48.9-11.5-8.6-7.2-11.5-20.1-11.5-36 0-10.1 1.4-21.6 4.3-31.6s4.3-20.1 4.3-28.8c0-12.9-4.3-18.7-12.9-18.7-8.6 0-17.3 10.1-27.3 28.8-10.1 18.7-14.4 38.8-15.8 60.4 0 18.7 0 31.6 2.9 38.8-23 0-38.8-4.3-48.9-14.4-8.6-8.6-11.5-21.6-11.5-40.3 0-8.6 1.4-20.1 4.3-36 2.9-15.8 4.3-27.3 4.3-36 0-5.8-1.4-8.6-4.3-8.6-1.4 0-7.2 2.9-17.3 10.1l-11.5-12.9c1.4-1.4 11.5-11.5 31.6-28.8 14.4-12.9 23-20.1 28.8-20.1 8.6 0 15.8 2.9 21.6 11.5 5.8 7.2 8.6 17.3 8.6 27.3 0 2.9 0 7.2-1.4 10.1 4.3-7.2 11.5-14.4 17.3-20.1 15.8-12.9 33.1-21.6 51.8-23 15.8-1.4 28.8 2.9 34.5 11.5 5.8 7.2 8.6 17.3 8.6 31.6 2.9-1.4 4.3-4.3 7.2-7.2 7.2-8.6 15.8-15.8 23-21.6 12.9-8.6 25.9-14.4 38.8-14.4 15.8-1.4 27.3 2.9 34.5 11.5 5.8 7.2 8.6 17.3 8.6 31.6 0 8.6-2.9 23-7.2 40.3s-5.8 28.8-5.8 30.2c0 7.2 0 11.5 1.4 14.4 1.4 2.9 5.8 4.3 11.5 4.3 4.3 0 12.9-4.3 24.5-14.4 10.1-8.6 18.7-15.8 24.5-23l12.7 8.7m74.8-51.8c0-8.6-2.9-12.9-11.5-12.9-10.1 0-20.1 7.2-30.2 20.1-10.1 14.4-15.8 27.3-15.8 40.3v7.2c15.8-5.8 30.2-15.8 43.2-27.3 8.5-13 14.3-21.6 14.3-27.4zM863.1 204c-10.1 15.8-28.8 31.6-57.5 47.5-36 20.1-71.9 30.2-107.9 30.2-27.3 0-46-8.6-59-27.3-8.6-12.9-12.9-27.3-11.5-44.6 0-27.3 12.9-53.2 36-77.7 25.9-27.3 57.5-40.3 92.1-40.3 33.1 0 50.3 12.9 51.8 40.3 1.4 17.3-8.6 34.5-28.8 53.2-21.6 20.1-48.9 31.6-80.6 37.4 5.8 8.6 14.4 12.9 27.3 12.9 24.5 0 50.3-5.8 79.1-18.7 20.1-8.6 36-17.3 48.9-27.3l10.1 14.4m80.6-36c0-8.6-1.4-17.3-4.3-24.5-2.9-7.2-7.2-11.5-12.9-11.5-17.3 0-31.6 8.6-41.7 27.3-10.1 15.8-14.4 31.6-14.4 48.9 0 8.6 1.4 15.8 4.3 21.6 4.3 7.2 8.6 11.5 15.8 11.5 14.4 0 27.3-8.6 38.8-27.3 8.6-14.3 12.9-30.1 14.4-46zm56.1 2.9c-1.4 30.2-12.9 57.5-34.5 79.1-21.6 21.6-47.5 33.1-80.6 33.1-25.9 0-46-8.6-60.4-25.9-10.1-12.9-15.8-28.8-17.3-47.5-1.4-28.8 8.6-54.7 31.6-79.1 24.5-27.3 54.7-40.3 90.6-40.3 23 0 41.7 7.2 53.2 23 13.1 15.9 18.8 34.6 17.4 57.6"/></svg>