<?xml version="1.0" encoding="UTF-8"?>
<svg width="38px" height="30px" viewBox="0 0 38 30" version="1.1" xmlns="http://www.w3.org/2000/svg" xmlns:xlink="http://www.w3.org/1999/xlink">
    <!-- Generator: Sketch 63.1 (92452) - https://sketch.com -->
    <title>local_activity-white-24dp copy 2</title>
    <desc>Created with Sketch.</desc>
    <g id="Home-Page-+-Profile" stroke="none" stroke-width="1" fill="none" fill-rule="evenodd">
        <g id="NEW---user-profile---details2" transform="translate(-505.000000, -818.000000)">
            <g id="local_activity-white-24dp-copy-2" transform="translate(503.000000, 812.000000)">
                <polygon id="Path" points="0 0 44 0 44 44 0 44"></polygon>
                <path d="M36.1625,21.3125 C36.1625,19.3273438 37.833125,17.703125 39.875,17.703125 L39.875,10.484375 C39.875,8.49921875 38.204375,6.875 36.1625,6.875 L6.4625,6.875 C4.420625,6.875 2.7685625,8.49921875 2.7685625,10.484375 L2.7685625,17.703125 C4.8104375,17.703125 6.4625,19.3273438 6.4625,21.3125 C6.4625,23.2976562 4.8104375,24.921875 2.75,24.921875 L2.75,32.140625 C2.75,34.1257813 4.420625,35.75 6.4625,35.75 L36.1625,35.75 C38.204375,35.75 39.875,34.1257813 39.875,32.140625 L39.875,24.921875 C37.833125,24.921875 36.1625,23.2976562 36.1625,21.3125 Z M27.957875,29.975 L21.3125,25.8242188 L14.667125,29.975 L16.671875,22.5396875 L10.5648125,17.6850781 L18.4353125,17.2339063 L21.3125,10.1234375 L24.171125,17.2519531 L32.041625,17.703125 L25.9345625,22.5577344 L27.957875,29.975 Z" id="Shape" fill="#FFFFFF" fill-rule="nonzero"></path>
            </g>
        </g>
    </g>
</svg>