<?xml version="1.0" encoding="UTF-8"?>
<svg width="46px" height="32px" viewBox="0 0 46 32" version="1.1" xmlns="http://www.w3.org/2000/svg" xmlns:xlink="http://www.w3.org/1999/xlink">
    <!-- Generator: Sketch 63.1 (92452) - https://sketch.com -->
    <title>Group 2 Copy 8</title>
    <desc>Created with Sketch.</desc>
    <g id="Home-Page-+-Profile" stroke="none" stroke-width="1" fill="none" fill-rule="evenodd">
        <g id="NEW---user-profile---details2" transform="translate(-332.000000, -816.000000)">
            <g id="Group-2-Copy-8" transform="translate(332.000000, 812.000000)">
                <g id="laptop_mac-white-24dp">
                    <polygon id="Path" points="2.05714286 0 47.3142857 0 47.3142857 45.2571429 2.05714286 45.2571429"></polygon>
                    <path d="M37.7142857,31.9462185 C39.7885714,31.9462185 41.4668571,30.2763025 41.4668571,28.2352941 L41.4857143,7.82521008 C41.4857143,5.78420168 39.7885714,4.11428571 37.7142857,4.11428571 L7.54285714,4.11428571 C5.46857143,4.11428571 3.77142857,5.78420168 3.77142857,7.82521008 L3.77142857,28.2352941 C3.77142857,30.2763025 5.46857143,31.9462185 7.54285714,31.9462185 L0,31.9462185 C0,33.9872269 1.69714286,35.6571429 3.77142857,35.6571429 L41.4857143,35.6571429 C43.56,35.6571429 45.2571429,33.9872269 45.2571429,31.9462185 L37.7142857,31.9462185 Z M7.54285714,7.82521008 L37.7142857,7.82521008 L37.7142857,28.2352941 L7.54285714,28.2352941 L7.54285714,7.82521008 Z M22.6285714,33.8016807 C21.5914286,33.8016807 20.7428571,32.9667227 20.7428571,31.9462185 C20.7428571,30.9257143 21.5914286,30.0907563 22.6285714,30.0907563 C23.6657143,30.0907563 24.5142857,30.9257143 24.5142857,31.9462185 C24.5142857,32.9667227 23.6657143,33.8016807 22.6285714,33.8016807 Z" id="Shape" fill="#FFFFFF" fill-rule="nonzero"></path>
                </g>
                <g id="group-white-24dp" transform="translate(12.342857, 8.228571)">
                    <polygon id="Path" points="-0.109714286 0 21.8331429 0 21.8331429 21.9428571 -0.109714286 21.9428571"></polygon>
                    <path d="M13.9162597,9.40408163 C15.4684675,9.40408163 16.7121039,8.22269388 16.7121039,6.75918367 C16.7121039,5.29567347 15.4684675,4.11428571 13.9162597,4.11428571 C12.3640519,4.11428571 11.1110649,5.29567347 11.1110649,6.75918367 C11.1110649,8.22269388 12.3640519,9.40408163 13.9162597,9.40408163 Z M6.43574026,9.40408163 C7.98794805,9.40408163 9.23158442,8.22269388 9.23158442,6.75918367 C9.23158442,5.29567347 7.98794805,4.11428571 6.43574026,4.11428571 C4.88353247,4.11428571 3.63054545,5.29567347 3.63054545,6.75918367 C3.63054545,8.22269388 4.88353247,9.40408163 6.43574026,9.40408163 Z M6.43574026,11.1673469 C4.25703896,11.1673469 -0.109714286,12.1988571 -0.109714286,14.2530612 L-0.109714286,16.4571429 L12.9811948,16.4571429 L12.9811948,14.2530612 C12.9811948,12.1988571 8.61444156,11.1673469 6.43574026,11.1673469 Z M13.9162597,11.1673469 C13.6450909,11.1673469 13.3365195,11.1849796 13.0092468,11.2114286 C14.0939221,11.952 14.8513247,12.9482449 14.8513247,14.2530612 L14.8513247,16.4571429 L20.4617143,16.4571429 L20.4617143,14.2530612 C20.4617143,12.1988571 16.094961,11.1673469 13.9162597,11.1673469 Z" id="Shape" fill="#FFFFFF" fill-rule="nonzero"></path>
                </g>
            </g>
        </g>
    </g>
</svg>