<svg version="1.1" id="Layer_1" xmlns="http://www.w3.org/2000/svg" x="0" y="0" viewBox="0 0 1000 224.1" xml:space="preserve"><style>.st0{fill:#282828}</style><path class="st0" d="M312.1 35c-3.6-13.7-14.6-24.6-28.2-28.2C259.1 0 159.4 0 159.4 0S59.6.2 34.8 6.9C21.1 10.6 10.2 21.5 6.6 35.2 0 60 0 111.8 0 111.8s0 51.8 6.8 76.8c3.6 13.7 14.6 24.6 28.2 28.2 24.8 6.8 124.4 6.8 124.4 6.8s99.7 0 124.4-6.8c13.7-3.6 24.6-14.6 28.2-28.2 6.8-24.8 6.8-76.8 6.8-76.8s.1-51.8-6.7-76.8zM127.6 159.6V64l82.8 47.8-82.8 47.8zm335.1 43.7c-6.4-4.3-10.9-10.9-13.5-19.9-2.6-9-3.8-20.8-3.8-35.9v-20.1c0-14.9 1.4-27.2 4.5-36.2 3.1-9.2 7.8-15.8 14.4-19.9 6.6-4.2 14.9-6.4 25.3-6.4 10.2 0 18.7 2.1 24.8 6.4 6.1 4.3 10.9 10.9 13.7 19.9 2.8 9 4.3 21.1 4.3 36v20.3c0 14.9-1.4 26.9-4.3 35.9s-7.5 15.6-13.7 19.9c-6.4 4.2-14.9 6.4-25.6 6.4-11.2 0-19.6-2.2-26.1-6.4zm35.6-21.8c1.9-4.5 2.6-12.1 2.6-22.4v-43.7c0-10.1-.9-17.3-2.6-21.8-1.9-4.7-4.9-6.9-9.2-6.9-4.3 0-7.1 2.3-9 6.9-1.9 4.7-2.6 12-2.6 21.8v43.7c0 10.2.9 17.9 2.4 22.4 1.6 4.5 4.7 6.8 9.2 6.8 4.1-.1 7.3-2.3 9.2-6.8zM947 148v7.1c0 9 .2 15.8.9 20.3s1.6 7.8 3.3 9.9c1.6 2.1 4.3 3.1 7.8 3.1 4.7 0 8-1.9 9.7-5.5 1.9-3.6 2.6-9.9 2.9-18.2l27.2 1.6c.2 1.2.2 2.9.2 4.9 0 12.8-3.5 22.5-10.6 28.9-7.1 6.4-17 9.7-29.8 9.7-15.6 0-26.3-4.9-32.6-14.6-6.1-9.7-9.4-24.8-9.4-45.1v-24.8c0-20.8 3.3-36.2 9.7-45.9 6.6-9.7 17.7-14.6 33.1-14.6 10.9 0 19.1 2.1 24.8 5.9 5.7 3.8 9.9 10.1 12.3 18.4 2.4 8.3 3.5 19.9 3.5 34.7v23.9h-53v.3zm4.1-58.9c-1.6 2.1-2.6 5.2-3.3 9.7-.7 4.5-.9 11.3-.9 20.5v9.9h22.9v-10.1c0-9-.2-15.8-.9-20.5-.7-4.7-1.6-8-3.3-9.9-1.6-1.9-4.2-2.9-7.5-2.9-3.2.3-5.6 1.4-7 3.3zm-565 56.3L350.4 15.9h31.4l12.5 58.6c3.3 14.6 5.5 26.9 7.1 36.9h.9c1-7.5 3.5-19.4 7.1-36.6L422.2 16h31.4l-36.2 129.1V207h-30.8v-61.7h-.5v.1zM634 67.6v139.9h-24.6l-2.6-17.2h-.7c-6.8 12.8-16.8 19.4-30.2 19.4-9.2 0-16.1-3.1-20.5-9.2-4.5-6.1-6.6-15.6-6.6-28.4V67.6h31.5v102.6c0 6.1.7 10.6 2.1 13.3 1.4 2.6 3.6 3.8 6.8 3.8 2.6 0 5.4-.9 7.8-2.4 2.4-1.6 4.3-3.8 5.5-6.4V67.6H634zm161.5 0v139.9h-24.6l-2.6-17.2h-.7c-6.8 12.8-16.8 19.4-30.2 19.4-9.2 0-16.1-3.1-20.5-9.2-4.5-6.1-6.6-15.6-6.6-28.4V67.6h31.5v102.6c0 6.1.7 10.6 2.1 13.3 1.4 2.6 3.6 3.8 6.8 3.8 2.6 0 5.4-.9 7.8-2.4 2.4-1.6 4.3-3.8 5.5-6.4V67.6h31.5z"/><path class="st0" d="M719.6 41.4h-31.4v166h-30.7v-166h-31.4V15.9h93.2v25.3h.2v.2zm179.9 48.5c-1.9-8.8-4.9-15.1-9.2-19.2-4.3-3.8-10.1-5.9-17.7-5.9-5.7 0-11.3 1.6-16.1 4.9-5.2 3.3-8.8 7.6-11.6 12.8h-.2V8.8h-30.3v198.3h26l3.3-13.3h.7c2.4 4.7 6.1 8.3 10.9 11.3 4.9 2.6 10.2 4.2 16.1 4.2 10.6 0 18.4-4.9 23.6-14.7 4.9-9.9 7.6-25.1 7.6-45.9v-22c-.3-15.8-1.2-28.1-3.1-36.8zm-29 57.1c0 10.2-.3 18.2-1.2 23.9-.9 5.7-2.3 9.9-4.3 12.3-2.1 2.4-4.7 3.6-8 3.6-2.6 0-4.9-.7-7.1-1.9-2.3-1.2-3.8-3.1-5.4-5.5v-79.2c1-3.8 2.9-6.9 5.5-9.4 2.6-2.4 5.4-3.6 8.3-3.6 3.3 0 5.7 1.2 7.5 3.6 1.9 2.4 2.9 6.8 3.6 12.7.7 5.9 1 14.4 1 25.3l.1 18.2z"/></svg>