<svg id="Layer_1" data-name="Layer 1" xmlns="http://www.w3.org/2000/svg" viewBox="0 0 817 270">
  <defs>
    <style>
      .cls-1 {
        fill: #fff;
      }
    </style>
  </defs>
  <g>
    <path class="cls-1" d="M372.16,209.3c-14.45,0-27.93.1-41.41-.15-1.47,0-3.33-1.79-4.29-3.23-9.13-13.76-18.11-27.63-27.15-41.46-1-1.51-2-3-3.34-5-1.19,1.71-2.15,3-3,4.36-9.28,14-18.61,28-27.76,42.14a6.46,6.46,0,0,1-6.25,3.38c-15-.15-30-.18-45,0-3.46,0-5-1.18-6.35-4.24q-22.22-50.55-44.68-101c-.67-1.5-1.4-3-2.5-5.32-1.38,2.84-2.46,4.92-3.4,7.05q-21.81,49.24-43.5,98.54c-1.43,3.26-3.11,4.53-6.75,4.45-11.8-.24-23.61-.09-36.18-.09.64-1.86,1-3.23,1.57-4.52Q105.45,128.61,138.93,53a4.8,4.8,0,0,1,3.58-2.29c12.13-.17,24.26,0,36.39-.18,3.35-.06,3.94,2.09,4.91,4.29L235.58,172c.78,1.76,1.6,3.5,2.66,5.83,1.21-1.52,2.07-2.48,2.8-3.53,9.75-14.27,19.4-28.59,29.28-42.77,1.79-2.57,1.69-4.25-.06-6.77q-23.83-34.38-47.42-68.92c-1-1.45-1.9-3-3.41-5.32h5.69c12.74,0,25.48.11,38.21-.08,3.58-.06,5.71.92,7.56,4.18,7.18,12.66,14.7,25.11,22.1,37.63.84,1.42,1.73,2.79,2.9,4.67,1.05-1.58,1.88-2.75,2.62-4,7.78-12.83,15.62-25.62,23.24-38.54,1.64-2.8,3.4-4,6.77-4,12.89.21,25.78.08,38.66.09,1.46,0,2.92.14,5.08.24-1.19,1.92-2,3.31-2.88,4.63q-23.46,34.64-47,69.2c-1.81,2.63-1.91,4.44-.13,7.16q23.73,36.36,47.17,72.9C370.22,205.9,370.92,207.19,372.16,209.3Z"/>
    <path class="cls-1" d="M433.52,130.29c0-47.18,38.3-84.93,86.18-84.85,47.53.07,85.17,37.26,85.17,84.16,0,47.24-37.89,85-85.49,85.05C471.31,214.75,433.54,177.64,433.52,130.29Zm128.84.1c.13-19-10.83-36.22-27.4-42.95-23.25-9.43-48.78,3.2-56.82,28.1-8.11,25.16,6.59,53,31.09,58.94C536.48,181.06,562.15,159.76,562.36,130.39Z"/>
    <path class="cls-1" d="M698.66,103.85c-.84-2.78-1.37-5-2.16-7.1A23.53,23.53,0,0,0,666,83c-6.62,2.47-10.63,8.19-10.2,14.53s4.22,10.09,11.89,11.7c9.63,2,19.35,3.68,28.91,6a65,65,0,0,1,14,5.22c31.14,15.83,35.64,55.33,8.87,77.83-14.85,12.48-32.49,15.8-51.18,14.08a91.13,91.13,0,0,1-22.54-4.85c-20.26-7.34-31.55-22.65-36.12-43.3a16,16,0,0,1,0-3.07L645,152.62c.58,2,1.06,3.72,1.56,5.41,4.78,16.33,24.31,25.4,40,18.55,6-2.63,9.57-7.9,9.3-13.79-.25-5.51-3.74-9.55-10.76-11.24-8.39-2-17.06-3-25.33-5.33-7.93-2.28-16.13-4.77-23.12-9C613,122.93,608,91.55,625.56,69.71,639,53.1,657.12,46.91,677.94,47.56c10.57.32,20.77,2.51,30.07,7.79,13.71,7.78,22.1,19.52,25.26,34.91.26,1.26-.64,3.84-1.52,4.11C720.92,97.67,710,100.66,698.66,103.85Z"/>
    <path class="cls-1" d="M421.23,209.31c-12.09,0-23.88,0-35.67,0-1,0-2-.21-3.28-.34v-158h39Z"/>
  </g>
</svg>
