<svg id="Layer_1" data-name="Layer 1" xmlns="http://www.w3.org/2000/svg" viewBox="0 0 1083 188">
  <defs>
    <style>
      .cls-1 {
        fill: #fff;
      }
    </style>
  </defs>
  <g>
    <path class="cls-1" d="M812.59,48.54c-2.26,1.7-1.56,3.59-1.57,5.2-.06,14.94,0,29.88,0,44.82,0,8.85,0,17.7,0,26.54a34.67,34.67,0,0,0,.71,6.9c.86,4,2.95,5.73,7,5.79,2.45,0,4.9-.4,7.36-.58a19.47,19.47,0,0,1,4.31-.1c3.69.59,5.63,2.9,5.79,6.51.16,3.92-1.59,6.55-5.18,7.54a14.13,14.13,0,0,1-3.44.39c-2.18,0-4.36.08-6.53-.08a248.83,248.83,0,0,0-36.53,0,54.23,54.23,0,0,1-8.26,0c-4.54-.36-7.11-3.46-6.83-7.9s3.36-6.92,8-6.61c2.6.18,5.18.73,7.78.86,5.38.26,7.76-1.63,8.73-6.93a31.11,31.11,0,0,0,.38-5.63q0-38.07,0-76.15a31.46,31.46,0,0,0-.83-7.31c-.87-3.51-3-5.1-6.57-5.21a53.81,53.81,0,0,0-6.06.42c-1.44.12-2.88.43-4.32.41-4.12,0-6.65-2.32-7.09-6.18-.46-4.11,1.52-7.32,5.56-8a49.81,49.81,0,0,1,8.65-.24q12,0,23.9.11c2.17,0,4.34.09,6.51.24a9.42,9.42,0,0,1,7.22,4.3,62.18,62.18,0,0,1,3.42,5.55q23.47,42.2,46.92,84.4c1,1.83,1.67,4,4.52,5.16a24.87,24.87,0,0,0,.63-3.81q0-34.38,0-68.76a44.32,44.32,0,0,0-.56-6.5c-.75-4.93-3.33-7.09-8.28-7-1.45,0-2.88.31-4.32.45a47.92,47.92,0,0,1-5.2.41c-4-.09-6.37-2.3-6.73-6-.43-4.42,1.31-7.24,5.34-8.15a20.31,20.31,0,0,1,5.61-.45,325.34,325.34,0,0,0,43.49,0,17.62,17.62,0,0,1,4.75.34c4.21.85,6.41,4,6,8.23-.4,3.91-3.18,6.08-7.66,5.91-1.3,0-2.6-.24-3.89-.4-8.31-1-11.5,1.71-11.78,10.19-.06,1.88,0,3.77,0,5.65q0,43.1,0,86.17a32.83,32.83,0,0,1-.35,5.62c-.78,4.22-3.07,6.5-7.26,6.88a55.43,55.43,0,0,1-9.11-.05,8.93,8.93,0,0,1-6.8-4.23c-1.54-2.28-3-4.64-4.34-7q-24.86-43.41-49.69-86.83C815,51.7,813.75,50.2,812.59,48.54Z"/>
    <path class="cls-1" d="M981.52,150.55l-46,1a26.76,26.76,0,0,1-3.47,0c-4.47-.46-7.08-3.61-6.73-8,.33-4.15,3.3-6.73,7.72-6.5,2.75.14,5.48.71,8.22.86,5.14.27,7.57-1.78,8.16-6.87a61.93,61.93,0,0,0,.28-6.95q0-36.78,0-73.55a57.62,57.62,0,0,0-.29-6.95c-.6-5.09-3-7.15-8.11-6.93-2.75.11-5.47.74-8.22.82-6,.18-9.34-4.64-7.16-10.23,1.24-3.18,3.94-4.16,7-4.33s5.8.09,8.7.09h79.2c2.46,0,4.94-.26,7.39-.09,4.26.29,6.27,2.39,6.57,6.62.12,1.73,0,3.48,0,5.22q0,10,0,20c0,1.45.13,2.92,0,4.35a7.14,7.14,0,0,1-7.55,6.84c-4.25-.05-7-2.7-7.19-7.1a47.83,47.83,0,0,1,.26-5.21c.08-1.16.28-2.31.33-3.47.39-8.5-3.28-12.83-11.74-13.48-4-.32-8.12-.22-12.18-.23-6.53,0-13.06-.07-19.58.11-6.26.17-8.48,2.12-8.71,8.37-.32,9-.32,18-.15,27,.09,4.9,1.57,6.24,6.36,6.31a81.82,81.82,0,0,0,12.13-.61c4-.56,5.38-2.49,5.43-6.57,0-2.18-.2-4.36-.14-6.53.13-4.39,2.54-6.83,6.69-6.94s7,2.16,7.28,6.42c.24,3.45-.14,7-.16,10.43,0,6.36-.06,12.73,0,19.09,0,3.33.41,6.68.24,10-.22,4.54-2.9,6.75-7.45,6.59-4.32-.16-6.49-2.39-6.58-6.94-.05-2.17.18-4.35.13-6.52-.08-3.65-1.29-5.71-4.85-6.15a107.62,107.62,0,0,0-15.14-.49c-2,0-3.38,1.58-3.65,3.73a40,40,0,0,0-.4,4.76q-.06,13,0,26.11a44.2,44.2,0,0,0,.48,6.07c.64,4.31,2.75,6.33,7.09,7a14.21,14.21,0,0,0,2.16.19c10.74,0,21.47,0,32.2-.14a18.76,18.76,0,0,0,5.52-1.07,9.61,9.61,0,0,0,7-8.12,60.76,60.76,0,0,0,.3-8.65c0-2.32-.37-4.65-.22-7,.24-3.74,2.73-6,6.47-6.38s6.69,1.55,7.53,5.12a24.87,24.87,0,0,1,.43,5.6c0,7.53,0,15.07,0,22.6a41.22,41.22,0,0,1-.24,6.49c-.58,3.48-2.36,5-5.93,5.19-2.17.14-4.35,0-6.53,0Z"/>
    <path class="cls-1" d="M222.34,150.55q-22.49.48-44.88,1a31.35,31.35,0,0,1-5.22-.14c-3.73-.53-5.73-2.72-6-6.31-.44-5.18,2.56-8.37,7.75-8.07,2.6.14,5.18.69,7.79.85,5.35.32,7.46-1.35,8.33-6.62a40.38,40.38,0,0,0,.48-6.5q0-37.44,0-74.88a41.15,41.15,0,0,0-.64-7.35c-.8-4.29-2.91-6-7.22-5.91-1.73,0-3.46.33-5.19.49a39.73,39.73,0,0,1-4.33.37c-4-.06-6.51-2.21-6.95-5.77-.56-4.57,1.25-7.64,5.49-8.45a39.63,39.63,0,0,1,7.79-.36c21.33.19,42.67.48,64,.62,6.09,0,12.19-.37,18.28-.53a61.82,61.82,0,0,1,7.82,0c3.62.39,5.31,2.37,5.72,6a11.34,11.34,0,0,1,.08,1.3c0,9.29,0,18.57,0,27.86,0,3.32-1.19,6-4.51,7.2-5.38,2-10.21-1.16-10.29-6.91,0-2.89.56-5.78.62-8.67.17-8.6-3.44-12.82-12.08-13.1-10.73-.36-21.48-.25-32.22-.07-5.36.09-7.74,2.46-7.88,7.84-.23,9.42-.18,18.86-.06,28.29.05,3.67,1.41,5.21,5,5.34a86.1,86.1,0,0,0,13.44-.49c4.08-.5,5.41-2.43,5.44-6.54,0-2.17-.26-4.35-.18-6.52.16-4.38,2.62-6.85,6.73-7s6.72,2,7.31,6.39a20.59,20.59,0,0,1,.13,4.77,158.21,158.21,0,0,0,0,30.85,18.82,18.82,0,0,1-.24,5.19c-.68,3.76-3.12,5.46-7.25,5.32-4-.14-6.31-2.18-6.63-6.05a59.05,59.05,0,0,1,.12-6.09c.12-5.32-1.61-7.56-6.92-8a91.51,91.51,0,0,0-12.17-.09c-3,.14-4.3,1.65-4.67,4.73a31.87,31.87,0,0,0-.15,3.91q0,13.07,0,26.12a42.51,42.51,0,0,0,.26,5.65c.66,4.73,2.9,6.85,7.67,7.42a42.6,42.6,0,0,0,4.78.3c8.28,0,16.55,0,24.82,0a42.83,42.83,0,0,0,6.51-.46c6.85-1.08,10.26-4.69,10.76-11.62a73.45,73.45,0,0,0-.29-8.24,31.8,31.8,0,0,1-.17-4.77,7.27,7.27,0,0,1,14.38-.37,29.12,29.12,0,0,1,.14,4.77c0,7.4,0,14.79,0,22.18,0,1.31.08,2.61.07,3.92-.08,6.26-2.11,8.31-8.49,8.2C253.65,151.24,238,150.88,222.34,150.55Z"/>
    <path class="cls-1" d="M459.76,87.13c0-12.62,0-25.25,0-37.87a36.09,36.09,0,0,0-.84-7.76c-.75-3.31-2.84-4.84-6.27-4.91A56.13,56.13,0,0,0,447,37c-1.44.13-2.88.42-4.33.42-4.24,0-6.85-2.17-7.26-5.92-.51-4.74,1.5-7.84,6.06-8.43a77.33,77.33,0,0,1,10-.17c11.75,0,23.5.11,35.25,0,10.3-.12,20.58-.6,30.82,1.27,22.93,4.18,37,17.52,41.94,40.29a102.92,102.92,0,0,1-.55,47c-5.52,22.27-20.94,36-43.73,39.11a114,114,0,0,1-16.91,1.08c-17.42-.22-34.83-1-52.24-.09a28.85,28.85,0,0,1-3.48,0c-5.08-.37-7.6-3.33-7.16-8.37.37-4.23,3.55-6.59,8.36-6.14,2.6.24,5.18.73,7.79.84,4.66.19,6.73-1.42,7.6-6a37.14,37.14,0,0,0,.6-6.91C459.79,112.38,459.76,99.76,459.76,87.13Zm18.29-.63c0,12.48,0,25,0,37.43a44,44,0,0,0,.37,6.5,8.13,8.13,0,0,0,6.67,7.14,23.9,23.9,0,0,0,4.71.79c5.36.09,10.76.35,16.09,0,19.45-1.44,30.84-11.39,35.21-30.34a90.73,90.73,0,0,0,2-21.6c-.13-9.61-1-19.12-4.82-28.12-3.59-8.52-9.38-15-18-18.52-11.5-4.73-23.48-4.81-35.53-2.94-4.29.66-6.17,3.17-6.56,7.5-.14,1.58-.12,3.19-.12,4.78Q478,67.8,478.05,86.5Z"/>
    <path class="cls-1" d="M56.53,87.18c0-12.77,0-25.54,0-38.31A33.16,33.16,0,0,0,55.79,42c-.87-3.85-2.86-5.37-6.77-5.4-1.73,0-3.46.27-5.19.43-1.44.14-2.88.42-4.33.43-4.41,0-7.06-2.29-7.35-6.29-.34-4.54,1.63-7.43,6.05-8.06a67.52,67.52,0,0,1,9.12-.21c12.47,0,24.95.08,37.42,0,9.87-.1,19.71-.49,29.51,1.29,22.94,4.16,37.05,17.49,42,40.24a102.72,102.72,0,0,1-.64,47.46c-5.6,22-20.93,35.63-43.57,38.74a119.58,119.58,0,0,1-17.34,1c-16.83-.17-33.66-1.11-50.49-.08a30.57,30.57,0,0,1-5.66-.09c-4.53-.53-6.79-3.52-6.39-8.2.34-3.94,3.17-6.4,7.47-6.23,2.6.11,5.18.66,7.78.84,5.72.39,8-1.39,8.83-7.12a39.25,39.25,0,0,0,.29-5.64Q56.55,106.12,56.53,87.18Zm18.29-.74c0,12.48,0,25,0,37.43a44,44,0,0,0,.31,6.08c.58,4.16,2.88,6.87,7.13,7.7a25.32,25.32,0,0,0,4.28.71c5.37.08,10.76.35,16.1,0,19.43-1.43,30.93-11.3,35.16-30.34a93.62,93.62,0,0,0,2-15.93c.51-10.78-.22-21.47-3.91-31.75-3.51-9.77-9.77-17.12-19.57-20.93C105,35,93.32,34.9,81.56,36.76c-4.27.67-6.18,3.15-6.61,7.47A47.6,47.6,0,0,0,74.82,49Q74.81,67.73,74.82,86.44Z"/>
    <path class="cls-1" d="M396.57,151.59c-7.69,0-15.37.08-23.06,0-4.7-.07-7.34-2.47-7.72-6.58-.47-5,2.78-8.35,7.85-8,2.6.17,5.2.64,7.79.6,6.41-.1,9.27-3.43,7.57-9.57-1.84-6.69-4.39-13.19-6.75-19.74-.92-2.55-3.14-3.19-5.64-3.18-4.64,0-9.29,0-13.93,0-7.55,0-15.1,0-22.64,0-4.68,0-5.42.56-7,4.91-1.8,4.9-3.58,9.81-5.24,14.75a22.62,22.62,0,0,0-1.15,5.51c-.31,4.2,1.62,6.66,5.81,7.16a49.2,49.2,0,0,0,7.38-.09c1.15-.05,2.31-.39,3.45-.34,4.09.15,6.63,2.56,6.9,6.39.31,4.43-1.92,7.44-6.1,8.09a19.23,19.23,0,0,1-3.48.12c-13.78-.43-27.55-.82-41.33,0a16.23,16.23,0,0,1-2.61,0c-4.14-.41-6.38-2.72-6.55-6.72-.18-4.15,1.67-6.54,5.73-7.42a5.72,5.72,0,0,1,1.28-.22c6.93.07,10.49-4.14,12.66-10q5.82-15.69,11.53-31.43,11.31-31,22.63-62.09a58.12,58.12,0,0,1,2.75-6.38,8,8,0,0,1,7-4.54,84.87,84.87,0,0,1,9.57,0,8.24,8.24,0,0,1,7.24,4.85,72.05,72.05,0,0,1,3.07,7.18q16.17,44.55,32.29,89.12a58.14,58.14,0,0,0,3.35,7.53,9.82,9.82,0,0,0,8.33,5.5,27.58,27.58,0,0,1,3,.42c4.7.85,6.58,3.17,6.31,7.75-.25,4.11-2.59,6.46-7.18,6.47-6.52,0-13.05-.35-19.58-.53-1.16,0-2.32,0-3.48,0Zm-37.91-110-1.26.05a20.18,20.18,0,0,0-1.57,2.88q-7.43,21.11-14.75,42.25c-1.3,3.79-.57,4.76,3.4,4.79q13.49.09,27,0c4,0,4.53-.94,3.4-4.81-.12-.42-.25-.83-.39-1.24q-7-20.1-14-40.2A39.23,39.23,0,0,0,358.66,41.62Z"/>
    <path class="cls-1" d="M624,150.67l-43.09.89c-1.45,0-2.91.08-4.35,0-5.62-.39-8.54-4.7-6.88-10.07,1-3.11,4-4.82,8-4.44,2.46.23,4.89.7,7.35.82,5.15.25,7.45-1.66,8.22-6.84a44.11,44.11,0,0,0,.46-6.5q0-37.2,0-74.39a43.19,43.19,0,0,0-.65-7.79c-.72-3.94-3-5.7-7-5.75a50.43,50.43,0,0,0-5.19.43c-1.44.14-2.88.43-4.32.43-4.24,0-6.78-2.16-7.2-6-.49-4.54,1.38-7.66,5.69-8.28,3.4-.5,6.93-.19,10.4-.18,10.87.06,21.74.18,32.62.19,3.33,0,6.66-.31,10-.41a16.74,16.74,0,0,1,3.47.23c4.59.86,6.73,3.78,6.24,8.37-.42,3.86-3.17,6.16-7.63,6-2.89-.08-5.76-.69-8.65-.82-5.92-.28-8.61,2-9.25,7.87a75.64,75.64,0,0,0-.34,7.82q0,34.38,0,68.74a67.83,67.83,0,0,0,.43,8.68c.61,4.78,3.1,7.65,7.9,7.79,10.56.31,21.16.43,31.72-.1,6.68-.34,10.2-4.09,11.17-10.75.56-3.83.22-7.79.21-11.7,0-1.44-.36-2.88-.39-4.32-.07-4.67,2.54-7.69,6.78-7.95,4.91-.31,7.74,2,8.36,6.79a23.66,23.66,0,0,1,.07,3c0,9.42-.12,18.84,0,28.26.13,9.19-1.48,10.95-10.74,10.77Q645.72,151.14,624,150.67Z"/>
    <path class="cls-1" d="M733.05,87.42c0,11.76,0,23.51,0,35.26a63.06,63.06,0,0,0,.4,8.25c.7,5.1,3.11,7.06,8.26,6.83,2.75-.13,5.48-.67,8.22-.85,5.69-.4,9.06,3.53,7.88,9.09-.7,3.33-3.22,5.36-7.38,5.48s-8.12-.18-12.18-.2q-14.58,0-29.14,0c-4.07,0-8.13.31-12.19.2s-6.55-2.26-7.14-5.71c-.94-5.49,2.21-9.09,7.82-8.79,2.46.13,4.9.6,7.35.79,6.34.47,8.7-1.5,9.4-7.93a72.85,72.85,0,0,0,.38-7.39q0-35.25,0-70.51a65,65,0,0,0-.49-8.25c-.71-5.38-3.07-7.36-8.45-7.12-2.89.14-5.76.77-8.65.83-5.28.12-8-3.13-7.4-8.34.36-2.89,1.86-5,4.69-5.6a32.64,32.64,0,0,1,7.32-.64c8.7.16,17.4.65,26.1.69,6.38,0,12.76-.53,19.14-.72a21.4,21.4,0,0,1,5.6.49c4,1,5.85,3.89,5.38,8.17-.41,3.76-3.06,6.07-7.21,6-2.45-.06-4.89-.57-7.34-.78-7-.63-9.69,1.55-10.15,8.55-.25,3.9-.21,7.83-.22,11.74C733,67.11,733.05,77.27,733.05,87.42Z"/>
  </g>
</svg>
