<svg id="Layer_1" data-name="Layer 1" xmlns="http://www.w3.org/2000/svg" viewBox="0 0 817 270">
  <defs>
    <style>
      .cls-1 {
        fill: #fff;
      }
    </style>
  </defs>
  <g>
    <path class="cls-1" d="M460.3,228c-1.73-.19-3.47-.31-5.2-.57-5.85-.87-11.71-1.71-17.55-2.7-4.41-.75-8.79-1.73-13.18-2.61-.24,0-.48-.13-.9-.25,0-.81,0-1.62,0-2.43.21-14.31.49-28.63.6-42.95.16-22,.34-44,.25-66-.05-14.83-.52-29.66-.84-44.49A33.5,33.5,0,0,0,421,53.47c-.28-.66-.59-1.32-.9-2a9.43,9.43,0,0,0-6.37-5.41l-5.84-1.46c-2.83-.71-3-1-3.17-3.84,0-.26,0-.52,0-.77,0-2.17.2-2.41,2.37-2.83,10.35-2.05,20.7-4.12,31.06-6.11,7.53-1.45,15.09-2.79,22.63-4.17,1.16-.21,2.32-.37,3.44-.55a3.64,3.64,0,0,1,.65,2.74c-.06,9.58-.15,19.16-.2,28.74-.05,10.25-.06,20.5-.1,30.75v2.06l1.9-.75c2.85-1.18,5.66-2.49,8.57-3.5,6.65-2.3,13.59-2.72,20.56-2.92a45.63,45.63,0,0,1,25.79,7.25,52.32,52.32,0,0,1,16.26,16.05,69.93,69.93,0,0,1,10.23,25.32,77.56,77.56,0,0,1,1.05,8.89,123.32,123.32,0,0,1,.06,19.6,93.89,93.89,0,0,1-4,19.63,66.75,66.75,0,0,1-11.72,22.28,65.06,65.06,0,0,1-29.19,20.8,68.76,68.76,0,0,1-20.77,4.41,5.28,5.28,0,0,0-1,.23ZM464.71,102c0,.42-.06.73-.06,1-.1,6.48-.22,13-.27,19.46-.21,25.65.1,51.3.6,76.94.09,4.84.32,9.68.54,14.51.08,1.78.68,2.36,2.47,2.52s3.7.31,5.55.33a20.79,20.79,0,0,0,13.82-4.9A35.91,35.91,0,0,0,496,201.12c5.73-10.59,8.42-22.07,9.8-33.9a123.22,123.22,0,0,0,.55-17.29,90.35,90.35,0,0,0-1.45-16.74,68.35,68.35,0,0,0-6.27-18.51,29.66,29.66,0,0,0-10.2-11.57c-2.18-1.37-4.44-2.74-7-3.07A34.26,34.26,0,0,0,464.71,102Z"/>
    <path class="cls-1" d="M221,228c-1.42-.21-2.84-.39-4.25-.62-14.05-2.25-26.1-8.29-35.75-18.88a64,64,0,0,1-13.79-25.1,97.07,97.07,0,0,1-3.79-32.82,82.61,82.61,0,0,1,3.82-22.46c6.59-19.59,19-33.95,38.42-41.76a70.44,70.44,0,0,1,21-4.63,80.33,80.33,0,0,1,26.21,2.19,57.88,57.88,0,0,1,27,14.93,61.72,61.72,0,0,1,14.07,21.76,89.14,89.14,0,0,1,5.28,21.22,93.08,93.08,0,0,1,.4,17.74,110.53,110.53,0,0,1-1,11.52A72,72,0,0,1,287.11,200c-10.41,15.26-25,24-43,27.3-1.61.3-3.25.47-4.87.7Zm35.8-67.56A205.38,205.38,0,0,0,255,128.76a81,81,0,0,0-4.78-18.32,37.9,37.9,0,0,0-9.52-14.08c-4.25-3.87-9.21-4.78-14.66-3.55-4,.91-6.95,3.46-9.35,6.68a34.75,34.75,0,0,0-4.72,9.16,95.9,95.9,0,0,0-5.12,28.45c-.32,7.72-.37,15.45-.33,23.17a120,120,0,0,0,2.39,24.85A81.47,81.47,0,0,0,214.56,203a33.75,33.75,0,0,0,6.57,9.65,16,16,0,0,0,22.3.52,30,30,0,0,0,6.87-9.78,73.73,73.73,0,0,0,5-19.53A207.88,207.88,0,0,0,256.8,160.39Z"/>
    <path class="cls-1" d="M620.46,228c-1.27-.18-2.54-.34-3.8-.54-20.44-3.3-36.18-13.63-46.78-31.5a72.19,72.19,0,0,1-9-24.69,53.69,53.69,0,0,1-.58-5.53,132.32,132.32,0,0,1-.08-19.91,77.52,77.52,0,0,1,6.17-24.13,66.32,66.32,0,0,1,14-21.13,62.65,62.65,0,0,1,29-16.61,72.73,72.73,0,0,1,25-2.16c8.64.78,16.78,3,24.12,7.85a49.15,49.15,0,0,1,16,17.13,72,72,0,0,1,8.13,24A93.48,93.48,0,0,1,684,144.09c0,1.59,0,3.18,0,5-7,.1-13.87,0-20.69.08l-20.4.08c-6.86,0-13.71.09-20.56.11s-13.57,0-20.42,0c0,1.55,0,2.88,0,4.2a77.55,77.55,0,0,0,4,23,45.28,45.28,0,0,0,20.36,24.93,36.45,36.45,0,0,0,15.87,4.69,63.08,63.08,0,0,0,15.1-.42,40.76,40.76,0,0,0,15.22-5.72c1.49-.92,3-1.76,4.52-2.66a1.64,1.64,0,0,1,2.23.29c.14.15.3.29.44.43,2.74,2.79,2.9,4.23.36,7.16a62.54,62.54,0,0,1-23,17.08,75.6,75.6,0,0,1-15.77,4.81c-1.22.22-2.45.31-3.68.48-.55.08-1.1.19-1.65.29Zm21.6-91.44c0-.49,0-.74,0-1a178.56,178.56,0,0,0-1.56-18.77,62.34,62.34,0,0,0-3.35-13.3A23.43,23.43,0,0,0,632.8,96,10.49,10.49,0,0,0,620,93.46a17.24,17.24,0,0,0-5.93,4.61,33.92,33.92,0,0,0-5.47,8.92c-3.91,9-5.78,18.53-6.6,28.28,0,.7,0,1.4,0,2.21C615.46,137.41,628.68,137.05,642.06,136.51Z"/>
    <path class="cls-1" d="M727.13,228c-2.19-.31-4.39-.58-6.57-.94a156.31,156.31,0,0,1-23.32-5.25c-1.56-.51-3.06-1.18-4.74-1.84-.33-13.79-.67-27.52-1-41.29a12.33,12.33,0,0,1,7.64-1.7l1.43,3.47a92.56,92.56,0,0,0,9.06,17.69,42.51,42.51,0,0,0,8.24,9.16,27.51,27.51,0,0,0,17.33,6.42,47.75,47.75,0,0,0,5.86-.2,19.39,19.39,0,0,0,17.36-18,22.6,22.6,0,0,0-.54-7.51,16.53,16.53,0,0,0-6.21-8.8,41.81,41.81,0,0,0-9-5.39c-5.46-2.42-11-4.71-16.49-7a89.52,89.52,0,0,1-13.38-6.36A39.19,39.19,0,0,1,698,144.66a35.89,35.89,0,0,1-3.45-12.59,45.5,45.5,0,0,1,1.21-17.15,42.33,42.33,0,0,1,12.57-19.83,49.71,49.71,0,0,1,23.45-11.8A86.91,86.91,0,0,1,759.08,82a116.4,116.4,0,0,1,22.75,4.17c2.5.76,4.93,1.75,7.46,2.65.31,12.43.63,24.67,1,37.08-1.75.58-3.37,1.21-5,1.66-1.45.39-2.1.07-2.78-1.27a43.67,43.67,0,0,1-1.77-4.1,75.38,75.38,0,0,0-7.83-15.72c-4.5-6.54-10.39-11.07-18.28-12.75a22.21,22.21,0,0,0-8.59-.34,17.77,17.77,0,0,0-14.48,16c-.13,1.63-.17,3.29-.14,4.93a14.27,14.27,0,0,0,3.87,9.36,34.22,34.22,0,0,0,7.58,6.3,118.56,118.56,0,0,0,16.83,8.42,167.13,167.13,0,0,1,16.22,7.58,47.8,47.8,0,0,1,12.86,9.77A31.72,31.72,0,0,1,797,176.16c.12,4.27-.06,8.55-.3,12.81-.21,3.59-1.54,6.92-2.91,10.2C789.43,209.48,782,216.79,772,221.65a65.35,65.35,0,0,1-17.3,5.55,62.68,62.68,0,0,1-6.3.49l-3.37.26Z"/>
    <path class="cls-1" d="M26.3,39.38l-.31-9a13.34,13.34,0,0,1,4.38-.52c6.59,0,13.19-.08,19.78-.08l104.5.08q13.07,0,26.12.06h1.86c.14,1.07.35,2,.38,3,.22,8.08.45,16.16.6,24.25.17,8.91.26,17.82.38,26.73,0,.51,0,1,0,1.72-2.5.69-5,1.47-7.44,2-1.82.39-2.36,0-3.16-1.69-.93-2-1.71-4.08-2.52-6.14A82.64,82.64,0,0,0,161,61a38.54,38.54,0,0,0-15.75-12.82,30.85,30.85,0,0,0-11.07-2.57c-5.25-.21-10.51-.31-15.76-.37-5.87-.06-11.75,0-17.62,0-.45,0-.91,0-1.46.08-.14,1.28-.33,2.49-.39,3.71-.22,4.17-.44,8.34-.57,12.5q-.91,29.28-.79,58.56c0,.45,0,.91.06,1.46a11.43,11.43,0,0,0,1.23.11c6.59-.23,13.19-.39,19.77-.71,6.4-.32,11.2-3.45,14.64-8.77a40.46,40.46,0,0,0,4.88-12c.45-1.74.89-3.49,1.38-5.44l9-.33V161l-9-.27c-.58-2.32-1.11-4.52-1.7-6.7a34.92,34.92,0,0,0-5.28-11.77,29.9,29.9,0,0,0-3.83-4.21,10.77,10.77,0,0,0-6.06-2.87c-3.57-.43-7.15-.88-10.74-1.1-4.48-.28-9-.34-13.44-.48-.25,0-.49,0-.83.05,0,.58-.09,1.08-.08,1.58.14,11,.15,22,.5,33.06.23,7.46.87,14.91,1.5,22.34a44.51,44.51,0,0,0,2.68,12,21.61,21.61,0,0,0,3,5.57,12.23,12.23,0,0,0,7.41,5c3.58.72,7.18,1.35,10.77,2,.76.14,1.51.32,2.27.46a1.85,1.85,0,0,1,1.6,1.64,14.06,14.06,0,0,1,.07,5.67c-.26,1.22-.51,1.46-1.76,1.47q-6.1.09-12.21.11c-14.74,0-29.47.13-44.21.11-13.19,0-26.38-.13-39.57-.2-.52,0-1,0-1.55,0-1.54,0-1.7-.13-1.83-1.64a36.51,36.51,0,0,1-.14-4.31c.07-1.89.53-2.48,2.34-3s3.71-.81,5.57-1.21l4.08-.87c4.92-1,8.22-4.06,10.49-8.38a33.1,33.1,0,0,0,3-10.16,137.49,137.49,0,0,0,1.58-16.45c1.09-24.09.94-48.2.81-72.3,0-9.22-.27-18.44-.57-27.65a120.11,120.11,0,0,0-2.1-20.72,30.48,30.48,0,0,0-3.8-9.89,14.52,14.52,0,0,0-7.4-6A34.67,34.67,0,0,0,31.64,40C29.91,39.83,28.17,39.61,26.3,39.38Z"/>
    <path class="cls-1" d="M360.28,81.85c-.33,9.54-.66,18.89-1,28.39a2.59,2.59,0,0,0,1-1.36,75.32,75.32,0,0,1,8.15-12.37,42,42,0,0,1,20.52-14,35.52,35.52,0,0,1,21.3.44,12.82,12.82,0,0,1,2.92,1.39c1.45.9,1.65,1.47,1.08,3.1-1.64,4.71-3.27,9.43-5,14.1-2.53,6.69-5.17,13.34-7.78,20-.29.75-.7,1.46-1.14,2.37-1.78-.74-3.46-1.37-5.08-2.13a54.05,54.05,0,0,0-9.09-3.42,32.21,32.21,0,0,0-20,1.07,17.09,17.09,0,0,0-5.09,2.87,4.07,4.07,0,0,0-1.66,3c-.15,3.45-.43,6.89-.45,10.34-.07,11.69-.21,23.38,0,35.07.15,9.06.73,18.11,1.22,27.16a31,31,0,0,0,1.86,9.36c1.12,3,2.9,5.41,6,6.51a28.17,28.17,0,0,0,5.41,1.16c3.05.44,6.12.74,9.29,1.12.58,2.73.1,5.48,0,8.33-.49,0-.89.11-1.28.11H305.09q-2.08,0-4.17-.12c-1.13-.07-1.36-.26-1.4-1.4-.07-2.21,0-4.42,0-6.79,2.14-.43,4.15-.85,6.16-1.23a15.25,15.25,0,0,0,6.43-2.44,13,13,0,0,0,5-8.77,119.18,119.18,0,0,0,1.23-13.06c.74-20.49.76-41,.31-61.49a98,98,0,0,0-1.21-15.39,28,28,0,0,0-1.52-5.48,9.88,9.88,0,0,0-7.66-6.48c-2.32-.45-4.65-.91-7-1.39-1.68-.35-1.85-.54-1.93-2.23a20.82,20.82,0,0,1,0-2.62c.13-1.65.46-2,2.08-2.4,2.36-.53,4.73-1.06,7.1-1.54l44.52-8.89q2.58-.51,5.17-.92A15.23,15.23,0,0,1,360.28,81.85Z"/>
  </g>
</svg>
