<svg id="Layer_1" data-name="Layer 1" xmlns="http://www.w3.org/2000/svg" viewBox="0 0 1083 188">
  <defs>
    <style>
      .cls-1 {
        fill: #fff;
      }
    </style>
  </defs>
  <g>
    <path class="cls-1" d="M167.76,69.73h-49V168H70.58V69.87H22.41V20.41H167.57V69.93Z"/>
    <path class="cls-1" d="M216,70.16V119h96.59v49H167.76V69.73l-.19.2,48.55.42Z"/>
    <path class="cls-1" d="M216.12,70.35V20.56h96.44V69.28c-2.2.11-4.31.3-6.42.3q-41.83,0-83.67,0c-2.17,0-4.35.34-6.51.53Z"/>
    <path class="cls-1" d="M717.09,81c-6.94,2.78-13.55,5.45-20.64,8.3-1.18-2.2-2.21-4.28-3.39-6.28-5-8.56-16.44-9.08-21-.37-5.91,11.27-5.82,23.29.07,34.58,3.92,7.5,14.16,8.24,20.07,2.08a96,96,0,0,0,5.88-7.63l18.75,9.94c-5.07,14.13-18.93,22.64-35.42,22.08-20-.67-33.49-12.32-36.79-32.1-2.9-17.39-1.24-33.85,12.7-46.53C676.72,47.38,707.85,55.35,717.09,81Z"/>
    <path class="cls-1" d="M1023.38,142.16h-21.6c-.12-2.18-.3-3.95-.31-5.71,0-22.87.07-45.74-.11-68.61,0-3.8,1-5.79,4.73-7,5.48-1.81,10.78-4.18,17.14-6.71V80.89c5.93-1.36,11.08-3.29,16.3-3.56,10.1-.51,17.77,5.37,19.08,15.38s1.05,20,1.31,30c.16,6.38,0,12.76,0,19.53h-21.67c0-10,0-19.94,0-29.9a86.75,86.75,0,0,0-.47-10.2c-.52-4.13-3-6.58-7.33-6.37s-6.69,2.69-6.76,7c-.2,10.43-.23,20.87-.31,31.3C1023.37,136.56,1023.38,139.13,1023.38,142.16Z"/>
    <path class="cls-1" d="M592.67,54.21V81.67c4-1.39,7.38-2.9,10.92-3.76,12.32-3,23.52,3,24.59,15.39,1.4,16,.34,32.3.34,48.89H608.1c-.13-2.36-.37-4.66-.38-7-.07-9.83,0-19.66-.13-29.48-.14-7.25-2.56-10.24-7.51-10s-7.16,3.39-7.23,10.51c-.09,9.83,0,19.66,0,29.48v6.42H571.47c-.13-1.71-.35-3.26-.35-4.82,0-23.26.06-46.53-.09-69.79,0-3.52.9-5.42,4.38-6.58C581.06,59,586.54,56.63,592.67,54.21Z"/>
    <path class="cls-1" d="M412.66,77.89v64h-23V78.19H365.77V57.88h70.4v20Z"/>
    <path class="cls-1" d="M862.53,78.14c7.75,1.43,15.46-2,23,2.76,3-.93,7.13-2.78,11.39-3.36,13.14-1.79,22.34,6.09,23.06,20.67.7,14.36.15,28.78.15,43.6H898.52V117.2c0-3.61,0-7.22,0-10.83-.08-7.6-2.34-10.94-7.36-10.93s-7.23,3.09-7.25,10.87c0,11.77,0,23.53,0,35.61H862.53Z"/>
    <path class="cls-1" d="M788.17,78.84h21.07c0,4.94,0,9.85,0,14.76,0,7.42-.06,14.84.19,22.26.23,7.08,2.33,9.6,7.34,9.45,6.49-.2,7.08-5,7.17-9.77.2-10.63.09-21.26.1-31.89V79.57h21.32v62.91c-7.64-.72-15.32,2.07-23.56-2.21-2.45.75-6.35,2.54-10.41,3-12.85,1.6-21.94-4.37-22.93-17.07C787.24,110.73,788.17,95.06,788.17,78.84Z"/>
    <path class="cls-1" d="M481.94,123.2l7.9,13.27c-12.62,7.17-25.4,10.1-38.67,4.55C439,135.92,435,125,434.6,112.67a51.15,51.15,0,0,1,.95-12.55C438.85,85.07,450,76.6,465,77.28c14.79.68,24.26,9.93,26.32,26.16.52,4.12.08,8.35.08,13.1H454.83C455.7,127.89,462.09,129.38,481.94,123.2Zm-9.82-20c-.8-7.16-3.08-9.56-8.68-9.59s-7.74,2.5-8.35,9.59Z"/>
    <path class="cls-1" d="M988.22,128.16c-7,12.61-18.23,17.67-32.17,14.81-12.5-2.57-21.26-12-22.11-25.83a63.18,63.18,0,0,1,2.59-23c3.69-11.3,13.22-16,24.76-16.76S981.85,81.08,988,91.81L973.8,102.65a23.07,23.07,0,0,1-2.37-2.66c-2.22-3.48-5.37-6.51-9.31-4.66a12.91,12.91,0,0,0-6.16,7.81,31.8,31.8,0,0,0-.09,14.23c.76,3.15,3.82,7.3,6.59,8s6.59-2.22,9.78-3.87c1.12-.58,1.73-2.13,2.9-3.66Z"/>
    <path class="cls-1" d="M558,128.1c-6.58,12-16.45,16.82-30.3,15.13-11.54-1.4-20.43-8.7-22.79-20.71a64.38,64.38,0,0,1-.46-22.53c2.18-13.09,10.43-20.16,23.39-22.28,12.71-2.08,22.52,2.4,29.94,14.12l-13.88,10.55c-.74-.33-1.23-.38-1.41-.64-2.63-3.88-5.23-8.07-10.89-6.57-5.85,1.55-6.34,6.74-6.67,11.53-.25,3.76-.45,7.79.66,11.28.91,2.87,3.42,6.63,5.89,7.23,2.81.68,6.49-1.45,9.54-2.89,1.48-.69,2.39-2.59,4-4.44Z"/>
    <path class="cls-1" d="M731.5,78.34c7.79,1.67,15.71-2.48,23.29,3.22,6.1-4.69,13.62-6.13,22-1.35-1.64,7.13-3.24,14.11-4.94,21.52-1.22-.75-2.1-1.69-3.11-1.86-3.94-.65-8.52-2.47-11.69-1.11-2.35,1-3.88,6.21-4,9.62-.5,11-.19,22-.19,33.42H731.5Z"/>
  </g>
</svg>
