<svg id="Layer_1" data-name="Layer 1" xmlns="http://www.w3.org/2000/svg" viewBox="0 0 1043 270">
  <defs>
    <style>
      .cls-1 {
        fill: #fff;
      }
    </style>
  </defs>
  <g>
    <path class="cls-1" d="M369,56.67H470.71c-4.32,14.47-8.42,28.43-12.78,42.3-.3,1-2.57,1.77-4,1.83-5.15.21-10.32.08-16.46.08L452,152.4l1.15.24c.56-1.73,1.15-3.45,1.68-5.19q13.06-43.26,26.07-86.56c.95-3.17,1.94-4.93,5.86-4.92,44.6.16,89.21.11,133.81.12.91,0,1.83.13,3.21.24v44.22h-45v16.52h28.36v37.2H578.71v18.21h45.07V217H529.29V86.54l-1.06-.26c-1.5,3.85-3.05,7.69-4.48,11.57-14,38-28.09,75.94-41.9,114-1.61,4.42-3.74,5.79-8.33,5.69-14.06-.31-28.13-.17-42.2-.06-2.9,0-4.66-.54-5.79-3.66q-28-77.44-56.26-154.8A14.21,14.21,0,0,1,369,56.67Z"/>
    <path class="cls-1" d="M119.38,56.6H182v43.89H170.69V116.8h23.22V56.74h51.18v160.6H194.18V157H170.42v60.39h-51Z"/>
    <path class="cls-1" d="M635.85,57c.74-.32,1.07-.59,1.4-.59,22.37.18,44.8-.58,67.09.84,26.87,1.71,45.4,18.58,49.59,43.56,2.34,13.93,1.35,27.92-6.4,40.21-3.63,5.77-9.14,10.35-14.18,15.9l40.58,60.48H762.64c-13.88,0-27.76-.12-41.63.08-3.72.05-6.07-1.07-8.21-4.18-8.15-11.84-16.58-23.47-25.88-36.54v40.28H635.85ZM687,128.41c6.82,0,12.82-1.2,16.63-7,3.21-4.91,3-10.32-.09-15.16-3.75-5.85-9.68-7.28-16.54-6.91Z"/>
    <path class="cls-1" d="M898.11,118.57v31.25c0,16.1.11,32.2-.14,48.3,0,2.19-1.3,5.18-3,6.38-28.75,20.43-76.81,26.77-111.05-5.47-29.07-27.36-34.81-75.1-12.34-108.33,14.69-21.73,35.65-33,61.61-34.35,15.27-.78,30.6-.14,46.23-.14v47.53H865.14c-8,0-15.92-.06-23.88,0-18,.16-32.33,15.36-32.2,34.13a32.58,32.58,0,0,0,33.07,32.53c9.29-.15,10.46-1.34,10.41-10.44,0-1.47,0-2.94,0-5H826.11V118.57Z"/>
    <path class="cls-1" d="M1002.56,100.86H957.25v16.48h28.4v37.1H957.22v18.42H1003v35c0,9.89,0,9.89-10,9.89H908.29v-161h94.27Z"/>
    <path class="cls-1" d="M334.34,154.51H305.9v18.21H351v44.61h-94V56.62h94.18v44H306v16.48h28.39Z"/>
    <path class="cls-1" d="M56.5,100.78H26.36V56.64h81.16V217.42h-51Z"/>
  </g>
</svg>
