<svg id="Layer_1" data-name="Layer 1" xmlns="http://www.w3.org/2000/svg" viewBox="0 0 817 270">
  <defs>
    <style>
      .cls-1 {
        fill: #fff;
      }
    </style>
  </defs>
  <g>
    <path class="cls-1" d="M32.47,234.92,89.64,61.1c-19.3,6.21-37.71,12.14-57.1,13l-.76-2a34.14,34.14,0,0,1,3.72-2.9c10-5.81,17.75-13.67,22.46-24.45.67-1.53,3.4-3.48,4.72-3.19,23.08,5.18,45.11,1.09,66.79-6.89,1.39-.52,2.85-.85,5.56-1.64L84.11,176.85l.85.52,32.38-35q50.52-54.7,101-109.48c2.44-2.65,4.59-2.92,7.94-2.24,89,18,178.81,27.23,269.6,25.3,43.41-.93,86.48-5.62,128-19.36,7.43-2.46,12.88-1.76,19.57,1.64,29.57,15,61.46,18.4,94.07,17.41,5-.15,9.92-.6,14.87-.55,1.57,0,3.11,1.22,4.67,1.88-1.43,1-2.75,2.51-4.31,2.81-17.77,3.47-35.5,7.27-53.39,10-71.62,10.85-143.65,12.32-215.88,8.91-72.9-3.45-145.29-11-216.83-25.84-5.41-1.12-10.92-1.93-16.17-3.59-4.25-1.34-6.93-.24-10,2.71Q157.65,130.31,74.73,208.48c-6.24,5.9-13.05,11.33-18.57,17.85C49.94,233.68,42,234.34,32.47,234.92Z"/>
    <path class="cls-1" d="M287.46,97.67c-6.11,2.75-11.37,4.41-15.83,7.3-5.95,3.84-7,10.73-3.81,17.86,2.58,5.71,1.32,7.79-4.79,7.9-11.37.22-17.86-9.73-13.84-21.2C252,101.47,258.4,97,265.81,94c16.86-6.81,34.65-7.67,52.4-6.26a144.24,144.24,0,0,1,33.53,6.32c18.93,6.23,27.4,20.91,24.27,38.77-3.08,17.54-17.78,29.78-36.57,30-6.25.09-12.51-.65-19.84-1.07,1.22,15.36,1.55,30.92,12.43,43.31,7.56,8.62,18.19,5.74,21.56-5.24.49-1.59,1-3.19,1.49-4.92,7.28,4.64,10.06,13.34,7.68,23-2.11,8.59-9.15,14.15-18.81,14.88-16.65,1.24-27.7-5.7-33.79-21.39-5.94-15.32-6.33-31.29-5-47.39.49-5.77,1.48-11.5,2.15-16.54,6.9,1.43,12.75,3.34,18.7,3.71,10,.63,17.83-4.86,21.58-13.86,4.26-10.23,2.39-22.39-4.73-29.35-6.79-6.62-15.29-9.24-24.51-9.24-1.47,0-3.74,2.65-4.29,4.48-9,29.55-17.7,59.17-26.49,88.77-1.95,6.58-3.63,13.26-5.94,19.71-1.78,5-.1,7.1,4.68,7.88,1.87.3,3.68.94,7.55,2-2.51,2-4,4.22-5.43,4.24-15.82.25-31.65.15-48.45-1.22,1.46-1.42,2.76-3.8,4.41-4.08,6.51-1.12,8.81-5.31,10.49-11.11,10.19-35.14,20.66-70.19,31-105.28C286.39,102.59,286.69,101,287.46,97.67Z"/>
    <path class="cls-1" d="M239,81.15c-.9,12.32-1.61,22.73-2.44,33.12Q234,147.65,231.23,181c-.79,9.89-1.34,19.81-2.44,29.66-.65,5.73.61,9.31,7,9.67.87,0,1.7.74,3.78,1.7-1.66,1.62-2.88,3.84-4.13,3.86-15.38.24-30.77.16-46.16.16l-.83-1.58c1.62-1.42,3.12-3.87,4.88-4.07,7.47-.83,9.86-4.84,9.62-12-.18-5.25.82-10.54,1.35-16.53H184.21c-9.55,0-19.1,0-28.64.06-1.84,0-4.39,0-5.37,1.14-6.63,7.52-12.92,15.34-20,23.9l12,4.78c-1.85,1.72-3.22,4.11-4.65,4.14-12.56.3-25.12.17-37.69.17l-.9-1.49c1.56-1.4,3-3.84,4.7-4,8.17-.94,13.18-6.18,18.06-11.94C155.9,168.36,190.05,128,224.61,88,227.52,84.65,233.3,83.77,239,81.15ZM159.32,182c14.38,0,27.28-.17,40.17.09,4.72.1,6.24-1.68,6.57-6.2.88-12.35,2.23-24.67,3.31-37,.54-6.13.89-12.28,1.33-18.42l-1.09-.35Z"/>
    <path class="cls-1" d="M540.64,90.84V122c-4.24,1.63-7,.59-8-4a8.79,8.79,0,0,0-.4-1.08c-6.68-16.51-1.77-13.83-20.92-14-14-.16-14,0-18.08,13.26-3.6,11.82-7.05,23.7-10.82,36.39,8.93,0,17.38.95,25.43-.45,3.51-.61,6.53-5.78,9.13-9.35,2.32-3.19,4.6-4.92,9.21-3.1q-3,10.58-6.11,21.17c-1.27,4.4-2.83,8.73-3.8,13.19s-3.1,6.31-8.1,4.43c0-3.65-.09-7.6,0-11.53.11-3.65-1.53-5.26-5.13-5.15-2.86.1-5.73,0-8.59,0-15.06,0-15,0-19.22,14.8-3.78,13.15-7.77,26.24-11.87,40.06,13.4,0,26.11.2,38.8-.19,2.21-.07,4.74-2.27,6.43-4.12A141.18,141.18,0,0,0,519.39,199c2.52-3.59,5.36-5.15,10.26-3.48-1.69,4.18-3.32,8.35-5,12.49-2.27,5.46-4.6,10.89-6.91,16.33-2.82,6.62-3,6.47-9.37,3.26-2.41-1.21-5.5-1.47-8.28-1.48-24.62-.11-49.25-.07-73.87-.07h-5.57l-.87-1.76c1.81-1.34,3.5-3.63,5.44-3.85,7.89-.9,11-5.57,13.08-12.77q14.14-49.47,29.18-98.69c1.65-5.46.24-7.69-4.94-8.93-1.61-.38-2.88-2.2-4.3-3.36,1.8-.91,3.58-2.6,5.38-2.62,20-.19,40.09.06,60.13-.26,4.29-.06,8.54-2,12.84-2.9A21,21,0,0,1,540.64,90.84Z"/>
    <path class="cls-1" d="M643.16,90v33.35c-4.44,1.77-7.08.37-7.93-4.47a20,20,0,0,0-1.07-3.26c-5.34-14.67-1.47-12.68-18.69-12.59-1.62,0-4.23,1.86-4.69,3.37C600,141.77,589.53,177.2,578.94,212.6c-1.13,3.78,0,5.79,3.88,6.57,2.37.49,4.65,1.43,8.88,2.76-2.65,1.94-4.11,3.95-5.6,4-17.34.22-34.67.14-52,.14-.29-.56-.59-1.11-.89-1.67,1.79-1.32,3.5-3.64,5.37-3.79,8.94-.7,12.26-6,14.55-14,9.4-33,19.4-65.79,29.17-98.67.42-1.41.7-2.87,1.18-4.86-5.75,0-11.08-.38-16.3.19-2.09.22-4.33,2.22-5.82,4-3.19,3.78-5.65,8.2-9,11.86-1.82,2-4.77,3-7.21,4.48l-1.64-1.66c3.2-9.87,6.28-19.78,9.79-29.53.28-.79,3.58-.91,5.37-.64,2.5.39,4.88,2.1,7.32,2.12q31.49.27,63,0c2.86,0,5.71-1.45,8.56-2.23Z"/>
    <path class="cls-1" d="M694.69,222.73c-1.34,1.09-2.67,3.12-4,3.13-17.88.21-35.76.14-53.64.14l-.9-2c2-1.29,3.94-3.48,6.08-3.7,8.16-.86,11.35-5.52,13.28-13.12,3.75-14.77,8.7-29.23,12.86-43.89a17.88,17.88,0,0,0,.17-8.81c-3.41-13.69-7.19-27.28-10.83-40.91-2.92-10.94-2.91-10.94-13.73-16.11,2.08-1.46,3.53-3.36,5-3.39,14.87-.22,29.74-.13,44.77-.13,1.09,4.63-2,5.19-5,6.08-7.15,2.17-7.24,2.4-5.41,9.53,3.4,13.23,6.79,26.47,10.52,41,5.41-7.09,10.11-13.19,14.76-19.34q8.79-11.65,17.51-23.36c4-5.44,3.8-6.11-2.56-7.79l-7-1.84c2.56-2,4-4.11,5.55-4.15a264,264,0,0,1,34.18,1.08c-1.4,1.47-2.65,4-4.21,4.24-7.57,1-11.91,5.83-16.23,11.46-11.95,15.59-24.32,30.86-36.38,46.37a22.26,22.26,0,0,0-3.43,7.1c-4.63,15.13-9.1,30.31-13.63,45.47-2.32,7.75-2.32,7.75,5.13,9.78,2,.54,4,1,6.06,1.57Z"/>
    <path class="cls-1" d="M453.07,95.72c-1.77,1.36-3.43,3.66-5.35,3.91-7.87,1-10.74,5.74-12.8,12.94-9.34,32.61-19.27,65.05-29,97.55-2.22,7.42-2.21,7.33,5.1,10,1.33.48,2.3,2,3.43,3-1.12,1-2.24,2.76-3.38,2.77-16,.19-32,.13-48,.13-.32-.52-.63-1-.95-1.55,1.73-1.45,3.27-3.79,5.21-4.18,6.92-1.38,9.9-5.49,11.78-12.12,9.27-32.63,18.94-65.15,28.66-97.65,1.81-6.06,2.93-9.07-5.15-10.68-1.19-.24-2.06-2.1-3.08-3.21,1.37-.89,2.74-2.54,4.12-2.56,16-.18,32-.11,48.07-.11C452.18,94.52,452.63,95.12,453.07,95.72Z"/>
  </g>
</svg>
